<?xml version="1.0" encoding="UTF-8" standalone="no"?>
<!-- Created with Inkscape (http://www.inkscape.org/) -->
<svg
   xmlns:dc="http://purl.org/dc/elements/1.1/"
   xmlns:cc="http://creativecommons.org/ns#"
   xmlns:rdf="http://www.w3.org/1999/02/22-rdf-syntax-ns#"
   xmlns:svg="http://www.w3.org/2000/svg"
   xmlns="http://www.w3.org/2000/svg"
   xmlns:sodipodi="http://sodipodi.sourceforge.net/DTD/sodipodi-0.dtd"
   xmlns:inkscape="http://www.inkscape.org/namespaces/inkscape"
   width="452"
   height="108"
   id="svg2700"
   sodipodi:version="0.32"
   inkscape:version="0.46"
   version="1.0"
   sodipodi:docname="Université Concordia.svg"
   inkscape:output_extension="org.inkscape.output.svg.inkscape">
  <defs
     id="defs2702">
    <clipPath
       clipPathUnits="userSpaceOnUse"
       id="clipPath119">
      <path
         d="M 132,479.158 L 493.317,479.158 L 493.317,565 L 132,565 L 132,479.158 z"
         id="path121" />
    </clipPath>
    <clipPath
       clipPathUnits="userSpaceOnUse"
       id="clipPath47">
      <path
         d="M 114,450 L 505,450 L 505,581 L 114,581 L 114,450 z"
         id="path49" />
    </clipPath>
    <inkscape:perspective
       sodipodi:type="inkscape:persp3d"
       inkscape:vp_x="0 : 526.18109 : 1"
       inkscape:vp_y="0 : 1000 : 0"
       inkscape:vp_z="744.09448 : 526.18109 : 1"
       inkscape:persp3d-origin="372.04724 : 350.78739 : 1"
       id="perspective2708" />
  </defs>
  <sodipodi:namedview
     id="base"
     pagecolor="#ffffff"
     bordercolor="#666666"
     borderopacity="1.0"
     inkscape:pageopacity="0.0"
     inkscape:pageshadow="2"
     inkscape:zoom="2.0547055"
     inkscape:cx="225.82312"
     inkscape:cy="53.651246"
     inkscape:document-units="px"
     inkscape:current-layer="layer1"
     showgrid="false"
     inkscape:window-width="1024"
     inkscape:window-height="712"
     inkscape:window-x="-4"
     inkscape:window-y="-4" />
  <metadata
     id="metadata2705">
    <rdf:RDF>
      <cc:Work
         rdf:about="">
        <dc:format>image/svg+xml</dc:format>
        <dc:type
           rdf:resource="http://purl.org/dc/dcmitype/StillImage" />
      </cc:Work>
    </rdf:RDF>
  </metadata>
  <g
     inkscape:label="Calque 1"
     inkscape:groupmode="layer"
     id="layer1"
     transform="translate(-82.748304,-355.8538)">
    <g
       transform="matrix(1.25,0,0,-1.25,-82.251696,1062.1038)"
       id="g43">
      <g
         id="g45"
         clip-path="url(#clipPath47)">
        <path
           d="M 237.115,512.474 C 234.318,510.522 230.981,509.545 226.914,509.492 C 222.258,509.37 218.075,510.908 215.131,513.82 C 212.412,516.517 211.006,520.093 211.071,524.167 C 211.114,528.416 212.721,532.284 215.596,535.069 C 218.439,537.829 222.37,539.301 226.665,539.215 C 229.881,539.169 231.902,538.624 234.668,537.053 L 236.018,536.289 L 236.018,541.986 L 235.455,542.214 C 232.335,543.528 230.202,543.776 226.601,543.831 C 220.383,543.882 214.762,541.722 210.771,537.75 C 207.183,534.172 205.218,529.353 205.24,524.178 C 205.265,518.821 207.345,513.909 211.093,510.337 C 215.145,506.477 220.799,504.502 227.015,504.774 L 227.512,504.789 C 230.715,504.877 232.832,504.934 236.005,506.086 L 236.384,506.231 L 239.611,514.22 L 237.115,512.474 z"
           style="fill:#96092b;fill-opacity:1;fill-rule:nonzero;stroke:none"
           id="path51" />
        <path
           d="M 258.654,509.391 C 254.425,509.391 251.079,513.127 251.035,517.895 C 251.011,520.454 251.999,522.968 253.68,524.613 C 255.064,525.977 256.804,526.67 258.71,526.621 C 262.912,526.415 266.331,522.566 266.331,518.037 L 266.323,517.763 C 266.233,513.146 262.793,509.391 258.654,509.391 M 268.131,526.929 C 265.695,529.475 262.405,530.916 258.866,530.994 L 258.864,530.994 C 255.383,531.044 251.953,529.66 249.451,527.193 C 246.964,524.743 245.595,521.505 245.595,518.079 C 245.595,511.036 251.361,505.218 258.447,505.115 C 261.98,505.062 265.312,506.38 267.831,508.828 C 270.288,511.211 271.667,514.39 271.716,517.775 C 271.79,521.184 270.518,524.438 268.131,526.929"
           style="fill:#96092b;fill-opacity:1;fill-rule:nonzero;stroke:none"
           id="path53" />
        <path
           d="M 333.187,510.914 C 331.739,509.87 329.063,509.139 326.375,509.053 C 324.005,509.011 321.781,509.904 320.117,511.566 C 318.432,513.249 317.528,515.521 317.572,517.967 C 317.572,522.9 321.271,526.681 326.174,526.767 C 328.331,526.807 330.659,526.121 332.105,525.014 L 333.555,523.909 L 333.555,529.582 L 332.996,529.811 C 330.521,530.82 328.779,530.85 326.364,530.894 L 326.134,530.9 C 322.129,531.005 318.468,529.62 315.83,526.999 C 313.469,524.655 312.179,521.503 312.179,518.097 C 312.179,518.003 312.179,517.909 312.181,517.813 C 312.231,514.32 313.597,511.12 316.034,508.807 C 318.676,506.302 322.37,505.006 326.438,505.161 L 327.238,505.188 C 329.447,505.258 331.199,505.312 333.519,506.243 L 333.711,506.317 L 333.992,506.422 L 334.98,512.202 L 333.187,510.914 z"
           style="fill:#96092b;fill-opacity:1;fill-rule:nonzero;stroke:none"
           id="path55" />
        <path
           d="M 356.004,509.391 C 351.771,509.391 348.426,513.127 348.386,517.895 C 348.358,520.454 349.346,522.968 351.023,524.613 C 352.411,525.977 354.152,526.67 356.056,526.621 C 360.333,526.411 363.677,522.642 363.677,518.037 L 363.673,517.757 C 363.582,513.146 360.141,509.391 356.004,509.391 M 365.474,526.909 C 363.021,529.471 359.733,530.921 356.211,530.994 C 352.731,531.044 349.302,529.66 346.798,527.193 C 344.314,524.745 342.941,521.507 342.941,518.079 C 342.941,511.036 348.71,505.218 355.795,505.115 C 359.329,505.062 362.657,506.38 365.178,508.828 C 367.634,511.211 369.01,514.39 369.059,517.775 C 369.063,517.871 369.063,517.967 369.063,518.063 C 369.063,521.358 367.794,524.491 365.474,526.909"
           style="fill:#96092b;fill-opacity:1;fill-rule:nonzero;stroke:none"
           id="path57" />
        <path
           d="M 475.749,517.741 L 475.749,513.331 C 475.749,510.702 472.923,509.093 470.199,509.053 C 468.851,509.031 467.554,509.549 466.726,510.44 C 466.123,511.089 465.818,511.837 465.818,512.67 L 465.834,512.952 C 465.942,514.756 467.239,516.044 469.303,516.413 L 473.719,517.233 C 473.748,517.241 474.964,517.545 475.749,517.741 M 482.221,505.491 L 481.513,506.791 C 481.221,507.336 481.105,507.649 480.977,508.239 C 480.805,508.819 480.757,509.158 480.757,509.797 L 480.757,522.438 C 480.757,528.093 477.584,530.843 470.775,531.089 L 470.767,531.089 C 468.239,531.089 465.778,530.96 463.25,529.408 L 462.818,529.145 L 462.818,523.9 L 464.31,525.197 C 465.61,526.317 467.682,526.865 470.647,526.865 C 473.448,526.865 475.556,525.462 475.556,523.6 C 475.556,521.966 474.711,521.554 472.828,521.248 C 472.816,521.246 472.4,521.175 467.975,520.419 C 463.125,519.673 460.985,517.505 460.829,513.169 C 460.821,513.016 460.821,512.866 460.821,512.716 C 460.821,510.77 461.498,509.036 462.793,507.683 C 464.422,505.989 466.918,505.033 469.639,505.064 C 471.479,505.096 473.587,505.392 475.652,506.716 L 475.652,505.336 L 482.221,505.491 z"
           style="fill:#96092b;fill-opacity:1;fill-rule:nonzero;stroke:none"
           id="path59" />
        <path
           d="M 297.522,506.353 L 296.286,504.794 L 305.098,504.794 L 303.958,506.254 C 303.662,506.641 303.565,506.8 303.505,507.127 C 303.259,507.969 303.237,508.369 303.237,509.095 L 303.237,521.154 C 303.237,523.644 302.219,525.985 300.373,527.741 C 298.38,529.649 295.595,530.668 292.742,530.532 C 290.207,530.45 288.314,529.803 286.606,528.505 C 286.614,528.811 286.634,529.71 286.634,529.71 L 286.102,529.713 L 280.353,529.713 L 281.175,527.363 L 281.191,527.399 C 281.208,527.291 281.224,527.185 281.255,527.075 L 281.419,526.191 L 281.419,507.689 C 281.419,507.407 281.388,507.241 281.296,507.031 L 280.941,506.275 L 280.502,505.592 L 279.993,504.794 L 288.066,504.794 L 286.928,507.175 C 286.71,507.881 286.666,508.351 286.666,509.288 L 286.666,520.958 C 286.666,524.054 288.833,526.275 291.935,526.355 C 293.751,526.403 295.597,525.739 296.755,524.615 C 297.56,523.836 297.984,522.877 297.984,521.834 L 297.984,509.189 L 298.008,508.449 L 297.988,507.149 C 297.964,506.919 297.858,506.773 297.522,506.353"
           style="fill:#96092b;fill-opacity:1;fill-rule:nonzero;stroke:none"
           id="path61" />
        <path
           d="M 392.731,531.324 C 390.883,531.638 389.307,531.392 387.783,530.542 C 387.13,530.16 386.618,529.771 386.17,529.362 L 386.17,530.32 L 378.857,530.32 L 379.865,529.085 C 380.285,528.573 380.5,528.273 380.685,527.755 C 380.889,527.269 380.921,526.909 380.921,526.363 L 380.921,509.797 L 380.929,509.41 C 380.933,508.769 380.937,508.345 380.769,507.771 C 380.708,507.489 380.617,507.343 380.429,507.053 L 379.369,505.338 L 381.009,505.357 L 388.235,505.357 L 387.334,506.749 C 386.95,507.349 386.791,507.703 386.63,508.329 C 386.394,509.158 386.314,509.601 386.314,510.473 L 386.314,520.794 C 386.314,523.076 387.334,525.193 388.859,526.059 C 390.031,526.703 390.971,526.789 392.311,526.369 L 393.488,526.01 L 393.488,531.18 L 392.731,531.324 z"
           style="fill:#96092b;fill-opacity:1;fill-rule:nonzero;stroke:none"
           id="path63" />
        <path
           d="M 441.429,506.819 L 440.349,505.306 L 448.462,505.306 L 447.518,506.945 L 447.218,507.619 C 447.126,507.943 447.126,508.115 447.126,508.633 L 447.126,530.32 L 440.057,530.32 L 441.129,529.257 C 441.377,529.007 441.509,528.813 441.673,528.458 C 441.778,528.185 441.79,527.953 441.79,527.605 L 441.786,527.137 L 441.786,508.538 L 441.79,508.173 L 441.737,507.339 C 441.706,507.203 441.622,507.085 441.429,506.819 M 447.079,540.394 L 441.105,540.394 L 441.105,534.224 L 447.079,534.224 L 447.079,540.394 z"
           style="fill:#96092b;fill-opacity:1;fill-rule:nonzero;stroke:none"
           id="path65" />
        <path
           d="M 420.309,520.936 L 420.309,515.415 C 420.309,513.484 419.717,511.904 418.592,510.843 C 417.508,509.822 415.984,509.337 414.188,509.439 C 412.416,509.523 410.847,510.307 409.647,511.711 C 408.035,513.592 407.247,516.333 407.531,519.049 C 407.911,522.414 409.378,526.479 414.236,526.717 C 415.948,526.785 417.516,526.227 418.636,525.144 C 419.733,524.094 420.309,522.64 420.309,520.936 M 427.411,505.357 L 426.234,507.113 C 426.014,507.437 425.926,507.577 425.882,507.811 C 425.61,509.723 425.61,510.835 425.61,512.846 L 425.61,543.2 L 418.42,543.2 L 419.668,541.726 C 419.668,541.722 419.949,541.32 420.013,541.226 L 420.025,541.169 L 420.165,540.502 C 420.165,540.502 420.137,532.246 420.125,529.341 C 418.18,530.721 416.22,531.31 413.755,531.188 C 406.57,530.919 402.37,526.218 402.246,518.287 C 402.213,514.245 403.717,510.366 406.27,507.913 C 408.426,505.84 411.215,504.823 414.332,504.968 C 416.625,505.048 418.384,505.59 420.165,506.71 L 420.165,505.357 L 427.411,505.357 z"
           style="fill:#96092b;fill-opacity:1;fill-rule:nonzero;stroke:none"
           id="path67" />
        <path
           d="M 251.183,558.262 L 251.183,553.502 C 251.183,550.722 249.289,549.763 246.989,549.763 C 244.554,549.763 242.794,550.894 242.794,553.49 L 242.794,558.262 L 244.886,558.262 L 244.886,553.441 C 244.886,552.235 245.759,551.509 246.964,551.509 C 248.071,551.509 249.092,552.087 249.092,553.588 L 249.092,558.262 L 251.183,558.262 z"
           style="fill:#debf89;fill-opacity:1;fill-rule:nonzero;stroke:none"
           id="path69" />
        <path
           d="M 271.454,549.874 L 269.695,549.874 L 265.058,555.249 L 265.058,549.874 L 262.967,549.874 L 262.967,558.262 L 264.885,558.262 L 269.363,553.133 L 269.363,558.262 L 271.454,558.262 L 271.454,549.874 z"
           style="fill:#debf89;fill-opacity:1;fill-rule:nonzero;stroke:none"
           id="path71" />
        <path
           d="M 285.463,549.874 L 283.373,549.874 L 283.373,558.263 L 285.463,558.263 L 285.463,549.874 z"
           style="fill:#debf89;fill-opacity:1;fill-rule:nonzero;stroke:none"
           id="path73" />
        <path
           d="M 301.391,549.763 L 300.481,549.763 L 296.423,558.262 L 298.698,558.262 L 300.913,553.477 L 303.016,558.262 L 305.266,558.262 L 301.391,549.763 z"
           style="fill:#debf89;fill-opacity:1;fill-rule:nonzero;stroke:none"
           id="path75" />
        <path
           d="M 322.375,549.874 L 316.188,549.874 L 316.188,558.262 L 322.29,558.262 L 322.29,556.725 L 318.28,556.725 L 318.28,554.965 L 322.104,554.965 L 322.104,553.428 L 318.28,553.428 L 318.28,551.411 L 322.375,551.411 L 322.375,549.874 z"
           style="fill:#debf89;fill-opacity:1;fill-rule:nonzero;stroke:none"
           id="path77" />
        <path
           d="M 336.028,554.818 L 337.135,554.818 C 337.713,554.818 338.278,555.064 338.278,555.778 C 338.278,556.405 337.874,556.725 337.086,556.725 L 336.028,556.725 L 336.028,554.818 z M 337.688,558.262 C 339.411,558.262 340.432,557.106 340.432,555.851 C 340.432,554.929 339.952,554.24 338.993,553.797 C 339.854,553.367 340.112,552.333 341.292,549.874 L 338.993,549.874 C 338.094,551.669 337.762,553.281 336.631,553.281 L 336.028,553.281 L 336.028,549.874 L 333.936,549.874 L 333.936,558.262 L 337.688,558.262 z"
           style="fill:#debf89;fill-opacity:1;fill-rule:nonzero;stroke:none"
           id="path79" />
        <path
           d="M 357.86,556.086 C 356.643,556.626 355.917,556.836 355.204,556.836 C 354.454,556.836 353.973,556.565 353.973,556.147 C 353.973,554.879 358.241,555.237 358.241,552.309 C 358.241,550.698 356.889,549.763 355.018,549.763 C 353.555,549.763 352.829,550.144 351.993,550.575 L 351.993,552.382 C 353.198,551.583 353.936,551.3 354.86,551.3 C 355.659,551.3 356.088,551.583 356.088,552.076 C 356.088,553.453 351.821,552.949 351.821,555.962 C 351.821,557.414 353.075,558.373 355.018,558.373 C 355.954,558.373 356.803,558.176 357.86,557.721 L 357.86,556.086 z"
           style="fill:#debf89;fill-opacity:1;fill-rule:nonzero;stroke:none"
           id="path81" />
        <path
           d="M 371.784,549.874 L 369.694,549.874 L 369.694,558.263 L 371.784,558.263 L 371.784,549.874 z"
           style="fill:#debf89;fill-opacity:1;fill-rule:nonzero;stroke:none"
           id="path83" />
        <path
           d="M 391.254,556.725 L 388.217,556.725 L 388.217,549.874 L 386.125,549.874 L 386.125,556.725 L 383.088,556.725 L 383.088,558.262 L 391.254,558.262 L 391.254,556.725 z"
           style="fill:#debf89;fill-opacity:1;fill-rule:nonzero;stroke:none"
           id="path85" />
        <path
           d="M 405.387,559.074 L 404.477,559.074 L 405.387,560.87 L 407.417,560.87 L 405.387,559.074 z M 408.696,549.874 L 402.508,549.874 L 402.508,558.262 L 408.61,558.262 L 408.61,556.725 L 404.6,556.725 L 404.6,554.965 L 408.426,554.965 L 408.426,553.428 L 404.6,553.428 L 404.6,551.411 L 408.696,551.411 L 408.696,549.874 z"
           style="fill:#debf89;fill-opacity:1;fill-rule:nonzero;stroke:none"
           id="path87" />
        <path
           d="M 334.243,487.702 L 334.243,482.942 C 334.243,480.162 332.348,479.203 330.047,479.203 C 327.612,479.203 325.854,480.334 325.854,482.929 L 325.854,487.702 L 327.944,487.702 L 327.944,482.88 C 327.944,481.674 328.817,480.949 330.022,480.949 C 331.129,480.949 332.151,481.527 332.151,483.028 L 332.151,487.702 L 334.243,487.702 z"
           style="fill:#debf89;fill-opacity:1;fill-rule:nonzero;stroke:none"
           id="path89" />
        <path
           d="M 354.512,479.313 L 352.752,479.313 L 348.116,484.688 L 348.116,479.313 L 346.026,479.313 L 346.026,487.702 L 347.944,487.702 L 352.42,482.573 L 352.42,487.702 L 354.512,487.702 L 354.512,479.313 z"
           style="fill:#debf89;fill-opacity:1;fill-rule:nonzero;stroke:none"
           id="path91" />
        <path
           d="M 368.522,479.313 L 366.43,479.313 L 366.43,487.702 L 368.522,487.702 L 368.522,479.313 z"
           style="fill:#debf89;fill-opacity:1;fill-rule:nonzero;stroke:none"
           id="path93" />
        <path
           d="M 384.45,479.203 L 383.54,479.203 L 379.481,487.702 L 381.756,487.702 L 383.971,482.917 L 386.075,487.702 L 388.325,487.702 L 384.45,479.203 z"
           style="fill:#debf89;fill-opacity:1;fill-rule:nonzero;stroke:none"
           id="path95" />
        <path
           d="M 405.434,479.313 L 399.247,479.313 L 399.247,487.702 L 405.348,487.702 L 405.348,486.165 L 401.338,486.165 L 401.338,484.405 L 405.163,484.405 L 405.163,482.868 L 401.338,482.868 L 401.338,480.85 L 405.434,480.85 L 405.434,479.313 z"
           style="fill:#debf89;fill-opacity:1;fill-rule:nonzero;stroke:none"
           id="path97" />
        <path
           d="M 419.086,484.257 L 420.194,484.257 C 420.772,484.257 421.336,484.503 421.336,485.217 C 421.336,485.844 420.932,486.165 420.145,486.165 L 419.086,486.165 L 419.086,484.257 z M 420.747,487.702 C 422.469,487.702 423.491,486.545 423.491,485.291 C 423.491,484.369 423.01,483.679 422.051,483.237 C 422.913,482.806 423.17,481.773 424.35,479.313 L 422.051,479.313 C 421.153,481.109 420.821,482.72 419.69,482.72 L 419.086,482.72 L 419.086,479.313 L 416.995,479.313 L 416.995,487.702 L 420.747,487.702 z"
           style="fill:#debf89;fill-opacity:1;fill-rule:nonzero;stroke:none"
           id="path99" />
        <path
           d="M 440.918,485.525 C 439.702,486.066 438.975,486.275 438.262,486.275 C 437.512,486.275 437.032,486.004 437.032,485.586 C 437.032,484.319 441.299,484.676 441.299,481.749 C 441.299,480.137 439.948,479.203 438.077,479.203 C 436.614,479.203 435.887,479.584 435.051,480.014 L 435.051,481.822 C 436.256,481.023 436.995,480.74 437.918,480.74 C 438.717,480.74 439.147,481.023 439.147,481.515 C 439.147,482.892 434.879,482.388 434.879,485.402 C 434.879,486.853 436.133,487.812 438.077,487.812 C 439.012,487.812 439.862,487.616 440.918,487.161 L 440.918,485.525 z"
           style="fill:#debf89;fill-opacity:1;fill-rule:nonzero;stroke:none"
           id="path101" />
        <path
           d="M 454.842,479.313 L 452.752,479.313 L 452.752,487.702 L 454.842,487.702 L 454.842,479.313 z"
           style="fill:#debf89;fill-opacity:1;fill-rule:nonzero;stroke:none"
           id="path103" />
        <path
           d="M 474.313,486.165 L 471.276,486.165 L 471.276,479.313 L 469.184,479.313 L 469.184,486.165 L 466.147,486.165 L 466.147,487.702 L 474.313,487.702 L 474.313,486.165 z"
           style="fill:#debf89;fill-opacity:1;fill-rule:nonzero;stroke:none"
           id="path105" />
        <path
           d="M 487.917,483.237 L 484.608,487.702 L 487.143,487.702 L 488.963,485.07 L 490.795,487.702 L 493.317,487.702 L 490.008,483.237 L 490.008,479.313 L 487.917,479.313 L 487.917,483.237 z"
           style="fill:#debf89;fill-opacity:1;fill-rule:nonzero;stroke:none"
           id="path107" />
        <path
           d="M 167.631,528.712 L 193.182,540.763 L 192.039,534.589 L 192.372,533.842 L 202.164,550.069 L 132,550.069 L 141.837,533.563 L 167.631,528.712 z"
           style="fill:#ebd7b4;fill-opacity:1;fill-rule:nonzero;stroke:none"
           id="path109" />
        <path
           d="M 167.316,528.487 L 141.351,533.374 L 141.009,534.952 L 141.837,533.563 L 167.631,528.712 L 172.284,530.907 L 167.316,528.487 z"
           style="fill:#ffffff;fill-opacity:1;fill-rule:nonzero;stroke:none"
           id="path111" />
        <path
           d="M 167.631,528.712 L 141.837,533.563 L 141.009,534.952 L 139.299,542.851 C 140.541,541.888 154.086,537.172 156.858,536.299 L 156.885,536.29 C 155.058,539.242 152.178,542.05 149.487,544.813 C 151.395,542.851 154.824,540.916 157.533,539.197 C 158.55,538.558 159.603,537.919 160.728,537.307 C 160.611,540.421 159.09,543.58 157.947,546.568 C 158.82,544.273 161.295,541.789 163.185,539.647 C 163.725,539.044 164.283,538.441 164.913,537.838 C 166.434,540.853 166.983,544.111 167.028,547.144 C 166.983,544.318 167.577,540.79 169.143,537.856 C 169.917,538.585 170.601,539.341 171.249,540.097 C 172.968,542.113 175.281,544.417 176.1,546.568 C 174.93,543.49 173.58,540.367 173.382,537.235 C 177.765,539.467 181.212,542.365 184.56,544.813 C 181.833,542.824 179.97,540.097 178.242,537.838 C 177.855,537.334 177.477,536.821 177.144,536.29 L 177.225,536.308 C 180.006,537.19 193.335,541.159 193.335,541.159 L 172.284,530.907 L 167.631,528.712"
           style="fill:#ffffff;fill-opacity:1;fill-rule:nonzero;stroke:none"
           id="path113" />
        <g
           id="g115">
          <g
             id="g117"
             clip-path="url(#clipPath119)">
            <path
               d="M 167.631,528.712 L 141.837,533.563 L 141.009,534.952 L 139.299,542.851 C 140.541,541.888 154.086,537.172 156.858,536.299 L 156.885,536.29 C 155.058,539.242 152.178,542.05 149.487,544.813 C 151.395,542.851 154.824,540.916 157.533,539.197 C 158.55,538.558 159.603,537.919 160.728,537.307 C 160.611,540.421 159.09,543.58 157.947,546.568 C 158.82,544.273 161.295,541.789 163.185,539.647 C 163.725,539.044 164.283,538.441 164.913,537.838 C 166.434,540.853 166.983,544.111 167.028,547.144 C 166.983,544.318 167.577,540.79 169.143,537.856 C 169.917,538.585 170.601,539.341 171.249,540.097 C 172.968,542.113 175.281,544.417 176.1,546.568 C 174.93,543.49 173.58,540.367 173.382,537.235 C 177.765,539.467 181.212,542.365 184.56,544.813 C 181.833,542.824 179.97,540.097 178.242,537.838 C 177.855,537.334 177.477,536.821 177.144,536.29 L 177.225,536.308 C 180.006,537.19 193.335,541.159 193.335,541.159 L 172.284,530.907 L 167.631,528.712"
               style="fill:#ffffff;fill-opacity:1;fill-rule:nonzero;stroke:none"
               id="path123" />
            <path
               d="M 166.547,564.65 C 145.89,566.126 134.393,562.483 132.256,562.083 L 132.256,556.285 C 138.299,557.638 148.988,559.469 164.184,559.976 L 164.172,559.976 L 164.21,559.982 L 164.184,559.976 C 185.041,560.382 197.837,557.936 201.456,557.052 L 201.456,557.044 C 201.456,557.044 189.456,562.625 166.547,564.65"
               style="fill:#96092b;fill-opacity:1;fill-rule:nonzero;stroke:none"
               id="path125" />
          </g>
        </g>
        <path
           d="M 193.479,507.851 C 184.603,497.086 172.345,489.368 167.366,487.132 C 159.828,490.605 141.815,502.977 133.718,527.015 C 133.529,527.689 133.353,528.364 133.178,529.049 C 133.294,528.16 133.411,527.274 133.54,526.398 L 133.529,526.446 C 133.834,524.923 134.15,523.411 134.515,521.928 C 142.053,496.211 160.402,482.839 167.338,479.158 C 172.671,481.987 184.753,492.345 193.479,507.851"
           style="fill:#96092b;fill-opacity:1;fill-rule:nonzero;stroke:none"
           id="path127" />
        <path
           d="M 140.489,541.272 L 144.331,518.308 C 144.331,518.308 153.429,504.659 166.362,497.364 L 166.375,527.776 L 140.489,541.272 z"
           style="fill:#debf89;fill-opacity:1;fill-rule:nonzero;stroke:none"
           id="path129" />
        <path
           d="M 168.38,528.584 L 168.38,497.374 C 168.648,497.524 168.919,497.682 169.187,497.835 C 169.412,497.969 169.634,498.101 169.859,498.232 L 169.859,528.935 L 168.38,528.584 z"
           style="fill:#debf89;fill-opacity:1;fill-rule:nonzero;stroke:none"
           id="path131" />
        <path
           d="M 194.909,542.402 C 194.909,542.402 173.661,531.355 167.216,530.782 C 160.023,531.489 140.492,541.272 140.492,541.272 C 153.098,530.777 166.858,527.533 167.421,527.362 L 167.414,527.373 C 167.414,527.373 177.805,529.402 192.084,539.593 C 191.951,537.389 191.295,530.834 190.109,523.429 L 194.909,542.402 z"
           style="fill:#96092b;fill-opacity:1;fill-rule:nonzero;stroke:none"
           id="path133" />
      </g>
    </g>
  </g>
</svg>
