<?xml version="1.0" encoding="utf-8"?>
<!-- Generator: Adobe Illustrator 19.1.0, SVG Export Plug-In . SVG Version: 6.00 Build 0)  -->
<svg version="1.1" id="Calque_1" xmlns="http://www.w3.org/2000/svg" xmlns:xlink="http://www.w3.org/1999/xlink" x="0px" y="0px"
	 viewBox="0 0 234.2 146.2" style="enable-background:new 0 0 234.2 146.2;" xml:space="preserve">
<style type="text/css">
	.st0{fill:url(#SVGID_1_);}
	.st1{fill:#E73137;}
	.st2{fill:#646363;}
	.st3{fill:#FFFFFF;}
	.st4{fill:url(#SVGID_2_);}
</style>
<g>
	<g>
		<linearGradient id="SVGID_1_" gradientUnits="userSpaceOnUse" x1="54.497" y1="68.7745" x2="66.403" y2="68.7745">
			<stop  offset="0" style="stop-color:#E73137"/>
			<stop  offset="1" style="stop-color:#FFFFFF;stop-opacity:0"/>
		</linearGradient>
		<path class="st0" d="M19.2,61.7c0.3,5.6,11.1,10.6,28,12.8c4,0.6,6.8,0.8,11.3,1c2.1,0.1,8,0.3,8,0.3l0.1-1.3c0,0-6.9-0.3-8.9-0.4
			c-2.8-0.1-4.9-0.2-8.4-0.7c-18.6-2.3-28.4-7.8-28.6-11.9L19.2,61.7z"/>
		<g>
			<path class="st1" d="M215.8,49c-0.2-5.3-10.5-9.1-30.6-11.2c-9.7-1.1-21.1-1.6-33.8-1.6l0,0c-11.1,0-23,0.4-35.3,1.2
				c-21.4,1.4-43.3,4.3-61.7,8.1c-1.5,0.3-3,0.7-4.4,1.1c-0.8,0.2-1.6,0.4-2.4,0.6c-13.1,3.2-28.7,8.2-28.4,14.5l1.4-0.1
				c-0.2-4,10-8.9,27.3-13.1c1.3-0.3,2.7-0.6,4.1-0.9c0.9-0.2,1.8-0.3,2.7-0.5c16.2-3.4,37.5-6,61.5-7.6c11.1-0.7,22-1.1,32.5-1.1
				c13.4,0,25.6,0.6,36.1,1.7c20,2.2,27.3,6.1,27.4,9L215.8,49z"/>
		</g>
		<g>
			<path class="st2" d="M95.8,25.8l-45.9,0l-20.5,81.9h46.3l3.1-12.7H47.9l5.9-23.5h26.3l3.2-12.6H56.9L62,38.5h30.5L95.8,25.8
				L95.8,25.8z"/>
		</g>
		<g>
			<path class="st2" d="M91.2,5.6L91.2,5.6c-1.8,0-3.6,1-6.9,2.8L84,8.5l-16.2,9.7l-2.3,1.3l2.6,0.2l3.5,0.3l0.2,0l0.2-0.1l18.5-5.7
				c2.1-0.5,4.3-1.2,4.9-3.6c0.3-1,0.1-2.1-0.5-3.1c-0.6-1-1.4-1.7-2.4-1.9C92,5.6,91.6,5.6,91.2,5.6L91.2,5.6z"/>
		</g>
		<g>
			<path class="st1" d="M94,23.7H48.1l-20.5,81.9h46.3L77,92.9H46.2l5.9-23.5h26.3l3.2-12.6H55.1l5.1-20.3h30.5L94,23.7L94,23.7z"/>
		</g>
		<g>
			<path class="st1" d="M89.4,3.5L89.4,3.5c-1.8,0-3.6,1-6.9,2.8l-0.3,0.2L66,16.1l-2.3,1.3l2.6,0.2l3.5,0.3l0.2,0l0.2,0l18.5-5.7
				c2.1-0.5,4.3-1.2,4.9-3.6c0.3-1,0.1-2.1-0.5-3.1c-0.6-1-1.4-1.7-2.4-1.9C90.2,3.6,89.8,3.5,89.4,3.5L89.4,3.5z"/>
		</g>
		<path class="st2" d="M125.9,75.8c-0.8,0.1-1.6,0.1-2.3,0.2l-4.9,19.8l-0.2,0.7h-0.7h-12.3l-0.5,2.1h15.3L125.9,75.8z"/>
		<polygon class="st2" points="99.6,27.2 99.1,29.3 119.9,29.3 120.4,27.2 		"/>
		<path class="st2" d="M160,16.5l-2.5,10l-0.2,0.7h-0.7h-21L125,70c0.8-0.1,1.6-0.1,2.3-0.2l10.1-40.5h21.7l3.2-12.7H160z"/>
		<path class="st1" d="M118.2,76.4c-1.5,0.1-4.4,0.3-8,0.6c-0.8,0.1-1.5,0.1-2.3,0.2l-4.8,19.3h15.3l5.1-20.4
			C121.8,76.1,120,76.3,118.2,76.4z"/>
		<path class="st1" d="M100.5,14.5l-3.2,12.7h23.1l-0.5,2.1l-10.4,41.9c0.8-0.1,1.6-0.1,2.3-0.2c2.7-0.2,4.8-0.3,6.1-0.4
			c2.4-0.2,4.8-0.4,7.2-0.6l10.7-42.8h21.7l2.7-10.7l0.5-2.1H100.5z"/>
		<line class="st3" x1="127.4" y1="69.8" x2="127.4" y2="69.8"/>
		<path class="st2" d="M198.2,68.5c0,13-9.8,26.1-28.6,26.1c-7.6,0-14.9-1.9-21.3-5.5l-0.1,0.3l-0.2,0.6l0.5,0.3
			c6.7,4.2,14.6,6.4,22.8,6.4c18.8,0,28.6-13.1,28.6-26.1c0-3-0.5-5.6-1.3-7.9c-0.3,0.1-0.7,0.2-1.1,0.4
			C197.9,64.7,198.2,66.5,198.2,68.5z"/>
		<path class="st2" d="M174.4,55c-1.9-1.6-3.9-3.4-5.8-5.5c2.3,2.9,5.1,5.3,7.5,7.5c1.1,1,2.2,2,3.2,3.1
			C177.9,58.3,176.2,56.6,174.4,55z"/>
		<path class="st2" d="M196,57.5c-1-1.5-2.1-2.8-3.2-4c1,1.3,1.9,2.6,2.8,4.1C195.7,57.6,195.8,57.5,196,57.5"/>
		<path class="st2" d="M209.4,16.3c-0.5-0.3-1-0.6-1.5-0.8L205,27.1l-0.4,1.4l-1.1-1c-5.9-5.5-11.6-6.4-14.5-6.4
			c-7.8,0-12,5.9-12,11.4c0,4,2.1,7.2,4.8,10.1c-1.8-2.3-3.1-5-3.1-8c0-5.5,4.2-11.4,12-11.4c2.9,0,8.6,0.8,14.5,6.4l1.1,1l0.4-1.4
			l3-11.9l0.2-0.6L209.4,16.3z"/>
		<path class="st1" d="M207.6,14.2c-7.5-4.5-14.8-5.5-19.5-5.5c-7.9,0-14.7,2.6-19.6,7.6c-4.4,4.4-6.9,10.5-6.9,16.7
			c0,7.2,3.2,12.4,7,16.5c1.9,2,3.9,3.8,5.8,5.5c1.7,1.6,3.5,3.3,4.9,5.1c0.4,0.5,0.7,1,1.1,1.6c0.1,0,0.2,0,0.3-0.1
			c1.7-0.4,3.3-0.8,4.9-1.2c3.6-0.9,7-1.9,9.9-2.8c-0.8-1.5-1.8-2.9-2.8-4.1c-1.5-1.8-3.1-3.4-4.5-4.9l-0.1-0.1l-2.5-2.3
			c-1.3-1.1-2.7-2.3-3.9-3.6c-2.7-2.8-4.8-6.1-4.8-10.1c0-5.5,4.2-11.4,12-11.4c2.9,0,8.6,0.8,14.5,6.4l1.1,1l0.4-1.4l2.9-11.6
			l0.1-0.3l0.2-0.6L207.6,14.2z"/>
		<path class="st1" d="M197.6,63.1c-3.1,1-6.6,2-10.5,3c-1.1,0.3-2.3,0.6-3.4,0.8c-0.4,0.1-0.8,0.2-1.3,0.3c0.1,0.5,0.1,1.1,0.1,1.7
			c0,6.6-4.2,13.2-13.6,13.2c-6.3,0-12.3-2.7-17.8-7.9l-1.1-1l-0.4,1.4l-3.2,12.7l-0.2,0.6l0.5,0.3c0.5,0.3,1,0.6,1.5,0.9
			c6.4,3.6,13.7,5.5,21.3,5.5c18.8,0,28.6-13.1,28.6-26.1C198.2,66.5,197.9,64.7,197.6,63.1z"/>
		
			<linearGradient id="SVGID_2_" gradientUnits="userSpaceOnUse" x1="77.5214" y1="66.3409" x2="159.0601" y2="60.3259" gradientTransform="matrix(0.9999 -1.220000e-002 1.220000e-002 0.9999 2.5259 4.2836)">
			<stop  offset="0" style="stop-color:#FFFFFF;stop-opacity:0"/>
			<stop  offset="2.558327e-002" style="stop-color:#FEF5F2;stop-opacity:2.558327e-002"/>
			<stop  offset="0.1268" style="stop-color:#FACFC3;stop-opacity:0.1268"/>
			<stop  offset="0.2328" style="stop-color:#F5AA99;stop-opacity:0.2328"/>
			<stop  offset="0.3416" style="stop-color:#F18877;stop-opacity:0.3416"/>
			<stop  offset="0.4541" style="stop-color:#ED6B5E;stop-opacity:0.4541"/>
			<stop  offset="0.5714" style="stop-color:#EA524B;stop-opacity:0.5714"/>
			<stop  offset="0.6955" style="stop-color:#E83F3F;stop-opacity:0.6955"/>
			<stop  offset="0.8312" style="stop-color:#E73439;stop-opacity:0.8312"/>
			<stop  offset="1" style="stop-color:#E73137"/>
		</linearGradient>
		<path class="st4" d="M212.3,49.3c0.1,1.8-5.3,6.7-26.5,12c-18,4.6-42.1,8.2-67.9,10.2c-5.6,0.4-29.1,2-34.8,2.3l-0.4,0l-0.5,4.2
			l0.5,0c5.6-0.3,29.4-1.9,35.4-2.4c18.3-1.4,36-3.6,51.2-6.5c6.3-1.2,12.1-2.4,17.4-3.8c19.8-5,29.3-10.3,28.9-16.2L212.3,49.3z"/>
	</g>
	<g>
		<path d="M13.2,140.3H4.1v-16.2h2.1v14.6h8L13.2,140.3z"/>
		<path d="M23.2,140.2c-0.4,0.1-1.2,0.4-2.5,0.4c-3.4,0-6-2-6-5.9c0-3.5,2.2-6,5.2-6c1.5,0,2.8,0.6,3.7,1.7c1,1.3,1,3.2,1,4.1h-7.9
			c0,0.7,0,2.2,1,3.3c0.9,0.9,2.1,1.2,3.3,1.2c1.4,0,2.5-0.4,3.1-0.6L23.2,140.2z M22.6,133c0-0.5-0.1-1.4-0.7-2
			c-0.4-0.4-1-0.7-1.9-0.7c-1.4,0-2.5,0.9-3,2.8H22.6z"/>
		<path d="M39.9,139.6c-0.4,0.1-1.1,0.3-2,0.3c-3.4,0-5.4-2.3-5.4-5.3c0-2.9,1.9-5.9,6.1-5.9c0.6,0,2.5,0.1,4.2,0.9v9.3
			c0,1.3,0,2.3-0.7,3.5c-0.9,1.6-2.7,2.6-5,2.6c-0.7,0-2.5-0.1-4.2-1.1v-2c0.3,0.3,0.6,0.5,1.3,0.8c0.9,0.4,2,0.6,2.8,0.6
			c1.6,0,2.9-0.6,3.4-2.1c0.3-0.9,0.3-1.7,0.3-3.1L39.9,139.6z M40.9,130.6c-0.6-0.2-1.4-0.4-2.3-0.4c-2.3,0-4,1.6-4,4.1
			c0,2.7,1.6,4,3.6,4c1.2,0,2.3-0.5,2.7-0.7V130.6z"/>
		<path d="M53.6,140.2c-0.4,0.1-1.2,0.4-2.5,0.4c-3.4,0-6-2-6-5.9c0-3.5,2.2-6,5.2-6c1.5,0,2.8,0.6,3.7,1.7c1,1.3,1,3.2,1,4.1h-7.9
			c0,0.7,0,2.2,1,3.3c0.9,0.9,2.1,1.2,3.4,1.2c1.4,0,2.5-0.4,3.1-0.6L53.6,140.2z M52.9,133c0-0.5-0.1-1.4-0.7-2
			c-0.4-0.4-1-0.7-1.9-0.7c-1.4,0-2.5,0.9-3,2.8H52.9z M48.7,127.5v-1.5l4.3-1.7v1.5L48.7,127.5z"/>
		<path d="M56.8,140.3V129h2v1.8l1.2-1.7c1-0.4,2.1-0.4,2.4-0.4c0.6,0,1.8,0.1,2.9,0.9c1.2,1,1.2,2.2,1.2,3.2v7.5h-2v-6.6
			c0-2-0.3-3.4-2.7-3.4c-0.9,0-2.1,0.3-3,0.9v9.1H56.8z"/>
		<path d="M71.4,124.9c0,0.6-0.5,1.1-1.1,1.1c-0.6,0-1.1-0.5-1.1-1.1c0-0.6,0.5-1.1,1.1-1.1C70.9,123.8,71.4,124.3,71.4,124.9z
			 M71.3,140.3h-2V129h2V140.3z"/>
		<path d="M81.9,140.2c-0.4,0.1-1.2,0.4-2.5,0.4c-3.4,0-6-2-6-5.9c0-3.5,2.2-6,5.2-6c1.5,0,2.8,0.6,3.7,1.7c1,1.3,1,3.2,1,4.1h-7.9
			c0,0.7,0,2.2,1,3.3c0.9,0.9,2.1,1.2,3.3,1.2c1.4,0,2.5-0.4,3.1-0.6L81.9,140.2z M81.3,133c0-0.5-0.1-1.4-0.7-2
			c-0.4-0.4-1-0.7-1.9-0.7c-1.4,0-2.5,0.9-3,2.8H81.3z"/>
		<path d="M95,129c0.4-0.1,1-0.3,1.9-0.3c3.4,0,5.5,2.2,5.5,5.7c0,3.5-2.1,6.2-5.6,6.2c-1.4,0-2.2-0.4-2.8-0.7v5.3h-2v-16.3h2v1.6
			L95,129z M93.9,138.3c0.3,0.2,1.2,0.7,2.5,0.7c2.6,0,3.8-2.1,3.8-4.5c0-1.4-0.4-2.4-0.9-3c-0.7-0.9-1.7-1.3-2.8-1.3
			c-1.2,0-2.1,0.4-2.6,0.6V138.3z"/>
		<path d="M109,140.6c-3.2,0-5.3-2.2-5.3-5.8c0-3.5,2-6.1,5.4-6.1c3.1,0,5.2,2.3,5.2,5.9C114.4,138.1,112.3,140.6,109,140.6z
			 M112.3,134.6c0-2-0.8-4.4-3.2-4.4c-2,0-3.2,1.7-3.2,4.5c0,0.9,0.1,2.1,0.8,3.1c0.6,0.9,1.5,1.3,2.4,1.3
			C111.3,139.1,112.3,136.7,112.3,134.6z"/>
		<path d="M126.2,140.3h-2v-1.8l-1.2,1.7c-1,0.4-2.2,0.4-2.4,0.4c-3,0-4-1.8-4-4.1v-7.6h2v6.9c0,1.8,0.4,3.2,2.7,3.2
			c0.9,0,2.1-0.3,3-0.9v-9.1h2V140.3z"/>
		<path d="M131,140.3h-2V129h2v1.7l1.1-1.5c0.3-0.1,1-0.4,2-0.4c0.6,0,0.9,0.1,1.3,0.2v1.8c-0.5-0.2-1-0.4-1.8-0.4
			c-1.1,0-2,0.5-2.6,0.9V140.3z"/>
		<path d="M145.4,140.3h-2v-16.2h2V140.3z"/>
		<path d="M148.6,128.3h-1.3l1.7-4.3h1.9L148.6,128.3z"/>
		<path d="M155.2,124.9c0,0.6-0.5,1.1-1.1,1.1c-0.6,0-1.1-0.5-1.1-1.1c0-0.6,0.5-1.1,1.1-1.1C154.6,123.8,155.2,124.3,155.2,124.9z
			 M155,140.3h-2V129h2V140.3z"/>
		<path d="M157.9,140.3V129h2v1.8l1.2-1.7c1-0.4,2.1-0.4,2.4-0.4c0.6,0,1.8,0.1,2.9,0.9c1.2,1,1.2,2.2,1.2,3.2v7.5h-2v-6.6
			c0-2-0.3-3.4-2.7-3.4c-0.9,0-2.1,0.3-3,0.9v9.1H157.9z"/>
		<path d="M180.1,140.3h-2v-1.6l-1.1,1.6c-0.4,0.1-0.9,0.3-1.8,0.3c-3.7,0-5.6-2.4-5.6-5.7c0-3.2,2-6.2,5.5-6.2
			c0.6,0,1.8,0.1,2.9,0.7v-5.3h2V140.3z M178.1,131c-0.8-0.4-1.7-0.7-2.6-0.7c-0.4,0-1.3,0-2.2,0.8c-1.1,0.9-1.5,2.4-1.5,3.9
			c0,2.6,1.5,4.1,3.7,4.1c1.2,0,2.2-0.4,2.6-0.6V131z"/>
		<path d="M192.6,140.3h-2v-1.8l-1.2,1.7c-1,0.4-2.2,0.4-2.4,0.4c-3,0-4-1.8-4-4.1v-7.6h2v6.9c0,1.8,0.4,3.2,2.7,3.2
			c0.9,0,2.1-0.3,3-0.9v-9.1h2V140.3z"/>
		<path d="M199.5,134c1.1,0.5,2.4,1.2,2.4,3.1c0,1.9-1.5,3.5-4,3.5c-1.1,0-2.1-0.3-3.1-0.7v-1.8c0.3,0.2,0.6,0.4,1.1,0.6
			c0.5,0.2,1.2,0.4,1.8,0.4c1.5,0,2.1-1,2.1-1.8c0-1.2-1-1.6-1.8-1.9l-0.8-0.3c-0.8-0.3-2.4-1-2.4-3c0-2,1.6-3.4,3.9-3.4
			c1.3,0,2.3,0.5,2.6,0.6v1.7c-0.6-0.6-1.5-0.9-2.4-0.9c-1.5,0-2.1,0.9-2.1,1.7c0,0.9,0.8,1.3,1.5,1.6L199.5,134z"/>
		<path d="M208,140.5c-0.3,0.1-0.6,0.1-1,0.1c-0.8,0-1.6-0.3-2.1-0.9c-0.6-0.7-0.6-1.3-0.6-2.5v-6.8H203l1.1-1.4h0.3v-2.2l2-0.6v2.8
			h2.4v1.4h-2.4v5.9c0,1.2,0,1.4,0,1.6c0.2,1.1,1,1.2,1.4,1.2c0.2,0,0.7,0,1.4-0.3L208,140.5z"/>
		<path d="M212.4,140.3h-2V129h2v1.7l1.1-1.5c0.3-0.1,1-0.4,2-0.4c0.6,0,0.9,0.1,1.3,0.2v1.8c-0.5-0.2-1-0.4-1.8-0.4
			c-1.1,0-2,0.5-2.6,0.9V140.3z"/>
		<path d="M220.1,124.9c0,0.6-0.5,1.1-1.1,1.1c-0.6,0-1.1-0.5-1.1-1.1c0-0.6,0.5-1.1,1.1-1.1C219.6,123.8,220.1,124.3,220.1,124.9z
			 M220,140.3h-2V129h2V140.3z"/>
		<path d="M230.6,140.2c-0.4,0.1-1.2,0.4-2.5,0.4c-3.4,0-6-2-6-5.9c0-3.5,2.2-6,5.2-6c1.5,0,2.8,0.6,3.7,1.7c1,1.3,1,3.2,1,4.1h-7.9
			c0,0.7,0,2.2,1,3.3c0.9,0.9,2.1,1.2,3.4,1.2c1.4,0,2.5-0.4,3.1-0.6L230.6,140.2z M230,133c0-0.5-0.1-1.4-0.7-2
			c-0.4-0.4-1-0.7-1.9-0.7c-1.4,0-2.5,0.9-3,2.8H230z"/>
	</g>
</g>
</svg>
