<?xml version="1.0" encoding="UTF-8" standalone="no"?>
<!-- Created with Inkscape (http://www.inkscape.org/) -->

<svg
   xmlns:dc="http://purl.org/dc/elements/1.1/"
   xmlns:cc="http://creativecommons.org/ns#"
   xmlns:rdf="http://www.w3.org/1999/02/22-rdf-syntax-ns#"
   xmlns:svg="http://www.w3.org/2000/svg"
   xmlns="http://www.w3.org/2000/svg"
   xmlns:sodipodi="http://sodipodi.sourceforge.net/DTD/sodipodi-0.dtd"
   xmlns:inkscape="http://www.inkscape.org/namespaces/inkscape"
   width="1788.4821"
   height="486.79303"
   id="svg2"
   version="1.1"
   inkscape:version="0.48.0 r9654"
   sodipodi:docname="Nouveau document 1">
  <defs
     id="defs4" />
  <sodipodi:namedview
     id="base"
     pagecolor="#ffffff"
     bordercolor="#666666"
     borderopacity="1.0"
     inkscape:pageopacity="0.0"
     inkscape:pageshadow="2"
     inkscape:zoom="0.46631722"
     inkscape:cx="732.35879"
     inkscape:cy="192.16032"
     inkscape:document-units="px"
     inkscape:current-layer="layer1"
     showgrid="false"
     fit-margin-top="0"
     fit-margin-left="0"
     fit-margin-right="0"
     fit-margin-bottom="0"
     inkscape:window-width="1600"
     inkscape:window-height="1151"
     inkscape:window-x="-4"
     inkscape:window-y="-4"
     inkscape:window-maximized="1" />
  <metadata
     id="metadata7">
    <rdf:RDF>
      <cc:Work
         rdf:about="">
        <dc:format>image/svg+xml</dc:format>
        <dc:type
           rdf:resource="http://purl.org/dc/dcmitype/StillImage" />
        <dc:title></dc:title>
      </cc:Work>
    </rdf:RDF>
  </metadata>
  <g
     inkscape:label="Calque 1"
     inkscape:groupmode="layer"
     id="layer1"
     transform="translate(450.33725,-361.84512)">
    <rect
       style="fill:#ffffff;fill-opacity:1;stroke:none"
       id="rect3784"
       width="1788.4821"
       height="486.79303"
       x="-450.33725"
       y="361.84512"
       ry="0.057943285" />
    <path
       style="fill:#000000;fill-opacity:1;stroke:none"
       d="M -329.99833,606.35191 -329.99833,496.02632 -304.40968,496.22595 -278.82104,496.42558 -278.11868,499.26876 C -277.73239,500.83251 -277.13532,502.11194 -276.79186,502.11194 -276.44841,502.11194 -276.1674,502.58454 -276.1674,503.16215 -276.1674,504.60456 -273.70519,512.25873 -273.09072,512.72649 -272.81683,512.93499 -272.13839,514.89679 -271.58309,517.08604 -271.02779,519.27529 -270.35107,521.0665 -270.07926,521.0665 -269.80745,521.0665 -269.16512,522.943 -268.65185,525.2365 -268.13859,527.53 -267.4264,529.4065 -267.06921,529.4065 -266.71202,529.4065 -265.99984,531.283 -265.48657,533.5765 -264.97331,535.87 -264.30051,537.74651 -263.99146,537.74651 -263.68241,537.74651 -263.02005,539.45347 -262.51956,541.53975 -262.01907,543.62604 -261.33696,545.50149 -261.00376,545.70742 -260.67056,545.91335 -259.98844,547.7888 -259.48795,549.87508 -258.98746,551.96137 -258.3253,553.66833 -258.0165,553.66833 -257.70769,553.66833 -257.00486,555.54483 -256.45466,557.83833 -255.90446,560.13183 -255.22471,562.00833 -254.94411,562.00833 -254.66351,562.00833 -253.79673,564.5672 -253.01792,567.6947 -252.23912,570.8222 -251.36059,573.38107 -251.06563,573.38107 -250.77067,573.38107 -250.09213,575.08698 -249.55775,577.17198 -249.02339,579.25698 -248.36398,580.96289 -248.09242,580.96289 -247.82086,580.96289 -247.1485,582.83939 -246.59829,585.13289 -246.04809,587.42639 -245.34123,589.30289 -245.02748,589.30289 -244.71373,589.30289 -244.22532,590.67438 -243.94212,592.35065 -243.65891,594.02691 -242.98511,595.84049 -242.44478,596.38082 -241.90444,596.92116 -241.02832,599.30268 -240.49785,601.67307 -239.96738,604.04348 -239.28049,605.9829 -238.97144,605.9829 -238.66239,605.9829 -237.98186,607.76564 -237.45915,609.94454 -236.93644,612.12345 -236.08059,614.33437 -235.55725,614.8577 -235.03392,615.38104 -234.37403,617.1807 -234.09083,618.85697 -233.80763,620.53323 -233.33049,621.90472 -233.03053,621.90472 -232.73056,621.90472 -231.84465,624.37829 -231.06184,627.40154 -230.27902,630.4248 -229.22084,633.31808 -228.71032,633.83106 -228.1998,634.34405 -227.55039,636.13526 -227.26719,637.81152 -226.98399,639.48779 -226.49557,640.85928 -226.18183,640.85928 -225.86808,640.85928 -225.16122,642.73578 -224.61101,645.02928 -224.06081,647.32278 -223.38563,649.19928 -223.11062,649.19928 -222.83559,649.19928 -222.14605,650.90519 -221.57828,652.99019 -221.01052,655.07519 -220.32077,656.7811 -220.04551,656.7811 -219.77025,656.7811 -219.12509,658.6576 -218.61183,660.9511 -218.09857,663.2446 -217.39988,665.12111 -217.05919,665.12111 -216.71851,665.12111 -216.20295,666.40054 -215.9135,667.96429 -215.12851,672.20523 -213.28352,675.70543 -212.0771,675.24248 -211.50834,675.02422 -210.62968,672.99881 -210.12452,670.74156 -209.61938,668.48431 -208.95071,666.63747 -208.6386,666.63747 -208.3265,666.63747 -207.63393,664.93156 -207.09955,662.84656 -206.56519,660.76156 -205.90578,659.05565 -205.63422,659.05565 -205.36266,659.05565 -204.6903,657.17915 -204.14009,654.88565 -203.58989,652.59215 -202.91471,650.71564 -202.6397,650.71564 -202.36467,650.71564 -201.67513,649.00973 -201.10737,646.92473 -200.5396,644.83973 -199.84985,643.13382 -199.57459,643.13382 -199.29933,643.13382 -198.65418,641.25732 -198.14091,638.96382 -197.62765,636.67032 -196.89099,634.79382 -196.5039,634.79382 -196.11681,634.79382 -195.80009,634.32123 -195.80009,633.74361 -195.80009,632.30453 -193.33869,624.648 -192.72537,624.17927 -192.45255,623.97077 -191.80459,622.00897 -191.28546,619.81972 -190.76632,617.63047 -190.06441,615.83927 -189.72566,615.83927 -189.3869,615.83927 -188.87802,614.46778 -188.59482,612.79151 -188.31162,611.11525 -187.65173,609.31558 -187.1284,608.79224 -186.60506,608.26892 -185.74921,606.058 -185.2265,603.87909 -184.70379,601.70019 -184.02326,599.91744 -183.71421,599.91744 -183.40516,599.91744 -182.71827,597.97802 -182.1878,595.60762 -181.65733,593.23722 -180.78121,590.8557 -180.24087,590.31537 -179.70054,589.77503 -179.02674,587.96145 -178.74353,586.28519 -178.46033,584.60892 -177.95145,583.23743 -177.6127,583.23743 -177.27394,583.23743 -176.57203,581.44623 -176.0529,579.25698 -175.53376,577.06773 -174.8858,575.10593 -174.61299,574.89743 -173.99966,574.4287 -171.53826,566.77217 -171.53826,565.33309 -171.53826,564.75547 -171.22155,564.28288 -170.83446,564.28288 -170.44736,564.28288 -169.7107,562.40638 -169.19744,560.11288 -168.68418,557.81938 -168.00887,555.94288 -167.69677,555.94288 -167.38466,555.94288 -166.69209,554.23697 -166.15772,552.15197 -165.62335,550.06697 -164.96394,548.36106 -164.69239,548.36106 -164.42082,548.36106 -163.74846,546.48455 -163.19826,544.19105 -162.64805,541.89755 -161.96569,540.02105 -161.68189,540.02105 -161.3981,540.02105 -160.71574,538.14455 -160.16553,535.85105 -159.61533,533.55755 -158.91251,531.68105 -158.6037,531.68105 -158.29489,531.68105 -157.63298,529.97514 -157.1328,527.89014 -156.63262,525.80514 -155.97052,524.09923 -155.66147,524.09923 -155.35242,524.09923 -154.67961,522.22273 -154.16635,519.92923 -153.65309,517.63572 -152.91643,515.75922 -152.52933,515.75922 -152.14224,515.75922 -151.82553,515.28663 -151.82553,514.70902 -151.82553,513.29179 -149.36949,505.61999 -148.76362,505.14467 -148.49785,504.93617 -147.85867,503.0642 -147.34322,500.98474 -146.82776,498.90528 -146.0048,496.9487 -145.51441,496.6368 -145.02403,496.3249 -133.79027,496.06448 -120.55051,496.0581 L -96.478231,496.04649 -96.478231,606.36199 -96.478231,716.67749 -113.15824,716.67749 -129.83824,716.67749 -129.83824,621.14654 C -129.83824,568.60452 -130.09413,525.62082 -130.40688,525.6272 -131.84923,525.65665 -132.7226,527.05558 -133.5947,530.73332 -134.11383,532.92257 -134.79911,534.71378 -135.11754,534.71378 -135.43597,534.71378 -136.13092,536.76087 -136.66188,539.26287 -137.19285,541.76487 -137.89394,543.81196 -138.21986,543.81196 -138.54579,543.81196 -139.42769,546.20024 -140.17964,549.11924 -140.9316,552.03824 -141.77842,554.42651 -142.06147,554.42651 -142.34451,554.42651 -143.00377,556.20925 -143.52648,558.38816 -144.04919,560.56707 -144.90505,562.77799 -145.42838,563.30132 -145.95171,563.82465 -146.6116,565.62432 -146.8948,567.30058 -147.17801,568.97685 -147.66642,570.34834 -147.98016,570.34834 -148.29391,570.34834 -149.00078,572.22484 -149.55098,574.51834 -150.10119,576.81184 -150.80805,578.68834 -151.1218,578.68834 -151.43554,578.68834 -151.92395,580.05983 -152.20716,581.7361 -152.49036,583.41236 -153.16112,585.22289 -153.69772,585.7595 -154.23433,586.29611 -154.9242,587.90997 -155.23076,589.34584 -155.53732,590.78172 -156.40094,593.32126 -157.1499,594.98926 -157.89887,596.65726 -158.75116,599.30142 -159.04388,600.86517 -159.3366,602.42892 -159.85142,603.70835 -160.18793,603.70835 -160.52442,603.70835 -161.41498,606.09663 -162.16693,609.01563 -162.91888,611.93463 -163.77526,614.3229 -164.06999,614.3229 -164.36473,614.3229 -165.02582,616.1994 -165.53908,618.4929 -166.05234,620.7864 -166.70468,622.66291 -166.98872,622.66291 -167.27277,622.66291 -167.95533,624.53941 -168.50553,626.83291 -169.05574,629.12641 -169.76106,631.00291 -170.07292,631.00291 -170.38479,631.00291 -171.07716,632.70882 -171.61153,634.79382 -172.1459,636.87882 -172.8055,638.58473 -173.07731,638.58473 -173.34912,638.58473 -173.99145,640.46123 -174.50472,642.75473 -175.01798,645.04823 -175.70034,646.92473 -176.02108,646.92473 -176.34182,646.92473 -177.02418,648.80123 -177.53745,651.09474 -178.05071,653.38824 -178.73287,655.26474 -179.05336,655.26474 -179.37386,655.26474 -180.08624,657.14124 -180.63645,659.43474 -181.18665,661.72824 -181.85774,663.60474 -182.12775,663.60474 -182.39777,663.60474 -183.25917,666.07831 -184.04199,669.10156 -184.82481,672.12481 -185.88299,675.0181 -186.39351,675.53108 -186.90403,676.04407 -187.55343,677.83527 -187.83664,679.51154 -188.11984,681.1878 -188.60826,682.55929 -188.922,682.55929 -189.23575,682.55929 -189.94261,684.4358 -190.49282,686.7293 -191.04302,689.0228 -191.74191,690.8993 -192.04589,690.8993 -192.34988,690.8993 -192.83241,692.17873 -193.11817,693.74248 -193.40392,695.30623 -194.11137,697.32165 -194.69026,698.22119 -195.26917,699.12073 -196.13738,701.42371 -196.61964,703.33892 -197.1019,705.25413 -197.74286,706.82112 -198.044,706.82112 -198.34513,706.82112 -199.02808,708.78292 -199.56166,711.18067 -200.09523,713.57842 -200.91718,715.79088 -201.38822,716.09725 -201.85925,716.40361 -208.38591,716.65427 -215.89192,716.65427 -223.39792,716.65427 -229.93037,716.40361 -230.40846,716.09725 -230.88655,715.79088 -231.68757,714.0049 -232.1885,712.1284 -232.68943,710.2519 -233.38185,708.37086 -233.72722,707.94831 -234.07259,707.52577 -234.7621,705.56397 -235.25946,703.58877 -235.75683,701.61356 -236.40995,699.99748 -236.71084,699.99748 -237.01173,699.99748 -237.70809,698.12098 -238.25829,695.82748 -238.8085,693.53398 -239.47703,691.65748 -239.74392,691.65748 -240.01081,691.65748 -240.86638,689.09862 -241.64519,685.97111 -242.42399,682.84361 -243.28359,680.28475 -243.55541,680.28475 -243.82724,680.28475 -244.51417,678.57884 -245.08193,676.49384 -245.6497,674.40884 -246.33944,672.70293 -246.6147,672.70293 -246.88997,672.70293 -247.53512,670.82643 -248.04839,668.53292 -248.56165,666.23942 -249.24401,664.36292 -249.56475,664.36292 -249.88548,664.36292 -250.58193,662.4235 -251.1124,660.0531 -251.64287,657.6827 -252.51899,655.30118 -253.05933,654.76085 -253.59966,654.22052 -254.27346,652.40694 -254.55667,650.73067 -254.83987,649.05441 -255.32828,647.68292 -255.64203,647.68292 -255.95578,647.68292 -256.66264,645.80642 -257.21284,643.51291 -257.76305,641.21941 -258.43823,639.34291 -258.71324,639.34291 -258.98826,639.34291 -259.67781,637.637 -260.24557,635.552 -260.81334,633.467 -261.48905,631.76109 -261.74717,631.76109 -262.00528,631.76109 -262.85367,629.20223 -263.63247,626.07472 -264.41127,622.94722 -265.26805,620.38836 -265.53642,620.38836 -265.80479,620.38836 -266.46157,618.68245 -266.99594,616.59745 -267.53031,614.51245 -268.23056,612.80654 -268.55204,612.80654 -268.87353,612.80654 -269.57098,610.75945 -270.10194,608.25744 -270.6329,605.75544 -271.32138,603.70835 -271.6319,603.70835 -271.94241,603.70835 -272.59105,602.14136 -273.0733,600.22615 -273.55556,598.31094 -274.42378,596.00796 -275.00268,595.10842 -275.58158,594.20888 -276.28902,592.19346 -276.57478,590.62971 -276.86054,589.06596 -277.34306,587.78653 -277.64705,587.78653 -277.95104,587.78653 -278.64992,585.91003 -279.20013,583.61653 -279.75033,581.32302 -280.4572,579.44652 -280.77094,579.44652 -281.08469,579.44652 -281.5731,578.07503 -281.8563,576.39877 -282.13951,574.7225 -282.78892,572.9313 -283.29944,572.41831 -283.80996,571.90533 -284.86814,569.01204 -285.65095,565.98879 -286.43377,562.96554 -287.30702,560.49197 -287.59151,560.49197 -287.876,560.49197 -288.31347,559.46843 -288.56367,558.21744 -288.81387,556.96645 -289.67853,554.49288 -290.48515,552.72062 -291.29176,550.94836 -292.19122,548.2189 -292.48394,546.65515 -292.77666,545.09139 -293.29491,543.81196 -293.63559,543.81196 -293.97628,543.81196 -294.67496,541.93546 -295.18823,539.64196 -295.70149,537.34846 -296.34665,535.47196 -296.62191,535.47196 -296.89717,535.47196 -297.58692,533.76605 -298.15468,531.68105 -298.72244,529.59605 -299.44147,527.89014 -299.75251,527.89014 -300.06355,527.89014 -300.47407,527.29307 -300.66477,526.56332 -300.85548,525.83357 -301.05109,568.31072 -301.09946,620.957 L -301.18741,716.67749 -315.59287,716.67749 -329.99833,716.67749 -329.99833,606.35191 z"
       id="path2996"
       inkscape:connector-curvature="0" />
    <path
       style="fill:#000000;fill-opacity:1;stroke:none"
       d="M -11.778057,719.61552 C -15.483184,719.25915 -18.929424,718.62334 -19.43637,718.20261 -19.943315,717.78189 -21.969782,717.21675 -23.93963,716.94675 -25.909477,716.67676 -27.922147,716.05961 -28.412232,715.57532 -28.902315,715.09103 -30.923907,714.2436 -32.904658,713.69215 -34.885409,713.1407 -36.506023,712.44743 -36.506023,712.15156 -36.506023,711.8557 -37.371803,711.21914 -38.429979,710.737 -40.507536,709.79041 -40.854114,709.53807 -44.82545,706.0807 -46.273634,704.81993 -47.894249,703.78839 -48.426816,703.78839 -48.959383,703.78839 -49.39512,703.48938 -49.39512,703.12392 -49.39512,702.75846 -50.678585,701.09667 -52.247264,699.43105 -53.815943,697.76543 -55.606592,695.42028 -56.226483,694.21961 -56.846374,693.01894 -57.753931,691.77865 -58.243273,691.46342 -58.732616,691.14819 -59.35735,689.86875 -59.63157,688.62023 -59.905791,687.37172 -60.43053,686.35021 -60.797659,686.35021 -61.164787,686.35021 -61.888727,684.90018 -62.406415,683.12793 -62.924103,681.35568 -63.616218,679.71737 -63.944451,679.48724 -64.272683,679.25711 -65.134283,676.18647 -65.859118,672.6636 -66.583953,669.14073 -67.430846,666.07384 -67.741101,665.84829 -68.051356,665.62273 -68.695768,659.68056 -69.173128,652.64346 -70.084281,639.21149 -69.082813,616.49975 -67.55583,615.96563 -67.158443,615.82663 -66.833309,615.04459 -66.833309,614.22776 -66.833309,611.86057 -64.475761,601.09677 -63.865446,600.67745 -63.560518,600.46794 -62.160529,597.90826 -60.75436,594.98926 -59.348191,592.07026 -57.77478,589.25348 -57.257891,588.72977 -56.741003,588.20605 -56.102161,587.09721 -55.838243,586.26567 -55.574325,585.43414 -55.029494,584.7538 -54.627507,584.7538 -54.22552,584.7538 -53.67208,584.15673 -53.397639,583.42698 -52.892972,582.08504 -46.668292,575.65561 -45.873759,575.65561 -45.637022,575.65561 -44.200095,574.67762 -42.680586,573.4823 -41.161077,572.28697 -39.150183,571.06984 -38.211933,570.77757 -37.273683,570.48529 -36.506023,569.98257 -36.506023,569.66042 -36.506023,569.33826 -35.141295,568.62428 -33.473295,568.07379 -31.805294,567.5233 -30.440566,566.83295 -30.440566,566.53967 -30.440566,566.2464 -28.393474,565.57202 -25.891473,565.04106 -23.389472,564.5101 -21.34238,563.82929 -21.34238,563.52815 -21.34238,562.63323 -6.7888861,561.25015 2.6278536,561.25015 11.66473,561.25015 25.755227,562.57121 26.423095,563.48108 26.631595,563.76513 28.763982,564.42739 31.161733,564.95276 33.559484,565.47814 35.52128,566.15022 35.52128,566.44628 35.52128,566.74234 37.056599,567.43789 38.9331,567.99195 40.809601,568.54602 42.34492,569.26148 42.34492,569.58186 42.34492,569.90224 43.453761,570.61221 44.809012,571.15956 46.164262,571.70691 47.545943,572.60126 47.879414,573.147 48.212885,573.69274 48.863952,574.13925 49.32623,574.13925 50.264147,574.13925 60.541291,584.23999 60.541291,585.16181 60.541291,585.48418 61.345154,586.80369 62.327651,588.09405 63.310157,589.38441 64.356691,591.20782 64.653292,592.14607 64.949893,593.08432 65.456146,593.85198 65.778305,593.85198 66.100457,593.85198 66.814437,595.21671 67.36493,596.88471 67.915424,598.55271 68.598098,599.91744 68.882,599.91744 69.165901,599.91744 69.834739,601.87924 70.368317,604.27699 70.901888,606.67474 71.641404,608.82903 72.011677,609.06429 72.38195,609.29956 73.092306,613.13786 73.59025,617.59384 74.088194,622.04983 74.767699,625.69563 75.100268,625.69563 75.940728,625.69563 75.863614,654.22268 75.018771,655.84366 74.641386,656.56776 73.920469,660.40142 73.41674,664.36292 72.913004,668.32442 72.247449,671.73624 71.937716,671.94474 71.627984,672.15324 71.129524,673.68856 70.830027,675.35656 70.53053,677.02456 69.830812,679.09632 69.275102,679.96047 68.719385,680.82462 67.837664,682.95701 67.315724,684.69911 66.793776,686.44121 66.120943,687.86657 65.820536,687.86657 65.520137,687.86657 64.850381,688.89012 64.332202,690.14112 63.814022,691.39212 63.173548,692.41566 62.908935,692.41566 62.644321,692.41566 61.946149,693.50382 61.357444,694.8338 59.772403,698.41466 49.311757,708.30341 47.083558,708.32732 46.562308,708.33291 46.13583,708.69642 46.13583,709.13511 46.13583,709.5738 45.112284,710.28954 43.861284,710.72564 42.610283,711.16175 41.586737,711.7887 41.586737,712.11888 41.586737,712.44906 40.051419,713.17254 38.174918,713.7266 36.298417,714.28066 34.763098,714.97649 34.763098,715.2729 34.763098,715.56929 32.801302,716.18876 30.403551,716.64948 28.0058,717.11022 25.465435,717.80811 24.758293,718.20036 21.367642,720.08116 1.1890173,720.86274 -11.778057,719.61552 z M 6.7103589,707.57931 C 6.7103589,707.16231 7.6829929,706.82112 8.8717694,706.82112 11.528424,706.82112 15.840783,705.37353 17.18952,704.02899 17.740552,703.47966 18.471129,703.03021 18.813016,703.03021 20.387836,703.03021 27.986989,694.3284 28.80945,691.58327 29.296969,689.95608 29.969325,688.62475 30.303585,688.62475 30.637837,688.62475 31.334879,687.17473 31.852566,685.40248 32.370253,683.63023 33.030614,682.00961 33.320035,681.80111 33.609456,681.59261 34.293313,678.69257 34.83972,675.35656 35.386127,672.02056 36.189481,669.04766 36.624958,668.75012 37.731927,667.99379 37.721161,613.71454 36.613889,612.96843 36.172324,612.67089 35.398478,609.7143 34.894226,606.39823 34.389974,603.08216 33.694941,600.18212 33.349718,599.95368 33.004487,599.72525 32.476201,598.5148 32.175749,597.2638 31.471776,594.33272 28.006839,587.049 26.473385,585.27676 23.792225,582.17808 20.860813,579.56859 18.961506,578.58982 17.852877,578.01851 16.495132,577.12475 15.94429,576.6037 15.393455,576.08264 13.594683,575.44076 11.947032,575.17729 10.299381,574.91382 8.7681335,574.40189 8.544265,574.03966 8.0007015,573.16016 -1.2992274,573.19424 -2.9667512,574.08184 -3.6908432,574.46726 -5.9038965,575.19397 -7.8846473,575.69674 -9.8653982,576.19951 -11.486012,576.9077 -11.486012,577.27051 -11.486012,577.63332 -11.91249,577.93799 -12.43374,577.94756 -13.619507,577.96934 -21.34238,585.75028 -21.34238,586.9232 -21.34238,587.39803 -21.612286,587.78653 -21.942171,587.78653 -22.804065,587.78653 -26.404698,595.26749 -27.051015,598.40108 -27.352044,599.86058 -27.870592,601.22933 -28.203343,601.44275 -29.031498,601.97391 -31.198748,616.95382 -31.198748,622.14683 -31.198748,624.46645 -31.53993,626.57519 -31.95693,626.83291 -32.888731,627.40879 -33.00009,654.24094 -32.073057,654.81388 -31.719926,655.03212 -31.222303,658.37878 -30.967227,662.2509 -30.426642,670.45712 -28.852327,680.28475 -28.078334,680.28475 -27.782868,680.28475 -27.309411,681.65624 -27.026208,683.3325 -26.743005,685.00877 -26.101539,686.79997 -25.600729,687.31296 -25.099917,687.82595 -24.212834,689.4398 -23.629431,690.8993 -23.046029,692.3588 -22.122187,693.82578 -21.576449,694.15925 -21.030711,694.49272 -20.584198,695.13468 -20.584198,695.58583 -20.584198,696.82919 -14.37494,702.74932 -12.43374,703.35676 -11.49549,703.65036 -10.72783,704.1843 -10.72783,704.54329 -10.72783,704.90229 -8.7660341,705.59081 -6.368283,706.07333 -3.970532,706.55585 -1.4969628,707.24262 -0.87146251,707.59948 0.7271941,708.51154 6.7103589,708.49562 6.7103589,707.57931 z"
       id="path3766"
       inkscape:connector-curvature="0" />
    <path
       style="fill:#000000;fill-opacity:1;stroke:none"
       d="M 103.75767,640.48019 103.75767,564.28288 120.43768,564.28288 137.11769,564.28288 137.11769,582.10016 C 137.11769,598.92393 137.19582,599.91744 138.5189,599.91744 139.43914,599.91744 140.40765,598.81138 141.34044,596.69517 142.12161,594.92292 143.19697,593.20005 143.73013,592.86658 144.26329,592.53311 144.69951,591.91328 144.69951,591.48918 144.69951,591.06507 145.55246,589.5998 146.59496,588.23301 147.63746,586.86622 148.49042,585.52426 148.49042,585.25087 148.49042,583.74063 163.42918,570.34834 165.11381,570.34834 165.49245,570.34834 165.91597,570.06942 166.05497,569.72853 166.4169,568.84091 176.03895,564.28288 177.5508,564.28288 178.2476,564.28288 178.81771,563.98317 178.81771,563.61686 178.81771,562.63832 189.27814,561.25015 196.65189,561.25015 203.36102,561.25015 213.69408,562.68718 213.69408,563.62023 213.69408,563.92001 214.92771,564.57242 216.43548,565.07003 217.94325,565.56764 219.79176,566.53235 220.54328,567.21383 226.87098,572.95181 230.13593,576.32087 230.92845,577.93016 231.44185,578.97266 232.18236,580.33739 232.57403,580.96289 234.85745,584.60951 236.41333,588.97849 236.87186,593.03137 237.15881,595.56771 237.69071,597.64289 238.05385,597.64289 238.42312,597.64289 238.71409,623.87271 238.71409,657.16019 L 238.71409,716.67749 221.31173,716.67749 203.90936,716.67749 203.68399,660.00338 C 203.51256,616.89252 203.23598,602.96636 202.52833,601.8129 202.01666,600.9789 201.23585,598.84651 200.79319,597.07426 200.35053,595.30201 199.66033,593.85198 199.2594,593.85198 198.85848,593.85198 198.53044,593.37912 198.53044,592.80118 198.53044,591.08496 193.06642,586.29851 190.19731,585.50141 184.76281,583.99158 169.71952,585.18455 169.71952,587.12535 169.71952,587.42273 168.67292,587.89592 167.39374,588.17687 166.11457,588.45782 164.88393,589.1673 164.65899,589.75348 164.43405,590.33965 163.86004,590.82709 163.3834,590.83666 162.25466,590.85932 154.55588,598.68728 154.55588,599.81229 154.55588,600.28712 154.21368,600.67562 153.79544,600.67562 153.3772,600.67562 152.44376,602.04035 151.72113,603.70835 150.9985,605.37635 150.17302,606.74108 149.88673,606.74108 149.60044,606.74108 148.94706,608.01109 148.43478,609.56331 147.9225,611.11554 147.08419,612.80471 146.57188,613.31702 146.05957,613.82933 145.39739,615.54389 145.10037,617.12715 144.80335,618.7104 144.28123,620.17829 143.9401,620.38912 143.59897,620.59995 142.87396,622.98901 142.32897,625.69813 141.78399,628.40726 141.12767,630.79441 140.87049,631.00291 140.14158,631.59385 138.63201,643.74301 138.63308,649.00973 138.63363,651.66402 138.30055,653.74837 137.87587,653.74837 137.38259,653.74837 137.11769,664.74201 137.11769,685.21293 L 137.11769,716.67749 120.43768,716.67749 103.75767,716.67749 103.75767,640.48019 z"
       id="path3768"
       inkscape:connector-curvature="0" />
    <path
       style="fill:#000000;fill-opacity:1;stroke:none"
       d="M 324.70811,719.68479 C 320.80459,719.30709 317.22218,718.69102 316.7472,718.31573 316.27222,717.94045 314.56273,717.39508 312.94834,717.10381 308.33639,716.27173 302.02647,712.66697 297.89024,708.50135 294.50744,705.09454 293.65724,703.90418 292.6836,701.21163 292.14055,699.70985 291.45862,698.48112 291.1682,698.48112 289.40333,698.48112 288.96813,685.9081 288.96813,634.92126 L 288.96813,580.96289 275.32085,580.96289 261.67357,580.96289 261.67357,572.62288 261.67357,564.28288 275.32085,564.28288 288.96813,564.28288 288.96813,546.04707 288.96813,527.81126 291.24268,527.01835 C 292.49368,526.58224 293.51722,525.95902 293.51722,525.6334 293.51722,525.30779 294.62606,524.59288 295.98131,524.04471 297.33656,523.49654 298.616,522.83871 298.8245,522.58286 299.033,522.32701 300.31243,521.66918 301.66768,521.12102 303.02293,520.57285 304.13177,519.85102 304.13177,519.51695 304.13177,519.18288 305.32591,518.51545 306.78541,518.03377 308.24491,517.55209 309.43905,516.90695 309.43905,516.60012 309.43905,516.29329 310.63318,515.5737 312.09268,515.00104 313.55219,514.42838 314.74632,513.68233 314.74632,513.34317 314.74632,513.004 315.21048,512.72649 315.77779,512.72649 316.3451,512.72649 318.06616,511.87354 319.60237,510.83104 321.13858,509.78854 322.55092,508.93558 322.7409,508.93558 322.93089,508.93558 323.08633,521.38873 323.08633,536.60923 L 323.08633,564.28288 345.83179,564.28288 368.57725,564.28288 368.57725,572.62288 368.57725,580.96289 345.83179,580.96289 323.08633,580.96289 323.08633,632.89836 C 323.08633,661.46288 323.35925,684.83384 323.69281,684.83384 324.02638,684.83384 324.72212,686.88093 325.2389,689.38293 325.75568,691.88493 326.51475,693.93203 326.92573,693.93203 327.3367,693.93203 327.99724,694.78498 328.3936,695.82748 328.78996,696.86998 329.59797,697.72294 330.18917,697.72294 330.78038,697.72294 331.44814,698.20254 331.67307,698.78871 331.89801,699.37489 333.21395,700.10013 334.59737,700.40034 335.9808,700.70055 337.35619,701.32978 337.65379,701.79864 338.3805,702.94354 358.87048,702.94542 360.32493,701.80073 360.90221,701.3464 362.14218,700.78675 363.08043,700.55706 364.77951,700.14112 364.78634,700.1767 364.78634,709.44013 L 364.78634,718.74082 360.80589,719.23965 C 353.7507,720.1238 332.01547,720.39183 324.70811,719.68479 z"
       id="path3770"
       inkscape:connector-curvature="0" />
    <path
       style="fill:#000000;fill-opacity:1;stroke:none"
       d="M 391.49166,640.48019 391.49166,564.28288 408.55076,564.28288 425.60986,564.28288 425.60986,583.61653 C 425.60986,600.29653 425.76595,602.95017 426.74713,602.95017 427.37263,602.95017 427.8844,602.4906 427.8844,601.92891 427.8844,601.36721 428.57606,600.11016 429.42141,599.13545 430.26677,598.16075 431.15671,596.57323 431.39906,595.60762 431.64141,594.64202 432.0807,593.85198 432.37526,593.85198 432.66982,593.85198 433.48854,592.6405 434.19464,591.1598 435.47449,588.47593 436.17441,587.46973 438.6885,584.69945 439.41825,583.89534 440.01532,582.98044 440.01532,582.66634 440.01532,582.35223 441.03886,581.12917 442.28986,579.94843 443.54086,578.76769 444.56441,577.34176 444.56441,576.77971 444.56441,576.21766 445.26418,575.5357 446.11946,575.26424 446.97474,574.99279 448.66193,573.86096 449.86879,572.74906 452.87921,569.97549 453.69292,569.38545 456.31623,568.07379 457.56723,567.44829 459.00052,566.55115 459.5013,566.08015 460.00209,565.60914 461.70722,564.98076 463.29048,564.68374 464.87373,564.38672 466.34832,563.85376 466.56733,563.49939 466.97119,562.84593 475.36754,561.26637 478.49306,561.25588 L 480.19897,561.25015 480.19897,577.46371 480.19897,593.67726 476.21851,594.11774 C 474.02926,594.36 469.5939,594.78057 466.36215,595.05236 463.13039,595.32414 460.48623,595.78501 460.48623,596.07651 460.48623,596.36802 458.26855,597.04733 455.55805,597.58609 452.84755,598.12485 450.62987,598.80127 450.62987,599.08924 450.62987,599.37721 449.43573,600.04463 447.97623,600.57239 446.51673,601.10015 445.32259,601.82806 445.32259,602.18997 445.32259,602.55188 444.67149,603.05464 443.87571,603.30721 443.07992,603.55978 441.28871,604.77146 439.89525,605.99983 438.50179,607.2282 437.10579,608.23867 436.79304,608.24533 436.48029,608.25199 436.22441,608.70488 436.22441,609.25175 436.22441,609.79862 435.52163,611.00041 434.66268,611.92238 433.80373,612.84435 432.71786,614.69989 432.24963,616.0458 431.7814,617.39171 430.96916,618.92346 430.44464,619.44969 429.92011,619.97592 429.25272,622.02301 428.96154,623.99878 428.67036,625.97455 428.16548,627.76501 427.83959,627.97758 426.42472,628.90047 425.61486,648.2658 425.61245,681.23248 L 425.60986,716.67749 408.55076,716.67749 391.49166,716.67749 391.49166,640.48019 z"
       id="path3772"
       inkscape:connector-curvature="0" />
    <path
       style="fill:#000000;fill-opacity:1;stroke:none"
       d="M 561.06758,719.64107 C 556.96479,719.30275 553.20542,718.69186 552.71343,718.28354 552.22144,717.87523 549.52229,717.14121 546.71531,716.6524 543.90834,716.16359 541.61172,715.53198 541.61172,715.24882 541.61172,714.96566 540.0764,714.28066 538.1999,713.7266 536.3234,713.17254 534.78808,712.47029 534.78808,712.16606 534.78808,711.86184 533.42336,711.16253 531.75536,710.61203 530.08735,710.06154 528.72263,709.36596 528.72263,709.0663 528.72263,708.76663 527.69908,708.09748 526.44808,707.57931 525.19708,707.06113 524.17353,706.39502 524.17353,706.09908 524.17353,705.80313 523.25709,705.07686 522.13698,704.48515 519.74427,703.22115 510.52626,694.28307 510.52626,693.22701 510.52626,692.82806 509.90446,692.05582 509.14448,691.51092 508.3845,690.96603 507.27767,689.41137 506.68485,688.05612 506.09203,686.70086 505.3491,685.59202 505.0339,685.59202 504.71869,685.59202 504.4608,685.2317 504.4608,684.79131 504.4608,684.35092 503.4721,681.99787 502.26368,679.56229 501.05526,677.12671 499.83402,674.07521 499.5498,672.78118 499.26558,671.48714 498.77369,670.42838 498.45671,670.42838 498.13973,670.42838 497.42955,667.95481 496.87853,664.93156 496.3275,661.90831 495.59382,659.06271 495.24813,658.608 494.90243,658.1533 494.21765,652.57739 493.7264,646.21711 493.03572,637.27471 493.04045,631.88185 493.74725,622.43011 494.24996,615.70754 494.9325,610.02444 495.264,609.80099 495.59551,609.57754 496.27025,607.34763 496.76343,604.84563 497.2566,602.34362 497.99613,600.1828 498.40682,600.04381 498.81751,599.9048 499.15352,599.30361 499.15352,598.70781 499.15352,597.10381 504.5044,586.27016 505.29663,586.27016 505.67092,586.27016 505.97716,585.78731 505.97716,585.19716 505.97716,584.607 507.00071,583.15809 508.25171,581.97735 509.50271,580.7966 510.52626,579.40295 510.52626,578.88035 510.52626,578.35774 510.95273,577.92068 511.47398,577.9091 511.99523,577.89751 513.41682,576.87397 514.63308,575.63455 515.84933,574.39513 517.26285,573.38107 517.77423,573.38107 518.28562,573.38107 518.88806,572.90147 519.113,572.31529 519.33794,571.72911 520.56858,571.01964 521.84776,570.73868 523.12693,570.45773 524.17353,569.94024 524.17353,569.58871 524.17353,569.23718 525.36767,568.55547 526.82717,568.07379 528.28667,567.59211 529.48081,566.92991 529.48081,566.60223 529.48081,566.27455 531.6132,565.56757 534.21945,565.03117 536.8257,564.49477 539.32112,563.77667 539.76482,563.43538 541.07862,562.42486 553.46733,561.26207 562.84082,561.26951 572.57147,561.27723 585.66396,562.46118 586.30553,563.39142 586.53545,563.72478 588.68536,564.42739 591.08311,564.95276 593.48086,565.47814 595.44266,566.1701 595.44266,566.49045 595.44266,566.8108 596.80738,567.5233 598.47538,568.07379 600.14338,568.62428 601.50811,569.27797 601.50811,569.52643 601.50811,569.77489 602.61695,570.46776 603.9722,571.06615 605.32745,571.66454 607.05813,572.94196 607.81814,573.90487 608.57816,574.86778 609.687,575.65561 610.28224,575.65561 610.87747,575.65561 611.36448,576.08445 611.36448,576.60859 611.36448,577.13273 612.48479,578.58976 613.85407,579.84643 615.22335,581.10311 616.80005,583.23313 617.35787,584.57982 617.91569,585.92651 618.63137,587.02834 618.94828,587.02834 619.26519,587.02834 619.91107,588.56366 620.38357,590.44016 620.85609,592.31667 621.54797,593.85198 621.92109,593.85198 622.29421,593.85198 623.03327,596.32555 623.56344,599.3488 624.09361,602.37206 624.78359,605.02191 625.09674,605.23737 625.40989,605.45283 625.90861,609.46172 626.20502,614.14601 L 626.74394,622.66291 576.9751,622.66291 527.20626,622.66291 527.20626,627.60138 C 527.20626,630.31754 527.52146,633.13229 527.9067,633.85638 528.29194,634.58047 529.01275,638.67003 529.5085,642.94428 530.00425,647.21853 530.66598,650.71564 530.97901,650.71564 531.29204,650.71564 531.98258,652.76274 532.51354,655.26474 533.0445,657.76674 533.70272,659.81383 533.97625,659.81383 534.24978,659.81383 534.88422,661.34915 535.38611,663.22565 535.88799,665.10215 536.64112,666.63747 537.05972,666.63747 537.47832,666.63747 537.82081,667.13767 537.82081,667.74902 537.82081,668.82134 540.07845,674.20238 540.85354,674.97747 541.06204,675.18597 541.7444,676.25095 542.36991,677.34409 545.09654,682.10922 552.91409,690.53414 555.31662,691.29668 556.11893,691.55132 556.77537,692.0863 556.77537,692.48552 556.77537,692.88474 557.62832,693.53567 558.67082,693.93203 559.71332,694.32838 560.56628,694.93103 560.56628,695.27123 560.56628,696.13169 568.1398,699.8821 571.05461,700.46506 572.37503,700.72914 573.45537,701.18471 573.45537,701.47744 573.45537,702.43017 585.01664,703.79854 593.02288,703.79341 600.95879,703.78832 611.12183,702.60179 612.50175,701.51925 612.91875,701.19212 615.22173,700.49101 617.61948,699.96124 620.01723,699.43146 621.97903,698.71111 621.97903,698.36047 621.97903,698.00983 622.32021,697.72294 622.73721,697.72294 623.5495,697.72294 623.81771,709.64808 623.05039,711.64767 622.79434,712.31493 620.78228,713.20667 618.31176,713.74781 615.95025,714.26508 613.83436,714.95398 613.60978,715.27872 613.38519,715.60347 610.65574,716.29429 607.54432,716.8139 604.43291,717.33351 601.71633,717.99503 601.50749,718.28394 600.95076,719.05414 582.77746,720.48554 575.11998,720.36231 571.49395,720.30396 565.17036,719.9794 561.06758,719.64107 z M 593.16811,605.97261 C 593.16811,604.29895 592.85151,602.33716 592.46456,601.61306 592.07761,600.88897 591.34862,598.16414 590.84459,595.55789 590.34057,592.95164 589.67061,590.81926 589.35579,590.81926 589.04097,590.81926 588.54862,589.8838 588.26165,588.74045 587.9747,587.59711 587.25856,586.14709 586.67025,585.51818 586.08193,584.88927 584.48852,583.14283 583.12934,581.6372 581.77016,580.13157 579.82106,578.63654 578.79801,578.3149 577.77496,577.99326 576.49145,577.28364 575.94577,576.73796 575.40009,576.19227 573.41818,575.51556 571.54154,575.23413 569.66489,574.95271 567.94292,574.42065 567.71494,574.05176 567.16302,573.15874 557.11164,573.18919 555.43826,574.08896 554.71417,574.47829 552.4742,575.17235 550.46056,575.6313 546.90096,576.4426 546.13512,576.85779 543.07374,579.63607 542.26963,580.36582 541.27841,580.96289 540.87102,580.96289 540.46363,580.96289 539.52538,581.89551 538.78602,583.03537 538.04666,584.17524 536.92995,585.68611 536.30445,586.39285 533.79037,589.23347 533.35146,590.00127 532.41982,593.18827 531.88647,595.01282 531.21054,596.67621 530.91777,596.88471 530.35662,597.28434 528.72263,605.2891 528.72263,607.63851 528.72263,608.94761 530.31415,609.01563 560.94537,609.01563 L 593.16811,609.01563 593.16811,605.97261 z"
       id="path3774"
       inkscape:connector-curvature="0" />
    <path
       style="fill:#000000;fill-opacity:1;stroke:none"
       d="M 545.10322,536.40808 C 545.56404,536.10171 546.35816,534.57162 546.86793,533.00787 547.37769,531.44412 548.07245,530.16468 548.41184,530.16468 548.75122,530.16468 549.60868,528.71566 550.31731,526.94463 551.02594,525.17359 551.83323,523.55298 552.1113,523.34326 552.38936,523.13354 553.80842,520.57368 555.26475,517.65468 556.72109,514.73568 558.11056,512.17681 558.35247,511.96831 558.59438,511.75981 559.27473,510.48038 559.86437,509.12513 560.45401,507.76988 561.16787,506.66104 561.45074,506.66104 561.73361,506.66104 562.35914,505.4669 562.84082,504.0074 563.3225,502.5479 564.00924,501.35376 564.36691,501.35376 564.72458,501.35376 565.44902,500.15963 565.97679,498.70013 L 566.93635,496.04649 585.2963,496.04649 603.65624,496.04649 601.08329,498.88967 C 599.66816,500.45342 597.82011,502.45112 596.97649,503.32901 596.13288,504.20689 595.43676,505.23044 595.42956,505.60356 595.42235,505.97667 594.5694,507.08542 593.5341,508.06744 592.49881,509.04945 591.65174,510.13127 591.65174,510.47147 591.65174,511.01212 590.00403,512.89589 584.01902,519.19771 583.21301,520.04637 582.54766,521.06992 582.54046,521.47225 582.53326,521.87459 581.6803,523.00724 580.645,523.98926 579.60971,524.97128 578.76265,526.05083 578.76265,526.38826 578.76265,526.7257 577.65381,528.21833 576.29856,529.70522 574.94331,531.19211 572.98151,533.41682 571.93901,534.64901 L 570.04355,536.88936 557.15446,536.92723 C 550.06545,536.94806 544.6424,536.71444 545.10322,536.40808 z"
       id="path3776"
       inkscape:connector-curvature="0" />
    <path
       style="fill:#000000;fill-opacity:1;stroke:none"
       d="M 681.51677,719.62391 C 679.02601,719.26113 675.95537,718.48577 674.69313,717.90088 673.43089,717.31599 671.2893,716.60375 669.93405,716.31813 668.5788,716.03251 667.46996,715.52615 667.46996,715.19287 667.46996,714.85959 666.47093,714.1731 665.24989,713.66733 664.02885,713.16156 662.84543,712.26721 662.62005,711.67989 662.39467,711.09257 661.81349,710.61203 661.32854,710.61203 660.21455,710.61203 654.24671,704.61276 653.59788,702.84067 653.3307,702.11092 652.78666,701.51385 652.38891,701.51385 651.99116,701.51385 651.24865,700.23442 650.73888,698.67067 650.22911,697.10691 649.48207,695.61314 649.07879,695.35116 647.97487,694.63404 647.0691,688.94513 647.03206,682.4962 646.99818,676.5962 648.30779,668.15383 649.2569,668.15383 649.54959,668.15383 650.23946,666.78911 650.78995,665.12111 651.34044,663.4531 652.07741,662.08838 652.42767,662.08838 652.77793,662.08838 653.0645,661.63813 653.0645,661.08783 653.0645,660.53753 653.91745,659.34565 654.95995,658.43921 656.00245,657.53276 656.85541,656.44769 656.85541,656.02793 656.85541,655.60818 657.16957,655.26474 657.55354,655.26474 657.93751,655.26474 659.61198,653.98531 661.27458,652.42155 662.93719,650.8578 664.75542,649.22037 665.31509,648.78283 667.2355,647.28146 676.26086,643.15737 678.68879,642.67179 680.02443,642.40466 681.11724,641.94185 681.11724,641.64334 681.11724,641.34482 682.98792,640.68194 685.27431,640.17026 687.5607,639.65859 689.60591,638.95755 689.81923,638.6124 690.03255,638.26725 693.1943,637.54814 696.84535,637.01439 700.49639,636.48065 703.6542,635.80639 703.8627,635.51605 704.36833,634.81196 722.04845,633.27746 729.65522,633.27746 733.18385,633.27746 735.70635,632.9614 735.70635,632.51927 735.70635,632.10227 736.42736,631.76109 737.30859,631.76109 738.90373,631.76109 738.90955,631.67871 738.62362,613.15069 738.43395,600.85968 738.056,594.35907 737.51056,594.00659 737.05633,593.71306 736.25995,591.68169 735.74081,589.49244 735.22168,587.30319 734.52315,585.51198 734.18853,585.51198 733.85392,585.51198 733.24777,584.57373 732.84154,583.42698 731.64118,580.03846 727.65628,576.48552 723.94193,575.49208 722.07236,574.99205 720.54271,574.31251 720.54271,573.982 720.54271,573.15333 710.11731,573.21982 709.60314,574.05176 709.37515,574.42065 707.62923,574.95631 705.72332,575.24212 703.81626,575.5281 702.07093,576.2493 701.84197,576.84596 701.61314,577.44227 701.03595,577.93379 700.55931,577.93823 699.48632,577.94823 694.76452,582.72916 694.76452,583.80559 694.76452,584.23788 694.29582,584.77142 693.72298,584.99124 693.15013,585.21106 692.43645,586.69681 692.13702,588.29289 691.8376,589.88898 691.29076,591.38142 690.92184,591.60943 690.55291,591.83744 689.83283,595.33534 689.32166,599.38254 L 688.39225,606.74108 670.72838,606.74108 653.0645,606.74108 653.0645,603.58091 C 653.0645,599.40616 654.58104,590.81926 655.31834,590.81926 655.63834,590.81926 656.33002,589.28394 656.85541,587.40744 657.3808,585.53093 658.11595,583.99562 658.48907,583.99562 658.8622,583.99562 659.49178,583.14266 659.88814,582.10016 660.2845,581.05766 660.91702,580.20471 661.29375,580.20471 661.67048,580.20471 662.40935,579.16507 662.93568,577.8944 663.462,576.62374 664.95342,575.0422 666.24993,574.37987 667.54645,573.71754 668.88007,572.71008 669.21354,572.14107 669.54701,571.57207 670.26247,571.10652 670.80344,571.10652 671.34442,571.10652 672.58452,570.41487 673.55922,569.56951 674.53392,568.72415 676.20674,567.81867 677.2766,567.55731 678.34645,567.29596 679.41134,566.79537 679.64302,566.4449 679.8747,566.09442 682.09238,565.40742 684.5712,564.91824 687.05002,564.42906 689.24874,563.77843 689.45724,563.47239 690.07414,562.56689 705.66881,561.25015 715.77609,561.25015 725.61337,561.25015 739.59144,562.50177 740.24905,563.44149 740.46107,563.74446 742.59633,564.45339 744.99408,565.01689 747.39183,565.58039 749.35363,566.25958 749.35363,566.52621 749.35363,566.79284 750.54777,567.44279 752.00727,567.97056 753.46677,568.49832 754.6609,569.22623 754.6609,569.58814 754.6609,569.95005 755.312,570.4528 756.10779,570.70538 756.90358,570.95795 758.69478,572.16963 760.08825,573.398 761.48171,574.62636 762.8777,575.63684 763.19045,575.6435 763.5032,575.65016 763.75951,576.08209 763.76002,576.60334 763.76052,577.12459 764.58794,578.51265 765.5987,579.68792 766.60946,580.86319 767.86768,583.50735 768.39475,585.56383 768.9218,587.62032 769.59469,589.30289 769.89005,589.30289 770.55508,589.30289 772.09909,597.92645 772.09909,601.64071 772.09909,603.14569 772.44028,604.5879 772.85728,604.84563 773.3516,605.15113 773.61546,624.6926 773.61546,660.99585 L 773.61546,716.67749 756.17727,716.67749 738.73908,716.67749 738.73908,706.06294 C 738.73908,700.22494 738.45266,695.44839 738.1026,695.44839 737.75253,695.44839 737.0896,696.27475 736.62942,697.28475 735.16496,700.49888 727.83281,708.33749 726.2908,708.33749 725.83197,708.33749 725.03041,709.01985 724.50957,709.85385 723.98873,710.68785 723.05371,711.37022 722.43174,711.37022 721.80977,711.37022 721.30089,711.67802 721.30089,712.05423 721.30089,712.43044 720.27734,713.09505 719.02634,713.53116 717.77534,713.96726 716.7518,714.6185 716.7518,714.97835 716.7518,715.33821 714.96059,716.08698 712.77134,716.64228 710.58209,717.19758 708.61276,717.92406 708.39505,718.25668 707.84659,719.0946 696.15537,720.48807 690.6144,720.37595 688.10146,720.3251 684.00753,719.98668 681.51677,719.62391 z M 711.69716,699.89282 C 714.06021,699.41825 715.99362,698.76234 715.99362,698.43525 715.99362,698.10815 717.27305,697.42464 718.8368,696.91631 720.40055,696.408 721.95282,695.52858 722.28629,694.96206 722.61976,694.39554 723.22415,693.93203 723.62937,693.93203 724.60342,693.93203 732.67362,685.96979 732.67362,685.00878 732.67362,684.59768 733.18295,683.83863 733.80545,683.322 734.42797,682.80535 735.31623,680.97237 735.77937,679.2487 736.24252,677.52503 737.01263,675.8716 737.49073,675.57443 738.08115,675.20743 738.44317,670.28257 738.6193,660.22124 L 738.87862,645.40837 733.87038,645.40837 C 731.11585,645.40837 728.2697,645.7197 727.5456,646.10022 726.82151,646.48073 722.99796,647.17932 719.04882,647.65262 715.09967,648.12593 711.68785,648.7886 711.46699,649.12524 711.24614,649.46188 709.27423,650.16205 707.08498,650.68119 704.89572,651.20032 703.10452,651.90576 703.10452,652.24883 703.10452,652.5919 701.97238,653.24623 700.58867,653.7029 697.6381,654.67668 695.60394,656.12753 691.83132,659.94903 686.98223,664.86094 685.66633,667.00618 685.66633,669.99945 685.66633,671.06936 685.32515,671.94474 684.90815,671.94474 684.46216,671.94474 684.14997,674.59838 684.14997,678.38929 684.14997,681.93379 684.45318,684.83384 684.82377,684.83384 685.19436,684.83384 685.71938,686.01617 685.99047,687.46122 686.50822,690.22106 692.76646,697.72294 694.55102,697.72294 695.08544,697.72294 695.5227,698.01476 695.5227,698.37144 695.5227,700.40059 704.8161,701.27473 711.69716,699.89282 z"
       id="path3778"
       inkscape:connector-curvature="0" />
    <path
       style="fill:#000000;fill-opacity:1;stroke:none"
       d="M 810.76638,606.36199 810.76638,496.04649 827.44639,496.04649 844.1264,496.04649 844.1264,606.36199 844.1264,716.67749 827.44639,716.67749 810.76638,716.67749 810.76638,606.36199 z"
       id="path3780"
       inkscape:connector-curvature="0" />
    <path
       style="fill:#f03f35;fill-opacity:1;stroke:none"
       d="M 1013.4195,772.03422 C 1012.794,771.67145 1010.1498,770.96254 1007.5436,770.45885 1004.9373,769.95515 1002.8049,769.24848 1002.8049,768.88846 1002.8049,768.52844 1002.2594,768.23388 1001.5927,768.23388 999.94898,768.23388 995.17925,765.93815 993.37423,764.27823 992.56585,763.53484 991.60203,762.9266 991.23241,762.9266 990.38061,762.9266 978.55037,751.18185 978.522,750.30804 978.5104,749.95075 977.48685,748.31821 976.24745,746.68017 975.00805,745.04213 973.994,743.25093 973.994,742.69971 973.994,742.1485 973.72839,741.6975 973.40375,741.6975 972.78463,741.6975 970.18573,732.3789 970.19672,730.1984 970.20022,729.50341 969.83789,728.81304 969.39154,728.66425 968.262,728.28774 968.23142,710.00589 969.35844,708.87886 969.823,708.41431 970.20309,707.42009 970.20309,706.66949 970.20309,705.58617 969.58697,705.30476 967.21511,705.30476 965.57171,705.30476 964.01626,705.64594 963.75854,706.06294 963.49969,706.48177 960.08612,706.82112 956.13197,706.82112 951.86544,706.82112 948.97399,706.51486 948.97399,706.06294 948.97399,705.64594 948.10153,705.30476 947.03518,705.30476 944.77544,705.30476 938.15512,703.75098 937.60126,703.09063 937.39276,702.84205 935.34566,701.98809 933.05216,701.19296 930.75866,700.39783 928.60932,699.29178 928.27585,698.7351 927.94238,698.17841 927.28864,697.72294 926.82309,697.72294 925.82566,697.72294 925.2764,697.2449 918.12112,690.14943 915.12155,687.17493 912.22352,683.73854 911.68104,682.513 911.13856,681.28746 910.47822,680.28475 910.2136,680.28475 909.94899,680.28475 909.30852,679.2612 908.79034,678.0102 908.27215,676.7592 907.6129,675.73566 907.32532,675.73566 907.03775,675.73566 906.34812,673.94445 905.79282,671.7552 905.23752,669.56595 904.49516,667.5868 904.14313,667.35709 903.7911,667.12738 903.15555,663.58802 902.7308,659.49185 901.92906,651.76007 902.90522,638.47122 904.313,637.95291 904.69053,637.81391 904.99929,637.13155 904.99913,636.43655 904.9988,634.99626 909.44258,625.82929 910.87534,624.31466 911.39659,623.76363 911.82306,623.00426 911.82306,622.62718 911.82306,621.75737 923.69883,609.78269 926.22852,608.10174 L 928.12398,606.84224 924.71216,603.7877 C 922.83566,602.1077 920.77709,600.55006 920.13757,600.32628 919.49804,600.10248 918.40858,598.9807 917.71655,597.83341 917.02451,596.68613 915.66442,594.89448 914.69412,593.85198 912.2026,591.17506 908.03215,584.68621 908.03215,583.48654 908.03215,582.93253 907.70412,582.47925 907.30319,582.47925 906.90227,582.47925 906.18654,581.02923 905.7127,579.25698 905.23886,577.48473 904.53126,575.64401 904.14027,575.16649 902.59725,573.28202 901.74686,560.54248 902.63986,552.68925 903.11589,548.50291 903.8063,544.70763 904.1741,544.25529 904.5419,543.80296 905.27324,541.98285 905.79932,540.2106 906.32539,538.43835 906.98838,536.98832 907.27263,536.98832 907.55688,536.98832 908.23985,535.6236 908.79034,533.95559 909.34082,532.28759 910.08851,530.92287 910.45185,530.92287 910.81519,530.92287 911.33222,530.3258 911.60081,529.59605 911.86939,528.8663 914.67344,525.75009 917.83202,522.67114 925.08227,515.60366 925.78868,515.00104 926.82309,515.00104 927.28864,515.00104 927.94238,514.53753 928.27585,513.971 928.60932,513.40448 930.16159,512.52507 931.72535,512.01675 933.2891,511.50843 934.56853,510.82443 934.56853,510.49675 934.56853,510.16907 936.70092,509.46209 939.30717,508.92569 941.91342,508.38929 944.52483,507.57501 945.11031,507.11618 945.77342,506.59651 950.28819,506.28451 957.08353,506.28874 965.83441,506.2942 968.12786,506.51496 968.67779,507.40477 969.25432,508.3376 969.44913,508.29041 969.90287,507.10799 970.19961,506.33469 970.01926,505.02442 969.50208,504.19629 968.3006,502.27242 968.20629,484.45481 969.39548,484.05841 969.83967,483.91035 970.20309,483.07236 970.20309,482.19622 970.20309,480.34595 972.53929,471.58626 973.18204,471.02648 973.42145,470.81798 974.12855,469.62384 974.75339,468.37284 975.37823,467.12184 976.31593,465.64745 976.83718,465.09641 977.35843,464.54537 977.78491,463.76308 977.78491,463.35797 977.78491,462.39231 990.21747,449.79738 991.17069,449.79738 991.57426,449.79738 992.56585,449.19056 993.37423,448.4489 995.33953,446.64579 1002.5386,443.25091 1005.8376,442.57153 1007.2972,442.27097 1008.7347,441.64144 1009.0323,441.17258 1009.3982,440.59589 1013.5681,440.33189 1021.9214,440.35655 1032.0841,440.38655 1034.672,440.62054 1036.544,441.6787 1037.795,442.38583 1039.2963,442.9665 1039.8801,442.96907 1040.8786,442.97346 1048.9907,446.69628 1049.8122,447.52714 1050.0207,447.73801 1052.2384,449.4134 1054.7404,451.25022 1059.9465,455.07222 1063.4078,458.22209 1063.4384,459.16554 1063.45,459.52252 1064.3124,460.48554 1065.3549,461.30557 1066.3974,462.1256 1067.2504,463.28354 1067.2504,463.87878 1067.2504,465.34879 1069.2398,465.24784 1070.4428,463.71678 1073.3346,460.03632 1084.8938,449.03919 1085.8706,449.03919 1086.4977,449.03919 1087.1884,448.57616 1087.4056,448.01022 1087.6228,447.44428 1089.1474,446.53672 1090.7936,445.99341 1092.4399,445.4501 1093.7868,444.75303 1093.7868,444.44437 1093.7868,444.13571 1095.578,443.45842 1097.7672,442.93928 1099.9565,442.42014 1101.9913,441.61846 1102.289,441.15775 1103.0308,440.00977 1127.7492,439.99768 1128.5014,441.14493 1128.7989,441.59859 1130.6872,442.37729 1132.6977,442.87538 1134.7082,443.37347 1138.5814,445.13468 1141.3047,446.78918 1144.0281,448.44369 1146.3804,449.79738 1146.5321,449.79738 1147.0077,449.79738 1157.0293,460.09752 1158.4106,462.00601 1161.7058,466.55899 1163.2793,469.38095 1164.2856,472.54284 1164.8828,474.41934 1165.5868,476.12525 1165.8501,476.33375 1167.1748,477.38289 1168.2098,487.39499 1167.9779,496.91698 1167.734,506.92968 1168.1702,509.74077 1169.6069,507.41613 1170.1425,506.54955 1172.4142,506.31573 1180.4426,506.30081 1186.6137,506.28935 1191.0185,506.60476 1191.6651,507.10441 1192.2506,507.55676 1194.6913,508.34889 1197.0891,508.86469 1199.4868,509.38049 1201.4486,510.06522 1201.4486,510.38631 1201.4486,510.7074 1202.8134,511.37899 1204.4814,511.87874 1206.1494,512.37848 1207.5141,513.11485 1207.5141,513.51511 1207.5141,513.91537 1207.9406,514.24328 1208.4618,514.24378 1208.9831,514.24429 1210.4009,515.09725 1211.6125,516.13924 1212.8241,517.18123 1214.0664,518.03377 1214.3733,518.03377 1215.1055,518.03377 1223.4359,526.37085 1223.4359,527.10365 1223.4359,527.41444 1224.2036,528.49801 1225.1418,529.5116 1226.0801,530.52519 1227.7007,533.04858 1228.7432,535.11913 1229.7857,537.18969 1230.8385,539.05437 1231.0828,539.26287 1231.7972,539.87258 1234.0505,549.59955 1234.0505,552.07349 1234.0505,553.31844 1234.3917,554.54788 1234.8087,554.8056 1235.2257,555.06332 1235.5668,557.64233 1235.5668,560.53672 1235.5668,563.53961 1235.2413,565.79924 1234.8087,565.79924 1234.3917,565.79924 1234.0454,566.90809 1234.0393,568.26334 1234.026,571.1747 1231.9539,580.35257 1231.1781,580.93618 1230.8814,581.15937 1230.0558,582.53612 1229.3434,583.99562 1227.8263,587.10352 1225.7547,590.54811 1224.2994,592.38264 1221.7214,595.63232 1213.5858,603.70835 1212.8902,603.70835 1212.4647,603.70835 1211.7555,604.3829 1211.3143,605.20734 1210.6781,606.39605 1210.8121,606.96277 1211.9616,607.94522 1213.8401,609.55081 1222.897,618.60775 1224.5188,620.50246 1225.2071,621.30655 1226.1527,622.80396 1226.6202,623.83004 1227.0877,624.85611 1227.7026,625.69563 1227.9867,625.69563 1228.2708,625.69563 1228.9121,627.06036 1229.4118,628.72836 1229.9116,630.39636 1230.6206,631.76109 1230.9874,631.76109 1231.7783,631.76109 1234.0505,641.29249 1234.0505,644.61031 1234.0505,645.88324 1234.3917,646.92473 1234.8087,646.92473 1235.2413,646.92473 1235.5668,649.18437 1235.5668,652.18726 1235.5668,655.08165 1235.2257,657.66065 1234.8087,657.91837 1234.3917,658.1761 1234.0505,659.40554 1234.0505,660.65048 1234.0505,663.2223 1231.7794,672.88556 1231.0398,673.46111 1230.7718,673.66961 1230.0802,675.03434 1229.5029,676.49384 1228.9255,677.95334 1228.0066,679.42031 1227.4609,679.75379 1226.9152,680.08726 1226.4687,680.70709 1226.4687,681.13119 1226.4687,683.23308 1217.8815,692.42233 1212.2176,696.38149 1210.2673,697.74478 1208.2162,699.28669 1207.6596,699.80794 1207.103,700.32919 1206.2679,700.75567 1205.8039,700.75567 1205.3398,700.75567 1203.573,701.41183 1201.8776,702.21379 1198.0756,704.01225 1193.4077,705.29493 1190.6445,705.30053 1189.4978,705.30286 1188.5595,705.64594 1188.5595,706.06294 1188.5595,706.51486 1185.6681,706.82112 1181.4016,706.82112 1177.4474,706.82112 1174.0338,706.48177 1173.775,706.06294 1173.5173,705.64594 1172.0373,705.30476 1170.4862,705.30476 L 1167.6661,705.30476 1167.9666,715.58812 C 1168.2741,726.11182 1167.4439,733.0311 1165.4051,736.93773 1164.8005,738.0961 1164.0997,740.1304 1163.8476,741.45839 1163.5956,742.78639 1162.7408,744.45988 1161.9481,745.17727 1161.1554,745.89465 1160.5068,746.79268 1160.5068,747.17287 1160.5068,748.72213 1147.6901,762.9266 1146.2923,762.9266 1146.0575,762.9266 1144.7666,763.7647 1143.4236,764.78902 1142.0807,765.81336 1139.5749,767.09057 1137.8552,767.62726 1136.1356,768.16396 1134.7286,768.81457 1134.7286,769.07306 1134.7286,769.33155 1132.5962,769.95543 1129.99,770.45945 1127.3837,770.96348 1124.6589,771.69247 1123.9348,772.07942 1122.3525,772.92502 1106.6759,773.03246 1106.6759,772.19769 1106.6759,771.87579 1104.3832,771.1775 1101.581,770.64593 1098.7788,770.11437 1096.3053,769.41143 1096.0842,769.08386 1095.8631,768.75629 1093.891,767.85187 1091.7018,767.07402 1089.5125,766.29619 1087.7213,765.386 1087.7213,765.05138 1087.7213,764.71675 1087.2948,764.44216 1086.7736,764.44118 1086.2523,764.44021 1084.6317,763.41746 1083.1722,762.16842 1081.7127,760.91937 1080.2816,759.89663 1079.9919,759.89565 1079.2498,759.89315 1071.7995,752.2403 1071.7995,751.48048 1071.7995,750.7227 1068.7082,747.76296 1067.9167,747.76296 1067.6064,747.76296 1067.1488,748.40493 1066.8998,749.18955 1066.6508,749.97418 1064.2581,752.78893 1061.5828,755.44456 1053.6685,763.30063 1052.8603,763.91855 1046.7795,766.7625 1039.577,770.13101 1038.4624,770.53428 1035.0694,770.99935 1033.1472,771.26282 1031.393,771.77192 1031.1713,772.13068 1030.6463,772.98016 1014.903,772.89462 1013.4195,772.03422 z M 1032.675,754.72353 C 1033.135,754.38144 1034.9613,753.64431 1036.7336,753.08545 1038.5058,752.52659 1039.9558,751.80576 1039.9558,751.48361 1039.9558,751.16145 1040.7235,750.6556 1041.6618,750.35949 1043.3787,749.81762 1045.3986,748.22983 1048.823,744.73023 1052.9663,740.496 1053.6031,739.70964 1053.6031,738.82765 1053.6031,738.32107 1053.8897,737.90659 1054.24,737.90659 1054.5902,737.90659 1055.3272,736.54186 1055.8777,734.87386 1056.4282,733.20586 1057.1065,731.84113 1057.3852,731.84113 1057.6638,731.84113 1058.2916,730.1092 1058.7802,727.99238 1059.9114,723.09181 1060.0359,630.46013 1058.9167,626.4316 1057.5356,621.46016 1050.8748,615.83927 1046.3647,615.83927 1045.3418,615.83927 1044.5049,615.49808 1044.5049,615.08108 1044.5049,614.58405 1028.8358,614.3229 999.01401,614.3229 969.19218,614.3229 953.52308,614.58405 953.52308,615.08108 953.52308,615.49808 952.48003,615.83927 951.20518,615.83927 948.33854,615.83927 942.15035,617.35114 942.15035,618.05151 942.15035,618.33523 940.91832,619.01288 939.4125,619.5574 937.90668,620.10191 935.99161,621.10869 935.1568,621.7947 931.64536,624.68024 926.12297,630.7738 925.26571,632.70882 924.75767,633.85557 924.0978,634.79382 923.79933,634.79382 923.50086,634.79382 922.8331,636.24384 922.31541,638.01609 921.79773,639.78834 921.01637,641.48166 920.57907,641.77902 919.47392,642.53051 919.53535,661.33139 920.65062,663.67728 921.12727,664.67988 922.492,667.53475 923.68335,670.02142 925.97374,674.80211 935.13226,684.83384 937.20642,684.83384 937.84058,684.83384 938.35944,685.12319 938.35944,685.47685 938.35944,686.28001 945.48352,688.62475 947.92378,688.62475 948.9184,688.62475 949.73217,688.96593 949.73217,689.38293 949.73217,689.83518 952.63854,690.14112 956.9349,690.14112 961.23127,690.14112 964.13763,689.83518 964.13763,689.38293 964.13763,688.96593 964.80807,688.62475 965.6275,688.62475 967.32067,688.62475 974.17693,686.42044 974.75218,685.69113 974.96068,685.42679 976.05743,684.7334 977.18941,684.15026 978.32138,683.56712 981.04801,681.30791 983.24858,679.12982 L 987.24962,675.16964 987.2923,667.30219 C 987.32815,660.69297 987.60481,658.91941 989.02219,656.21247 989.95015,654.44021 991.04262,652.99019 991.44988,652.99019 991.85715,652.99019 992.19037,652.4711 992.19037,651.83666 992.19037,651.20222 993.04333,650.2945 994.08583,649.81951 995.12833,649.34451 995.98128,648.73028 995.98128,648.45455 995.98128,648.17882 997.77249,647.1306 999.96174,646.12518 1002.8712,644.78898 1005.2682,644.29713 1008.8704,644.29713 1012.4726,644.29713 1014.8695,644.78898 1017.779,646.12518 1019.9683,647.1306 1021.7595,648.21059 1021.7595,648.52516 1021.7595,648.83972 1022.4456,649.31486 1023.2842,649.58101 1024.1227,649.84716 1025.3611,651.1329 1026.0361,652.43821 1026.7111,653.74352 1027.7106,655.25874 1028.2572,655.80536 1029.6125,657.16059 1030.3308,662.55665 1029.9765,668.71991 1029.735,672.92191 1029.2097,674.61819 1027.0477,678.17825 1025.5987,680.56417 1024.0036,682.52596 1023.5031,682.53779 1023.0025,682.54962 1022.3202,683.0332 1021.9867,683.61241 1020.6261,685.9756 1013.9977,688.20354 1008.3273,688.20354 1005.2806,688.20354 1002.4601,687.82499 1001.9878,687.35269 1000.9311,686.29603 992.96582,693.98365 991.36112,697.60892 990.77962,698.92263 990.07241,699.99748 989.78954,699.99748 989.50668,699.99748 988.86313,701.27692 988.35945,702.84067 987.85577,704.40442 987.12926,706.0813 986.74499,706.56706 984.88371,708.91999 984.87706,728.97104 986.73713,730.28731 987.06088,730.51641 987.79256,732.15388 988.36307,733.92613 988.93357,735.69839 989.63216,737.14841 989.91548,737.14841 990.1988,737.14841 990.78682,737.91607 991.22218,738.85432 992.37871,741.34677 998.36189,747.76296 999.52959,747.76296 1000.08,747.76296 1000.5304,748.06275 1000.5304,748.42916 1000.5304,748.79556 1001.5539,749.51933 1002.8049,750.03751 1004.0559,750.55568 1005.0795,751.24791 1005.0795,751.57579 1005.0795,751.90366 1006.7854,752.60913 1008.8704,753.1435 1010.9554,753.67787 1012.6613,754.37117 1012.6613,754.68416 1012.6613,756.0656 1030.8224,756.10132 1032.675,754.72353 z M 1123.9877,754.54227 C 1124.1267,754.14965 1125.0025,753.82842 1125.9339,753.82842 1127.6774,753.82842 1135.0548,750.34941 1137.3344,748.45225 1141.5817,744.9175 1146.0037,740.11452 1146.9232,738.03732 1147.5088,736.71442 1148.2321,735.63204 1148.5305,735.63204 1148.829,735.63204 1149.4968,734.18202 1150.0145,732.40977 1150.5321,730.63752 1151.3135,728.94405 1151.7508,728.64651 1152.2373,728.31547 1152.5459,724.25904 1152.5459,718.19386 1152.5459,712.12867 1152.2373,708.07224 1151.7508,707.7412 1151.3135,707.44366 1150.5321,705.75019 1150.0145,703.97794 1149.4968,702.20569 1148.829,700.75567 1148.5305,700.75567 1148.2321,700.75567 1147.5229,699.70533 1146.9547,698.42157 1145.4895,695.11153 1136.1807,685.98568 1135.4596,687.15244 1134.7086,688.36761 1122.4026,688.41853 1121.9991,687.20815 1121.8418,686.73628 1121.2252,686.35021 1120.6288,686.35021 1117.6703,686.35021 1111.7126,680.72734 1108.9504,675.3283 1107.3722,672.24351 1107.0569,670.56562 1107.0666,665.30464 1107.0739,661.35538 1107.4067,658.78294 1107.9542,658.44457 1108.436,658.14681 1109.0717,656.9408 1109.367,655.76455 1109.6622,654.58829 1110.3977,653.43634 1111.0015,653.20464 1111.6053,652.97295 1112.4059,651.97696 1112.7806,650.99133 1113.1554,650.00571 1113.9822,649.19928 1114.618,649.19928 1115.2538,649.19928 1115.7741,648.88853 1115.7741,648.50874 1115.7741,648.12893 1117.3947,647.02009 1119.3754,646.04464 1122.2967,644.60603 1124.1665,644.27637 1129.2767,644.29902 1132.8041,644.31465 1135.8071,644.67708 1136.1003,645.12256 1136.3884,645.56014 1137.724,646.2944 1139.0684,646.75423 1142.71,647.99976 1148.1447,654.06896 1148.8958,657.72883 1149.1311,658.87558 1149.6222,659.81383 1149.987,659.81383 1150.3519,659.81383 1150.6504,662.71388 1150.6504,666.25838 1150.6504,670.04929 1150.3382,672.70293 1149.8923,672.70293 1149.4753,672.70293 1149.1341,673.00397 1149.1341,673.37191 1149.1341,674.21818 1155.1629,680.28475 1156.0039,680.28475 1156.3482,680.28475 1157.0799,680.9272 1157.6299,681.71242 1159.2373,684.00727 1167.37,687.85586 1171.69,688.36596 1173.8792,688.62446 1175.6704,689.12963 1175.6704,689.48854 1175.6704,690.40675 1186.0932,690.30663 1186.6641,689.38293 1186.9218,688.96593 1187.9536,688.62475 1188.9569,688.62475 1195.2173,688.62475 1204.5033,682.78479 1211.1051,674.69585 1212.8444,672.56466 1216.6123,664.56651 1216.6123,663.0055 1216.6123,662.15358 1216.9966,661.32847 1217.4662,661.17192 1218.6731,660.76963 1218.7012,644.46194 1217.4957,644.06012 1217.0098,643.89815 1216.6123,642.95717 1216.6123,641.96904 1216.6123,640.27283 1215.2321,636.37904 1214.3377,635.552 1214.1123,635.3435 1213.5156,634.23466 1213.0117,633.08791 1212.5079,631.94116 1211.7472,631.00291 1211.3213,631.00291 1210.8953,631.00291 1210.5468,630.53459 1210.5468,629.9622 1210.5468,628.42375 1204.6962,623.30581 1199.367,620.18244 1194.2818,617.20212 1190.2784,615.85006 1186.5193,615.8435 1185.1887,615.84117 1183.8891,615.49808 1183.6314,615.08108 1183.3275,614.5894 1167.3375,614.3229 1138.1404,614.3229 1108.9434,614.3229 1092.9534,614.5894 1092.6495,615.08108 1092.3918,615.49808 1091.4334,615.84054 1090.5198,615.8421 1086.693,615.84863 1079.6481,621.89775 1078.8562,625.85707 1078.6238,627.01928 1078.1351,627.97018 1077.7702,627.97018 1076.9166,627.97018 1076.8917,722.95512 1077.745,723.91813 1078.096,724.31428 1078.8028,726.6002 1079.3157,728.99795 1079.8286,731.3957 1080.528,733.3575 1080.8699,733.3575 1081.2118,733.3575 1081.6898,734.14754 1081.9321,735.11314 1082.1745,736.07874 1082.9791,737.61684 1083.7202,738.53114 1084.4613,739.44544 1086.0912,741.52873 1087.3422,743.16069 1088.5932,744.79264 1090.4594,746.58106 1091.4892,747.13496 1092.519,747.68886 1093.9691,748.73912 1094.7115,749.46887 1095.4539,750.19862 1096.5731,750.79569 1097.1986,750.79569 1097.8241,750.79569 1098.3359,751.08226 1098.3359,751.43251 1098.3359,751.78277 1099.7859,752.50402 1101.5581,753.0353 1103.3304,753.56658 1105.4628,754.29151 1106.2968,754.64627 1107.1308,755.00104 1108.8367,755.44227 1110.0877,755.62679 1113.5641,756.13955 1123.7023,755.34855 1123.9877,754.54227 z M 1052.1463,594.64049 C 1053.9901,593.40617 1056.3515,591.12804 1057.394,589.57798 L 1059.2895,586.75969 1059.2895,535.52718 1059.2895,484.29466 1057.0765,479.55603 C 1055.8593,476.94978 1054.5799,474.81739 1054.2333,474.81739 1053.8867,474.81739 1053.6031,474.30851 1053.6031,473.68654 1053.6031,473.06457 1052.9208,472.12955 1052.0868,471.60871 1051.2528,471.08786 1050.5704,470.26235 1050.5704,469.77422 1050.5704,469.2861 1049.4616,468.00165 1048.1063,466.91988 1046.7511,465.83812 1045.1304,464.4863 1044.5049,463.91583 1043.8794,463.34537 1042.6,462.64181 1041.6618,462.35237 1040.7235,462.06292 1039.9558,461.56253 1039.9558,461.24037 1039.9558,460.91822 1038.5058,460.19739 1036.7336,459.63853 1034.9613,459.07967 1033.0362,458.26056 1032.4555,457.81829 1031.044,456.74322 1013.5337,456.74603 1012.8188,457.82144 1012.5237,458.26545 1010.6616,459.07429 1008.6808,459.61886 1006.7001,460.16344 1005.0795,460.88285 1005.0795,461.21755 1005.0795,461.55226 1004.3118,462.06292 1003.3736,462.35237 1001.4169,462.95597 1000.4221,463.77763 994.7707,469.45742 992.51752,471.72194 990.67401,474.02492 990.67401,474.57515 990.67401,475.12538 990.33282,475.57557 989.91582,475.57557 989.49882,475.57557 989.15764,475.92047 989.15764,476.34201 989.15764,476.76356 988.38998,478.72536 987.45173,480.70156 985.93887,483.88805 985.74582,485.47759 985.74582,494.74767 985.74582,501.19072 986.05083,505.40808 986.54091,505.74131 986.97822,506.03866 987.75958,507.73197 988.27726,509.50422 988.79495,511.27647 989.546,512.72649 989.94626,512.72649 990.34652,512.72649 990.67442,513.15297 990.67493,513.67422 990.67601,514.7755 993.13735,517.87692 997.50776,522.28396 L 1000.5948,525.39688 1004.5264,524.68229 C 1008.8034,523.9049 1016.4522,524.53848 1016.4522,525.67015 1016.4522,526.05714 1016.9686,526.37377 1017.5998,526.37377 1019.2631,526.37377 1021.7111,527.92678 1024.3653,530.6659 1028.1931,534.61621 1028.5642,535.25777 1029.4329,539.4289 1029.8915,541.63108 1030.6217,544.1889 1031.0556,545.11293 1031.5947,546.2611 1031.5985,547.10122 1031.0676,547.76657 1030.6403,548.30204 1030.0613,550.32679 1029.7809,552.26601 1029.5005,554.20524 1028.6146,556.54874 1027.8123,557.4738 1027.01,558.39886 1026.1582,559.77142 1025.9193,560.52394 1025.32,562.41223 1018.6821,566.53697 1015.3804,567.07277 1013.8849,567.31546 1012.6613,567.81056 1012.6613,568.17299 1012.6613,569.04256 1007.6965,569.02147 1006.0169,568.14476 1005.2928,567.7668 1003.2076,567.05793 1001.383,566.56948 999.55849,566.08104 997.56635,565.28144 996.95605,564.7926 993.63885,562.13552 990.84501,558.95237 989.17764,555.93029 987.54708,552.97496 987.29956,551.56127 987.28218,545.10468 L 987.26219,537.67829 983.35439,533.63811 C 981.20511,531.41601 978.39036,529.13039 977.09939,528.55895 975.80843,527.98752 974.75218,527.31669 974.75218,527.06823 974.75218,526.81977 973.30216,526.1497 971.52991,525.5792 969.75766,525.00869 968.06425,524.18642 967.76678,523.75193 967.01359,522.6518 948.21115,522.71764 945.87118,523.82859 937.19877,527.94604 934.98461,529.24355 931.96201,531.97948 930.05959,533.70146 928.50307,535.5209 928.50307,536.02266 928.50307,536.52444 927.85995,537.27916 927.07392,537.69983 926.28789,538.1205 925.42843,539.32664 925.16402,540.38014 924.89961,541.43364 924.39293,542.2956 924.03807,542.2956 923.68321,542.2956 922.9473,543.91621 922.40273,545.89696 921.85816,547.87771 921.04616,549.74197 920.59829,550.03975 919.50797,550.76469 919.50515,568.99177 920.59513,570.42157 921.04127,571.00679 921.86354,572.93563 922.4224,574.70788 922.98126,576.48014 923.68809,577.93016 923.99314,577.93016 924.29819,577.93016 924.74944,578.69782 924.99593,579.63607 925.91936,583.15118 938.07386,593.85198 941.14306,593.85198 941.69707,593.85198 942.15035,594.14469 942.15035,594.50244 942.15035,596.34483 951.09175,596.70715 998.69448,596.79366 L 1048.7941,596.88471 1052.1463,594.64049 z M 1190.6879,596.00364 C 1192.6448,595.51904 1194.4165,594.88612 1194.625,594.59714 1194.8335,594.30816 1196.2534,593.6646 1197.7802,593.167 1199.3071,592.6694 1200.7464,591.76701 1200.9787,591.16167 1201.211,590.55634 1201.7872,590.06107 1202.2592,590.06107 1203.4369,590.06107 1210.5205,583.08482 1210.5351,581.91062 1210.5415,581.38937 1210.8466,580.96289 1211.213,580.96289 1211.5794,580.96289 1212.3277,579.85405 1212.8759,578.4988 1213.4241,577.14355 1214.1492,575.8431 1214.4874,575.60891 1214.8256,575.37472 1215.5228,573.41292 1216.0367,571.24936 1216.5506,569.0858 1217.2316,567.31561 1217.5499,567.31561 1217.8682,567.31561 1218.1286,564.07438 1218.1286,560.11288 1218.1286,555.81651 1217.8227,552.91015 1217.3705,552.91015 1216.9535,552.91015 1216.6123,552.18207 1216.6123,551.2922 1216.6123,549.07918 1214.984,543.81196 1214.2999,543.81196 1213.9941,543.81196 1213.5505,543.0443 1213.314,542.10605 1213.0776,541.1678 1212.273,539.59436 1211.5259,538.60951 1209.3465,535.73621 1203.0421,529.4065 1202.3597,529.4065 1202.0159,529.4065 1201.0539,528.7724 1200.2221,527.9974 1199.3902,527.22238 1197.3641,526.15438 1195.7196,525.62404 1194.0751,525.0937 1192.2511,524.27778 1191.6663,523.81088 1190.1843,522.62767 1171.9175,522.68118 1169.5333,523.8757 1168.5302,524.37825 1166.5154,525.29789 1165.0559,525.91933 1160.6888,527.77881 1158.1999,529.5585 1153.5519,534.14514 1149.4763,538.16698 1148.0353,540.77923 1149.8923,540.77923 1150.792,540.77923 1150.9319,550.75452 1150.047,551.81078 1149.7152,552.20693 1148.999,553.84302 1148.4554,555.44653 1146.7759,560.40178 1138.0041,567.31561 1133.3967,567.31561 1132.5105,567.31561 1131.5745,567.65679 1131.3168,568.07379 1131.0591,568.49079 1129.6742,568.83197 1128.2393,568.83197 1126.8044,568.83197 1125.6304,568.49079 1125.6304,568.07379 1125.6304,567.65679 1124.8284,567.31561 1123.8481,567.31561 1121.0943,567.31561 1117.0187,565.68965 1115.9206,564.15297 1115.3757,563.39042 1114.4839,562.76652 1113.9387,562.76652 1113.3936,562.76652 1111.9639,561.31649 1110.7616,559.54424 1109.5593,557.77199 1108.2335,556.07852 1107.8153,555.78098 1107.3874,555.47654 1107.055,551.66416 1107.055,547.06189 L 1107.055,538.88378 1110.0183,534.45434 C 1111.6481,532.01816 1113.5246,529.8262 1114.1883,529.58333 1114.852,529.34047 1115.6465,528.72763 1115.9539,528.22148 1116.2613,527.71533 1117.4521,527.06548 1118.6,526.77738 1119.7479,526.48927 1120.9341,525.85412 1121.2361,525.36594 1121.5992,524.77889 1124.4875,524.47832 1129.7657,524.47832 1137.6478,524.47832 1137.7782,524.44908 1140.3304,522.10837 1141.7517,520.8049 1143.3402,518.9284 1143.8604,517.93837 1144.3807,516.94834 1145.2683,515.86548 1145.8329,515.532 1146.3976,515.19853 1146.8595,514.45524 1146.8595,513.88025 1146.8595,513.30526 1147.3856,512.30873 1148.0286,511.66574 1148.6716,511.02276 1149.6053,508.78071 1150.1035,506.6834 1150.6017,504.5861 1151.2697,502.87013 1151.588,502.87013 1151.9064,502.87013 1152.1668,498.94653 1152.1668,494.15103 1152.1668,488.84376 1151.8701,485.43194 1151.4086,485.43194 1150.9916,485.43194 1150.6492,484.66428 1150.6476,483.72603 1150.6446,481.91248 1147.2229,474.53522 1145.3348,472.27133 1143.9164,470.57067 1138.9887,465.6324 1137.5303,464.45004 1135.487,462.79349 1127.6997,458.89556 1126.4335,458.89556 1125.7416,458.89556 1124.7489,458.46909 1124.2275,457.94784 1122.9039,456.62454 1105.0274,456.63824 1104.5859,457.96289 1104.4149,458.47586 1103.6691,458.89556 1102.9285,458.89556 1101.1756,458.89556 1092.8281,463.32977 1092.0432,464.67784 1091.7097,465.25059 1091.0665,465.7192 1090.6138,465.7192 1089.692,465.7192 1086.205,469.25517 1086.205,470.18985 1086.205,470.52073 1085.527,471.405 1084.6984,472.15489 1083.8698,472.90478 1082.7777,474.66357 1082.2715,476.06331 1081.7654,477.46306 1081.1031,478.6083 1080.7997,478.6083 1080.4964,478.6083 1079.8286,480.57009 1079.3157,482.96785 1078.8028,485.3656 1078.096,487.65152 1077.745,488.04767 1076.8821,489.02152 1076.9173,583.99562 1077.7806,583.99562 1078.1512,583.99562 1078.685,585.22488 1078.9668,586.72731 1079.5023,589.58164 1084.1796,594.89959 1087.2419,596.13591 1089.8287,597.18025 1186.4353,597.05672 1190.6879,596.00364 z"
       id="path3782"
       inkscape:connector-curvature="0" />
  </g>
</svg>
