<?xml version="1.0" encoding="utf-8"?>
<!-- Generator: Adobe Illustrator 19.1.0, SVG Export Plug-In . SVG Version: 6.00 Build 0)  -->
<svg version="1.1" id="Layer_1" xmlns="http://www.w3.org/2000/svg" xmlns:xlink="http://www.w3.org/1999/xlink" x="0px" y="0px"
	 viewBox="0 0 281.7 134" style="enable-background:new 0 0 281.7 134;" xml:space="preserve">
<style type="text/css">
	.st0{fill:#BE1D28;}
	.st1{fill:#F39200;}
	.st2{fill:#36A9E1;}
	.st3{fill:#95C11F;}
</style>
<rect x="2" y="113.8" class="st0" width="31.4" height="18.6"/>
<rect x="2" y="95.2" width="31.4" height="18.6"/>
<rect x="2" y="76.5" class="st1" width="31.4" height="18.6"/>
<rect x="2" y="57.9" width="31.4" height="18.6"/>
<rect x="2" y="20.6" width="31.4" height="18.6"/>
<rect x="2" y="2" class="st2" width="31.4" height="18.6"/>
<rect x="2" y="39.3" class="st3" width="31.4" height="18.6"/>
<g>
	<path d="M155.6,25.5c1.1,0,1.6,0,1.8-0.1c0.2-0.1,0.9-0.4,0.9-1.5c0-1-0.4-1.2-0.7-1.4c-0.4-0.1-0.6-0.1-2-0.1V25.5z M153.2,20.6
		h3.6c1.6,0,2.4,0.3,3,0.8c0.7,0.6,1,1.5,1,2.5c0,1.7-0.9,2.4-1.4,2.7c-0.8,0.5-1.6,0.5-2.5,0.5l-1.3,0v4h-2.4V20.6z"/>
	<path d="M165,27.7c0,1.1,0.2,1.9,1.3,1.9c1.3,0,1.3-1.2,1.3-1.9V24c0-0.7,0-1.6-1.2-1.6c-1.3,0-1.3,1.2-1.3,1.6V27.7z M162.6,24.4
		c0-1.1,0.2-2.1,0.9-2.9c0.7-0.7,1.7-1,2.7-1c1.1,0,2.1,0.3,2.8,1c0.6,0.6,0.9,1.6,0.9,3.3v2.6c0,1.5-0.2,2.5-0.9,3.2
		c-0.9,1-2.2,1.1-2.9,1.1c-1.1,0-2.8-0.4-3.3-2.2c-0.2-0.8-0.3-1.7-0.3-2.1V24.4z"/>
	<polygon points="172.9,20.6 175.3,20.6 175.3,29.3 180.1,29.3 180.1,31.2 172.9,31.2 	"/>
	<g>
		<path d="M183.6,31.2V27l-3.4-6.4h2.5l1.4,2.7c0.1,0.2,0.5,1.1,0.6,1.3h0.1c0.2-0.4,0.3-0.5,0.6-1.3l1.3-2.7h2.5L186,27v4.3H183.6z
			"/>
	</g>
	<polygon points="198.4,20.6 198.4,22.5 195.7,22.5 195.7,31.2 193.2,31.2 193.2,22.5 190.5,22.5 190.5,20.6 	"/>
	<polygon points="200.9,20.6 208.1,20.6 208.1,22.5 203.2,22.5 203.2,24.8 206.6,24.8 206.6,26.7 203.3,26.7 203.3,29.3 208.5,29.3 
		208.5,31.2 200.9,31.2 	"/>
	<g>
		<path d="M210.9,24.2c0-2.4,1.3-3.8,3.8-3.8c0.6,0,1.6,0.1,2.4,0.7c1,0.8,1.1,2.1,1.1,2.9h-2.4c0-0.5,0-1.7-1.2-1.7
			c-0.3,0-0.7,0.1-0.9,0.3c-0.4,0.3-0.4,0.9-0.4,1.2v4c0,0.6,0,1.7,1.3,1.7c1,0,1.3-0.8,1.3-1.9h2.4c0,0.8,0,0.9-0.1,1.3
			c-0.1,0.4-0.2,1.2-1.1,1.9c-0.8,0.6-1.9,0.7-2.3,0.7c-1.2,0-2.1-0.3-2.8-0.9c-0.4-0.4-1-1-1-3.2V24.2z"/>
	</g>
	<polygon points="221.4,20.6 223.8,20.6 223.8,24.6 226.8,24.6 226.8,20.6 229.2,20.6 229.2,31.2 226.8,31.2 226.8,26.6 223.8,26.6 
		223.8,31.2 221.4,31.2 	"/>
	<g>
		<path d="M232.5,20.6h2.3l2.8,5c0.1,0.2,0.3,0.5,0.4,0.7c0,0.1,0.2,0.5,0.2,0.6h0.1l-0.1-1.1c0-0.7,0-0.8,0-1.2v-4h2.2v10.6h-1.9
			l-2.9-5.2c-0.2-0.4-0.2-0.5-0.8-1.8h-0.1c0,0.3,0.1,1.7,0.1,1.9v5h-2.2V20.6z"/>
	</g>
	<polygon points="243.1,31.2 243.1,30.3 244.3,30.3 244.3,21.5 243.1,21.5 243.1,20.6 248,20.6 248,21.5 246.7,21.5 246.7,30.3 
		248,30.3 248,31.2 	"/>
	<g>
		<path d="M254,26.4c0.6,0.1,0.9,0.2,1.1,0.6c0.1,0.1,0.1,0.1,0.2,0.3V24c0-0.8,0-1.6-1.3-1.6c-1.3,0-1.3,1.3-1.3,1.6v3.7
			c0,1.1,0.2,1.9,1.3,1.9c0.5,0,0.7-0.2,0.9-0.4c-0.3-0.5-0.5-0.7-1-0.8V26.4z M258.5,32.2c-0.4,0-0.7,0-1.2-0.2
			c-0.7-0.3-0.9-0.8-1-1.1c-0.8,0.5-1.8,0.6-2.3,0.6c-1.1,0-2.8-0.4-3.3-2.2c-0.2-0.8-0.3-1.7-0.3-2.1v-2.9c0-1.1,0.2-2.1,0.9-2.9
			c0.7-0.7,1.7-1,2.7-1c1.1,0,2.1,0.3,2.8,1c0.6,0.6,0.9,1.6,0.9,3.3v2.6c0,0.9-0.1,1.6-0.3,2.1c0.4,0.5,0.6,0.5,1.1,0.5V32.2z"/>
		<path d="M261.1,20.6h2.5v7c0,0.6,0,2,1.5,2c0.5,0,1.5,0,1.5-1.9v-7h2.4v7.1c0,0.6,0,2.2-1.1,3.1c-0.7,0.6-1.7,0.8-2.7,0.8
			c-1.1,0-2.3-0.3-3-0.9c-1-1-1.1-2.2-1.1-3.1V20.6z"/>
	</g>
	<polygon points="272,20.6 279.2,20.6 279.2,22.5 274.3,22.5 274.3,24.8 277.7,24.8 277.7,26.7 274.4,26.7 274.4,29.3 279.6,29.3 
		279.6,31.2 272,31.2 	"/>
	<g>
		<path d="M153.3,38h3.2l1.3,4.4c0.1,0.5,0.2,0.6,0.3,1.1c0.1,0.2,0.3,1.1,0.3,1.3h0.1c0.2-0.9,0.3-1.6,0.6-2.5l1.3-4.4h3.2v10.7
			h-2.1v-5.7c0-0.8,0.1-2,0.1-3h-0.1l-2.2,8.8h-1.6l-2.3-8.8h-0.1c0,0.5,0.1,2.7,0.1,3.1v5.7h-2V38z"/>
		<path d="M168.8,45.1c0,1.1,0.2,1.9,1.3,1.9c1.3,0,1.3-1.2,1.3-1.9v-3.7c0-0.7,0-1.6-1.2-1.6c-1.3,0-1.3,1.2-1.3,1.6V45.1z
			 M166.4,41.8c0-1.1,0.2-2.1,0.9-2.9c0.7-0.7,1.7-1,2.7-1c1.1,0,2.1,0.3,2.8,1c0.6,0.6,0.9,1.6,0.9,3.3v2.6c0,1.5-0.2,2.5-0.9,3.2
			c-0.9,1-2.2,1.1-2.9,1.1c-1.1,0-2.8-0.4-3.3-2.2c-0.2-0.8-0.3-1.7-0.3-2.1V41.8z"/>
		<path d="M177,38h2.3l2.8,5c0.1,0.2,0.3,0.5,0.4,0.7c0,0.1,0.2,0.5,0.2,0.6h0.1l-0.1-1.1c0-0.7,0-0.8,0-1.2v-4h2.2v10.7h-1.9
			l-2.9-5.2c-0.2-0.4-0.3-0.5-0.8-1.8h-0.1c0,0.3,0.1,1.7,0.1,1.9v5H177V38z"/>
	</g>
	<polygon points="195.5,38 195.5,40 192.8,40 192.8,48.7 190.3,48.7 190.3,40 187.6,40 187.6,38 	"/>
	<g>
		<path d="M200.5,42.6c1.3,0,1.5,0,1.9-0.1c0.7-0.3,0.8-0.8,0.8-1.4c0-0.7-0.2-1.1-0.7-1.3c-0.4-0.1-0.7-0.1-2-0.1V42.6z
			 M200.5,48.7h-2.3V38h3.5c1.7,0,4,0.2,4,3.1c0,1.4-0.5,2.4-2.1,2.8l2.4,4.7h-2.6l-2-4.4h-0.8V48.7z"/>
	</g>
	<path d="M214.5,35l-2.2,2.1h-1.5l1.4-2.1H214.5z M208.6,38h7.2V40h-4.9v2.3h3.4v1.9H211v2.5h5.2v2h-7.6V38z"/>
	<path d="M222.9,39.9L222.9,39.9l-1.2,4.8h2.4L222.9,39.9z M224.3,38l3.1,10.7h-2.3l-0.5-2.1h-3.3l-0.6,2.1h-2.3l3-10.7H224.3z"/>
	<polygon points="229.8,38 232.2,38 232.2,46.7 236.9,46.7 236.9,48.7 229.8,48.7 	"/>
</g>
<g>
	<path d="M94.3,39.2C94.3,39.2,94.3,39.2,94.3,39.2c-0.2,0.2-0.5,0.4-0.8,0.4c0.2,0.4,0.3,0.9,0.3,1.4c0,0.5-0.1,1.3-0.3,1.9
		c0.4,0,0.7,0,0.7,0s0.3,0,0.8,0c-0.2-0.5-0.3-1.3-0.3-1.9c0-0.5,0.1-1,0.3-1.4C94.7,39.6,94.5,39.4,94.3,39.2z"/>
	<path d="M90.8,36.8c0.7,0.4,1.3,0.8,1.7,1.5c-0.2,0.1-0.4,0.2-0.6,0.3c-2,1-1.6,4.4,0.2,4.5c0.2,0,0.5-0.1,0.7-0.1
		c0.2-0.4,0.4-0.9,0.4-1.3c-0.1,0.2-0.4,0.4-0.6,0.4c-0.4,0-0.7-0.5-0.7-1c0-0.6,0.3-1,0.7-1c0.3,0,0.5,0.2,0.7,0.5
		c0-0.5-0.2-1-0.4-1.4c0-0.1,0-0.1,0-0.2c0-0.1,0.1-0.1,0.2-0.1c0.6,0.2,1-0.4,1-0.4c0,0,0.1-0.1,0.1-0.1c0.1,0,0.1,0,0.1,0.1
		c0,0,0.4,0.7,1,0.4c0.1,0,0.2,0,0.2,0.1c0,0.1,0.1,0.1,0,0.2c-0.2,0.4-0.3,0.9-0.4,1.4c0.1-0.3,0.4-0.5,0.7-0.5
		c0.4,0,0.7,0.5,0.7,1c0,0.6-0.3,1-0.7,1c-0.2,0-0.5-0.2-0.6-0.4c0.1,0.5,0.2,0.9,0.4,1.3c0.3,0,0.5,0.1,0.7,0.1
		c1.8-0.1,2.2-3.5,0.2-4.5c-0.2-0.1-0.4-0.2-0.6-0.3c0.4-0.7,1-1.1,1.7-1.5c0.7-0.4,1.4-0.8,1.9-1.7c0.1-0.1,0-0.2-0.1-0.2
		c-0.1-0.1-0.2,0-0.2,0.1c-0.5,0.8-1.1,1.1-1.8,1.5c-0.7,0.4-1.4,0.8-1.9,1.7c-0.5-0.2-1-0.4-1.3-0.8c0,0,0,0-0.1,0
		c-0.3,0.4-0.8,0.6-1.3,0.8c-0.5-0.9-1.2-1.3-1.9-1.7c-0.7-0.4-1.3-0.8-1.8-1.5c-0.1-0.1-0.2-0.1-0.2-0.1c-0.1,0-0.1,0.2-0.1,0.2
		C89.4,36,90.1,36.4,90.8,36.8z"/>
	<path d="M108.9,51.1c0.1-0.2,0.1-0.9-0.1-1.2c-0.4-0.4-1.1-0.6-1.1-0.6s0.1-0.3-0.2-0.7c-0.4-0.4-2.8-1.7-3.3-1.9
		c-0.7-0.2-2.7-0.9-3.4-1c-0.2,0-0.6-0.1-1.1-0.2c-0.2-0.2-0.4-0.4-0.7-0.6c1.4-1.1,2.4-2.5,2.4-3c0-0.5-0.2-0.6-0.2-0.6
		s0.4-0.2,0.3-0.5c-0.3-0.7-0.3-2.2-0.3-2.2s0.3-0.3,0.8-0.2c-0.1-0.3-0.4-0.5-0.6-0.4c-0.2,0-0.4,0.1-0.5,0.3
		c-0.2,0.1-0.1,0.5-0.1,0.7c0,0.2,0,1.2-0.1,1.6c-0.2,0.6-0.2,0.9,0,1.1c-0.1,0.2-1.9,1.8-2.8,2.5c-0.7-0.4-1.6-0.6-2.9-0.6v0h-0.7
		c-0.1,0-0.1,0-0.2,0h-0.6v0c-1.3,0-2.2,0.2-2.9,0.6c-0.9-0.7-2.7-2.3-2.8-2.5c0.2-0.2,0.2-0.5,0-1.1c-0.1-0.4-0.1-1.3-0.1-1.6
		c0-0.2,0.1-0.6-0.1-0.7c-0.2-0.1-0.3-0.2-0.5-0.3c-0.2,0-0.5,0.1-0.6,0.4c0.5,0,0.8,0.2,0.8,0.2s-0.1,1.5-0.3,2.2
		c-0.1,0.3,0.3,0.5,0.3,0.5s-0.3,0.1-0.2,0.6c0,0.4,1,1.9,2.4,3c-0.2,0.2-0.4,0.4-0.7,0.6c-0.5,0.1-0.8,0.2-1.1,0.2
		c-0.7,0.1-2.7,0.8-3.4,1c-0.5,0.2-2.9,1.5-3.3,1.9c-0.3,0.4-0.2,0.7-0.2,0.7s-0.6,0.1-1.1,0.6c-0.3,0.2-0.2,0.9-0.1,1.2
		c0.1,0.2,0.4,0.2,0.4,0.2s-0.2-1.1,0.8-1.3c0.5-0.1,0.9,0,0.9,0s1.3-0.8,1.7-1c0.4-0.2,1.1-1.3,1.1-1.3s0.6,0.2,1.1,0.2
		c0.4,0,1.4-0.7,2-1.1L87.4,47l1.7,0.1c0.1,0,0.2,0,0.3,0c0.2,0,0.4,0,0.5,0c-1.8,1.9-3.5,3-5.1,4.1c-1.7,1.1-3.3,2.2-4.9,4
		c-1.6,1.8-2.1,3-1.8,3.8c0.3,0.6,1,0.8,2.1,0.8c3.2-0.1,5.2-0.7,5.8-1.8c-0.1,0.3-0.1,0.7-0.1,1.1c-0.9,1.4-1.3,2.5-1.6,3.5
		c-0.2,0.6,0,0.8,0.4,1.1c-0.3,0.7-0.2,1.3-0.7,1.6c-1,0.6-0.6,0.9-0.6,0.9l1-0.2l0.8-2.1c0,0,0.2,0,0.3-0.1c0.6-0.4,0.1-1.8,1.2-4
		c0.4,0.1,0.5-0.2,0.6-1.1c0-0.4,0.1-0.8,0.2-1.3c0.7-0.2,1.2-0.5,1.7-0.8c0.1,3.4,1.1,5.9,2,7.4c1,1.7,2.3,3,3.1,3
		c0.8,0,2.1-1.2,3.1-3c0.9-1.5,1.9-4,2-7.4c0.4,0.3,1,0.6,1.7,0.8c0.1,0.5,0.1,0.9,0.2,1.3c0.1,1,0.2,1.2,0.6,1.1
		c1,2.1,0.6,3.6,1.2,4c0.1,0.1,0.3,0.1,0.3,0.1l0.8,2.1l1,0.2c0,0,0.5-0.4-0.6-0.9c-0.4-0.2-0.4-0.9-0.7-1.6
		c0.4-0.3,0.5-0.5,0.4-1.1c-0.3-1-0.7-2-1.6-3.5c0-0.4,0-0.8-0.1-1.2c0.7,1.1,2.6,1.7,5.8,1.8c1.1,0,1.8-0.2,2.1-0.8
		c0.4-0.8-0.2-2-1.8-3.8c-1.7-1.9-3.2-2.9-4.9-4c-1.6-1.1-3.3-2.2-5.1-4.1c0.3,0,0.6,0,0.9,0l1.7-0.1l-0.1-0.2
		c0.6,0.4,1.6,1.1,2,1.1c0.5,0,1.1-0.2,1.1-0.2s0.7,1.1,1.1,1.3c0.4,0.2,1.7,1,1.7,1s0.4,0,0.9,0c0.9,0.1,0.8,1.3,0.8,1.3
		S108.8,51.3,108.9,51.1z M94.3,53.8c1,0,2,0,2.9,0.1l0.3,0c0,0.1,0.1,0.2,0.1,0.3c0.1,0.3,0.3,0.7,0.5,1c-2.6,0.4-5.1,0.4-7.7,0
		c0.2-0.3,0.3-0.6,0.5-1c0.1-0.1,0.1-0.2,0.1-0.3l0.3-0.1C92.3,53.8,93.3,53.8,94.3,53.8z M89.9,57.9c0-0.5-0.1-0.9-0.1-1.4
		c2.6,0.5,6.2,0.5,8.9,0c0,0.5,0,1-0.1,1.4C95.9,58.3,92.7,58.3,89.9,57.9z M98.5,59.2c-0.1,0.5-0.2,1-0.3,1.4
		c-2.5,0.3-5.3,0.3-7.8,0c-0.1-0.4-0.2-0.9-0.3-1.4C92.7,59.6,95.9,59.6,98.5,59.2z M81.6,59.2c0.3-1.1,1.2-3.2,3.2-5.4
		c0,0,0-0.1,0-0.1c0,0-0.1,0-0.1,0c-2.5,2.1-3.4,4.5-3.7,5.6c-0.3,0-0.5,0-0.8,0c-0.6,0-1.4,0-1.6-0.5c0-0.1-0.1-0.2-0.1-0.3
		c0-0.5,0.3-1.3,1.7-3c1.6-1.8,3.3-2.7,5-3.8c1.9-1.3,3.6-2.1,5.9-4.7c0,0.4-0.1,0.8-0.1,1.1c0,0.5,0,0.9,0.1,1.3
		c0,0.4,0.1,0.9,0.1,1.4c0,1-0.1,2.1-0.7,3.3c-0.7,1.5-1.5,2.8-4.2,3.1c0.5-1.9,1.5-4.1,2.6-5.3c0,0,0-0.1,0-0.1c0,0-0.1,0-0.1,0
		c-1.3,1.3-2.6,3.7-3,5.6c0,0,0,0,0,0C85.4,58.4,84,59,81.6,59.2z M94.3,66.4c-0.2,0-1-0.5-2-1.8c1.2,0.1,2.8,0.1,4,0
		C95.4,66,94.5,66.4,94.3,66.4z M97.1,63.3c-1.9,0.1-3.8,0.1-5.6,0c-0.2-0.4-0.4-0.9-0.6-1.4c2.1,0.2,4.8,0.2,6.9,0
		C97.5,62.4,97.3,62.9,97.1,63.3z M103.4,51.7c1.6,1.1,3.3,2,5,3.8c1.4,1.6,1.8,2.5,1.8,3c0,0.1,0,0.2-0.1,0.3
		c-0.2,0.4-1,0.5-1.6,0.5c-0.3,0-0.6,0-0.8,0c-0.3-1.1-1.3-3.5-3.7-5.6c0,0-0.1,0-0.1,0c0,0,0,0.1,0,0.1c2.1,2.2,3,4.4,3.2,5.4
		c-2.4-0.2-3.8-0.8-4.1-1.7c0,0,0,0,0-0.1c-0.5-1.9-1.7-4.3-3-5.6c0,0-0.1,0-0.1,0c0,0,0,0.1,0,0.1c1,1.2,2.1,3.5,2.6,5.3
		c-2.7-0.4-3.5-1.6-4.2-3.1c-0.5-1.2-0.7-2.3-0.7-3.3c0-0.5,0-0.9,0.1-1.4c0-0.4,0-0.9,0-1.3c0-0.2,0-0.7-0.1-1.1
		C99.7,49.7,101.4,50.5,103.4,51.7z"/>
	<path d="M94.3,31.7C82.5,31.7,73,41.2,73,52.8c0,11.6,9.6,21.1,21.4,21.1c11.8,0,21.4-9.5,21.4-21.1
		C115.7,41.2,106.1,31.7,94.3,31.7z M94.3,73.2c-11.4,0-20.6-9.1-20.6-20.4c0-11.2,9.2-20.4,20.6-20.4c11.4,0,20.6,9.1,20.6,20.4
		C114.9,64,105.7,73.2,94.3,73.2z"/>
	<path d="M93.9,101.6c0.1,0.1,0.2,0.2,0.4,0.2s0.3-0.1,0.4-0.2l2.3-2.3c0.2-0.2,0.2-0.5,0-0.7l-2.3-2.3c-0.1-0.1-0.2-0.1-0.4-0.1
		c-0.1,0-0.3,0.1-0.4,0.1l-2.3,2.3c-0.2,0.2-0.2,0.5,0,0.7L93.9,101.6z M94.3,96.7l2.2,2.2l-2.2,2.2l-2.2-2.2L94.3,96.7z"/>
	<path d="M79.4,34.1c-0.7,0.6-1.4,1.2-2,1.8c-1.6-1.2-2.5-2-2.6-2c-0.1-0.1-0.2-0.1-0.4-0.1c-0.2,0-0.4,0.1-0.5,0.2l-1.3,1.4
		c-0.2,0.3-0.2,0.6,0,0.9c0,0,0.9,0.8,2.3,2.2c-0.6,0.7-1.1,1.5-1.5,2.3c-1.8-0.8-3-1.2-3-1.2c-0.1,0-0.2-0.1-0.2-0.1
		c-0.2,0-0.5,0.1-0.6,0.4l-0.8,1.7c-0.2,0.3,0,0.7,0.3,0.8c0,0,1.1,0.6,2.8,1.5c-0.3,0.8-0.6,1.7-0.9,2.6c-2-0.3-3.2-0.4-3.2-0.4
		c0,0-0.1,0-0.1,0c-0.3,0-0.5,0.2-0.6,0.5l-0.4,1.9c-0.1,0.3,0.1,0.7,0.5,0.7c0,0,1.2,0.3,3.1,0.8c-0.1,0.9-0.2,1.8-0.2,2.7
		c-2,0.2-3.2,0.4-3.2,0.4c-0.3,0-0.6,0.3-0.5,0.7l0.1,1.9c0,0.3,0.3,0.6,0.6,0.6c0,0,0,0,0,0c0,0,1.2,0,3.2,0
		c0.1,0.9,0.3,1.8,0.6,2.7c-1.9,0.7-3,1.2-3,1.2c-0.3,0.1-0.5,0.5-0.4,0.8l0.6,1.8c0.1,0.3,0.3,0.4,0.6,0.4c0.1,0,0.1,0,0.2,0
		c0,0,1.2-0.3,3.1-0.9c0.4,0.8,0.8,1.6,1.2,2.4c-1.6,1.2-2.6,1.9-2.6,1.9c-0.1,0.1-0.2,0.2-0.2,0.4c0,0.2,0,0.3,0.1,0.5l1.1,1.6
		c0.1,0.2,0.3,0.3,0.5,0.3c0.1,0,0.2,0,0.3-0.1c0,0,1-0.6,2.8-1.6c0.6,0.7,1.2,1.4,1.8,2c-1.2,1.6-2,2.5-2,2.5
		c-0.2,0.3-0.2,0.6,0.1,0.8l1.5,1.3c0.1,0.1,0.3,0.2,0.4,0.2c0.2,0,0.3-0.1,0.4-0.2c0,0,0.9-0.9,2.2-2.3c0.8,0.6,1.5,1.1,2.4,1.5
		c-0.8,1.8-1.2,2.9-1.2,2.9c-0.1,0.1-0.1,0.3,0,0.4c0.1,0.2,0.2,0.3,0.3,0.4l1.7,0.8c0.1,0,0.2,0.1,0.3,0.1c0.2,0,0.4-0.1,0.5-0.3
		c0,0,0.6-1,1.6-2.8c0.8,0.3,1.7,0.6,2.6,0.9c-0.3,2-0.4,3.1-0.4,3.1c0,0.2,0,0.3,0.1,0.4c0.1,0.1,0.2,0.2,0.4,0.3L90,80
		c0,0,0.1,0,0.1,0c0.3,0,0.6-0.2,0.6-0.5c0,0,0.3-1.2,0.8-3.1c0.3,0,0.6,0.1,0.8,0.1V81c0,0.9-3.1,1.2-5.3,1.4l-0.8,0.1
		c-1.3,0.1-2.2,0.5-2.7,1.2c-0.4,0.6-0.4,1.2-0.4,1.2h0.1h22.1h0.1c0-0.1,0.1-0.6-0.4-1.2c-0.5-0.6-1.4-1-2.7-1.2l-0.8-0.1
		c-2.2-0.2-5.3-0.5-5.3-1.4v-0.3l-0.9,0.1c0,0-0.1,0-0.1,0c-0.6,0-1-0.4-1.1-1c0-0.1-0.2-1.3-0.4-3.2c0.2,0,0.3,0,0.5,0
		c0.2,2,0.4,3.1,0.4,3.1c0,0.3,0.3,0.5,0.6,0.5c0,0,0,0,0,0l1.9-0.1c0.2,0,0.3-0.1,0.4-0.2c0.1-0.1,0.2-0.3,0.1-0.4c0,0,0-1.2,0-3.2
		c0.9-0.1,1.9-0.3,2.7-0.6c0.7,1.8,1.2,2.9,1.2,2.9c0.1,0.2,0.3,0.4,0.6,0.4c0.1,0,0.1,0,0.2,0l1.8-0.6c0.2-0.1,0.3-0.2,0.4-0.3
		c0.1-0.1,0.1-0.3,0-0.4c0,0-0.3-1.2-0.9-3.1c0.8-0.4,1.7-0.8,2.4-1.2c1.2,1.6,1.9,2.5,1.9,2.5c0.1,0.2,0.3,0.3,0.5,0.3
		c0.1,0,0.3,0,0.4-0.1l1.6-1.1c0.1-0.1,0.2-0.2,0.3-0.4c0-0.2,0-0.3-0.1-0.4c0,0-0.6-1-1.7-2.7c0.7-0.6,1.4-1.2,2.1-1.8
		c1.6,1.2,2.5,1.9,2.5,2c0.1,0.1,0.2,0.1,0.4,0.1c0.2,0,0.4-0.1,0.5-0.2l1.3-1.4c0.1-0.1,0.2-0.3,0.2-0.5c0-0.2-0.1-0.3-0.2-0.4
		c0,0-0.9-0.8-2.3-2.2c0.6-0.7,1.1-1.5,1.5-2.3c1.8,0.8,3,1.2,3,1.2c0.1,0,0.2,0.1,0.2,0.1c0.2,0,0.5-0.1,0.6-0.4l0.8-1.7
		c0.2-0.3,0-0.7-0.3-0.8c0,0-1.1-0.6-2.8-1.5c0.3-0.8,0.6-1.7,0.9-2.6c2,0.3,3.2,0.4,3.2,0.4c0,0,0.1,0,0.1,0c0.3,0,0.5-0.2,0.6-0.5
		l0.4-1.9c0-0.2,0-0.3-0.1-0.5c-0.1-0.1-0.2-0.2-0.4-0.2c0,0-1.2-0.3-3.1-0.8c0.1-0.9,0.2-1.8,0.2-2.7c2-0.2,3.2-0.4,3.2-0.4
		c0.3,0,0.6-0.3,0.5-0.7l-0.1-1.9c0-0.3-0.3-0.6-0.6-0.6c0,0,0,0,0,0c0,0-1.2,0-3.2,0c-0.1-0.9-0.3-1.8-0.6-2.7c1.9-0.7,3-1.2,3-1.2
		c0.3-0.1,0.5-0.5,0.4-0.8l-0.6-1.8c-0.1-0.3-0.3-0.4-0.6-0.4c-0.1,0-0.1,0-0.2,0c0,0-1.2,0.3-3.1,0.9c-0.4-0.8-0.8-1.6-1.2-2.4
		c1.6-1.2,2.6-1.9,2.6-1.9c0.1-0.1,0.2-0.2,0.2-0.4c0-0.2,0-0.3-0.1-0.5l-1.1-1.6c-0.1-0.2-0.3-0.3-0.5-0.3c-0.1,0-0.2,0-0.3,0.1
		c0,0-1,0.6-2.8,1.6c-0.6-0.7-1.2-1.4-1.8-2c1.2-1.6,2-2.5,2-2.5c0.1-0.1,0.1-0.3,0.1-0.4c0-0.2-0.1-0.3-0.2-0.4l-1.5-1.3
		c-0.1-0.1-0.3-0.2-0.4-0.2c-0.2,0-0.3,0.1-0.4,0.2c0,0-0.9,0.9-2.2,2.3c-0.8-0.6-1.5-1.1-2.4-1.5c0.8-1.8,1.2-2.9,1.2-2.9
		c0.1-0.1,0.1-0.3,0-0.4c-0.1-0.2-0.2-0.3-0.3-0.4l-1.7-0.8c-0.1,0-0.2-0.1-0.3-0.1c-0.2,0-0.4,0.1-0.5,0.3c0,0-0.6,1-1.6,2.8
		c-0.8-0.3-1.7-0.6-2.6-0.8c0.3-2,0.4-3.1,0.4-3.2c0-0.2,0-0.3-0.1-0.4c-0.1-0.1-0.2-0.2-0.4-0.2l-1.9-0.4c0,0-0.1,0-0.1,0
		c-0.3,0-0.6,0.2-0.6,0.5c0,0-0.3,1.2-0.8,3.1c-0.3,0-0.6-0.1-0.9-0.1v-4.5c0-0.9,3.1-1.2,5.3-1.4l0.8-0.1c1.3-0.1,2.2-0.5,2.7-1.2
		c0.4-0.6,0.4-1.2,0.4-1.2h-0.1H83.3h-0.1c0,0.1-0.1,0.6,0.4,1.2c0.5,0.6,1.4,1,2.7,1.2l0.8,0.1c2.2,0.2,5.3,0.5,5.3,1.4v0.3
		l0.9-0.1c0,0,0.1,0,0.1,0c0.6,0,1.1,0.4,1.1,1c0,0.1,0.2,1.3,0.4,3.2c-0.2,0-0.3,0-0.5,0c-0.2-2-0.4-3.1-0.4-3.2
		c0-0.3-0.3-0.5-0.6-0.5c0,0,0,0,0,0l-1.9,0.1c-0.2,0-0.3,0.1-0.4,0.2c-0.1,0.1-0.2,0.3-0.1,0.4c0,0,0,1.2,0.1,3.2
		c-0.9,0.1-1.8,0.3-2.7,0.6c-0.8-1.8-1.2-2.9-1.2-2.9c-0.1-0.2-0.3-0.4-0.6-0.4c-0.1,0-0.1,0-0.2,0l-1.8,0.6
		c-0.3,0.1-0.5,0.5-0.4,0.8c0,0,0.3,1.2,0.9,3.1c-0.8,0.4-1.7,0.8-2.4,1.2c-1.2-1.6-1.9-2.5-2-2.5c-0.1-0.2-0.3-0.2-0.5-0.2
		c-0.1,0-0.3,0-0.4,0.1l-1.6,1.1c-0.1,0.1-0.2,0.2-0.3,0.4c0,0.2,0,0.3,0.1,0.4C77.7,31.4,78.4,32.4,79.4,34.1z M94.3,75
		c-12.4,0-22.5-10-22.5-22.2c0-12.3,10.1-22.2,22.5-22.2c12.4,0,22.5,10,22.5,22.2C116.8,65.1,106.7,75,94.3,75z"/>
	<path d="M72.6,102.3c-0.1,0-0.3,0.1-0.4,0.1l0,0l0,0c-0.2-1.2-0.5-2.3-0.6-3.3l0,0l0,0c0.2-0.1,0.3-0.1,0.5-0.1c0,0,0-0.2-0.1-0.3
		c-0.6,0.2-1.2,0.4-1.8,0.6l0,0c0,0.1,0,0.2,0.1,0.3l0.5-0.2l0,0c0.2,1,0.4,1.9,0.7,3.3v0l0,0c-0.1,0-0.3,0.1-0.4,0.2l0,0l0,0
		c0,0.1,0,0.2,0.1,0.3c0.6-0.2,1.2-0.4,1.7-0.6C72.7,102.5,72.6,102.4,72.6,102.3L72.6,102.3z"/>
	<path d="M75.9,99.6l0-0.2c-0.1-0.6-0.3-1-0.6-1.2c-0.2-0.2-0.5-0.3-0.8-0.3c-0.1,0-0.3,0-0.4,0c-0.4,0.1-0.8,0.3-1,0.6
		c-0.2,0.3-0.3,0.7-0.2,1.2c0,0.2,0.1,0.3,0.1,0.5l0.1,0.6c0,0.2,0.1,0.6,0.2,0.8c0.3,0.5,0.7,0.6,1.1,0.6c0.1,0,0.2,0,0.3,0
		c0.5-0.1,0.8-0.3,1.1-0.6c0.2-0.3,0.3-0.7,0.2-1.3C75.9,100.1,75.9,99.8,75.9,99.6z M74.7,101.5c0,0-0.1,0-0.1,0
		c-0.4,0-0.5-0.3-0.5-0.7c0-0.2-0.1-0.4-0.1-0.6l0-0.1c0-0.3-0.1-0.6-0.1-0.8v0c0-0.2-0.1-0.7,0.4-0.8c0.1,0,0.1,0,0.2,0
		c0.4,0,0.4,0.3,0.5,0.6l0,0c0.1,0.5,0.1,0.9,0.2,1.4C75.1,101,75.2,101.4,74.7,101.5z"/>
	<path d="M65.3,101.2c0.1,0.5,0.5,2.2,0.6,2.3l0,0l0,0h0c0,0-0.1,0-1.2-1.2c-0.2-0.2-0.4-0.4-0.5-0.5c-0.1,0-0.2,0.1-0.3,0.1
		c-0.2,0.1-0.4,0.2-0.5,0.2c0.3,1.4,0.6,2.6,1,3.9c0.2-0.1,0.5-0.2,0.7-0.3c0-0.2-0.6-2.5-0.6-2.5l0,0h0c0,0,0,0,0.9,0.9
		c0.5,0.5,0.9,0.9,1,1c0.2-0.1,0.4-0.2,0.7-0.3c-0.3-1.3-0.6-2.6-0.8-3.9C66,100.9,65.5,101.1,65.3,101.2z"/>
	<path d="M69.8,101.8c-0.2-0.2-0.4-0.3-0.7-0.3l-0.5,0c-0.3,0-0.6-0.1-0.6-0.4c0-0.1,0-0.3,0.3-0.5c0.1,0,0.1-0.1,0.2-0.1
		c0.1,0,0.1,0,0.2,0c0.2,0,0.4,0.1,0.5,0.3l0.6-0.6c-0.3-0.3-0.6-0.4-0.9-0.4c-0.1,0-0.3,0-0.5,0.1c-0.2,0-0.3,0.1-0.4,0.2
		c0,0,0,0,0,0l0,0c-0.5,0.3-0.7,0.8-0.7,1.3c0.1,0.8,0.7,0.9,1.3,1c0.7,0.1,0.8,0.1,0.9,0.4c0,0.3-0.2,0.5-0.3,0.5l0,0
		c-0.1,0-0.1,0.1-0.2,0.1c-0.1,0-0.2,0-0.2,0c-0.3,0-0.5-0.1-0.6-0.4l-0.6,0.6c0.3,0.3,0.6,0.5,0.9,0.5c0.2,0,0.4,0,0.6-0.1
		c0.1,0,0.3-0.1,0.4-0.2l0,0c0.1-0.1,0.2-0.2,0.3-0.2c0.5-0.5,0.4-1,0.4-1.2C70.1,102,69.9,101.8,69.8,101.8z"/>
	<path d="M51.3,107.4c-0.2,0.1-0.8,0.2-0.8,0.2c0.2,0.8,0.5,1.5,0.7,2.3l0.1,0.3c0.1,0.3,0.1,0.5,0,0.7c-0.1,0.2-0.3,0.2-0.3,0.2h0
		c-0.1,0-0.1,0-0.2,0c-0.4,0-0.6-0.5-0.6-0.7c-0.3-0.8-0.6-1.7-0.8-2.6c-0.3,0.1-0.6,0.1-0.9,0.2c0.3,0.9,0.6,1.9,0.8,2.6
		c0.1,0.4,0.3,0.8,0.8,1.1c0.2,0.1,0.4,0.2,0.7,0.2c0.2,0,0.3,0,0.5-0.1c0.4-0.1,0.7-0.3,0.8-0.6c0.3-0.4,0.1-1,0-1.2
		C51.8,109.2,51.6,108.3,51.3,107.4z"/>
	<path d="M54,107.2L54,107.2c0.1,0,0.7-0.3,0.9-0.3l-0.2-0.7c-1,0.4-1.8,0.7-2.7,1c0,0.1,0.2,0.5,0.2,0.7c0.2-0.1,0.3-0.1,0.4-0.1
		c0.2-0.1,0.3-0.1,0.5-0.2l0,0l0,0c0.3,1.1,0.6,2.1,0.9,3.2c0.2-0.1,0.7-0.3,0.8-0.3C54.6,109.3,54.3,108.2,54,107.2L54,107.2z"/>
	<path d="M59.3,104.9L59.3,104.9c0-0.2-0.2-0.6-0.2-0.7c-1.1,0.5-1.9,0.9-2.7,1.2c0,0.2,0.2,0.6,0.2,0.7l0.1-0.1
		c0.3-0.1,0.5-0.2,0.8-0.4l0,0l0,0c0.3,0.9,0.5,1.9,0.9,3.2c0.2-0.1,0.7-0.3,0.8-0.4c-0.3-1-0.6-2.1-0.9-3.2l0,0l0,0
		C58.4,105.3,59.1,104.9,59.3,104.9z"/>
	<path d="M63.3,105.7c-0.6,0.3-1.8,0.9-1.8,0.9l0,0l-0.1-0.4c0-0.2-0.1-0.4-0.1-0.6l0,0l0,0c0.2-0.1,0.9-0.4,1.1-0.5
		c0-0.1-0.1-0.5-0.2-0.7c-0.2,0.1-1.2,0.5-1.2,0.6l0,0l0-0.1c0-0.1-0.1-0.2-0.1-0.4l-0.1-0.4L61,104c0.5-0.3,1-0.5,1.6-0.8l-0.1-0.3
		c0-0.1-0.1-0.3-0.1-0.4c-0.4,0.2-0.9,0.4-1.3,0.6l0,0c-0.4,0.2-0.8,0.4-1.2,0.6c0.4,1.5,0.7,2.8,1,3.9l0.7-0.4
		c0.5-0.3,1.2-0.6,1.8-0.9l0-0.2C63.4,106,63.3,105.9,63.3,105.7z"/>
	<path d="M123.2,101.1c-0.6-0.3-1.8-0.8-1.9-0.8l-0.1,0.3c0.1,0,0.5,0.2,0.5,0.2l0,0l0,0l-1,3.3l0,0l-0.5-0.2l-0.1,0.3
		c0.6,0.2,1.2,0.5,1.9,0.8l0.1-0.3c-0.1-0.1-0.5-0.2-0.5-0.2l0,0l0,0c0.4-1.4,0.7-2.4,1-3.3l0,0l0,0c0.1,0,0.4,0.2,0.5,0.2
		L123.2,101.1z"/>
	<path d="M131,104.9c-0.4,0.5-1.8,2.4-1.8,2.4l0,0v0c0,0,0.1-2.4,0.1-3.2c-0.1,0-0.6-0.3-0.9-0.5c0,0.2,0,3.3-0.1,4.5
		c0.1,0,0.7,0.3,0.9,0.5l2.6-3.3C131.7,105.2,131.1,105,131,104.9z"/>
	<path d="M133.1,107.5l0.4-1.1l0,0l0.5,0.2l0.1-0.3l-1.8-0.7l-0.1,0.3l0.5,0.2l0,0l-1.2,3.3l0,0l-0.5-0.2c0,0-0.1,0.2-0.1,0.3
		c0.5,0.2,1.1,0.5,1.8,0.8l0.1-0.3l-0.5-0.2l0,0C132.5,108.9,132.8,108.2,133.1,107.5z"/>
	<path d="M125.2,102c-0.2-0.1-0.5-0.2-0.6-0.2h0c-0.5,0-0.9,0.3-1.1,1l-0.3,1.2c-0.2,0.8-0.1,1.1,0,1.3c0.2,0.3,0.4,0.6,0.9,0.8
		c0.1,0.1,0.4,0.1,0.6,0.1l0,0c0.1,0,0.2,0,0.3,0c0.4-0.1,0.5-0.4,0.6-0.5l0,0c0.1-0.1,0.1-0.2,0.2-0.4l-0.8-0.4
		c-0.1,0.4-0.3,0.6-0.5,0.6c-0.1,0-0.1,0-0.2,0c-0.5-0.2-0.4-0.6-0.3-0.9l0.4-1.5c0-0.1,0.1-0.3,0.3-0.4c0,0,0.1,0,0.2,0h0
		c0.1,0,0.1,0,0.2,0c0.2,0.1,0.4,0.3,0.3,0.8l0.8,0.4c0.1-0.4,0.2-0.8-0.1-1.2C125.7,102.3,125.3,102.1,125.2,102z"/>
	<path d="M135.6,107.5L135.6,107.5c0.1,0,0.1,0,0.2,0c0.3,0.1,0.5,0.4,0.5,0.6l0.8-0.2c-0.2-0.6-0.5-0.9-1.1-1.1
		c-0.2,0-0.3-0.1-0.5-0.1l0,0c-0.5,0-1,0.3-1.2,0.8c-0.3,0.8,0.2,1.2,0.7,1.6c0.5,0.4,0.7,0.5,0.6,0.8c-0.1,0.2-0.3,0.3-0.5,0.3
		c-0.1,0-0.1,0-0.2,0c-0.4-0.1-0.6-0.4-0.6-0.8l-0.8,0.2c0.1,0.8,0.5,1,1.2,1.2c0.1,0,0.3,0.1,0.4,0.1c0,0,0,0,0.1,0c0,0,0,0,0,0
		c0.1,0,0.2,0,0.3,0c0.7-0.2,0.9-0.7,0.9-0.9c0.1-0.4,0-0.7,0-0.7c-0.1-0.3-0.3-0.5-0.5-0.6l-0.4-0.3c-0.2-0.2-0.4-0.4-0.4-0.7
		C135.2,107.7,135.3,107.5,135.6,107.5z"/>
	<path d="M119.4,101.3L119,101c-0.2-0.2-0.4-0.4-0.3-0.6h0c0,0,0.1-0.3,0.4-0.3c0.1,0,0.1,0,0.2,0c0.3,0.1,0.5,0.3,0.5,0.6l0.8-0.2
		c-0.2-0.6-0.5-0.9-1-1c-0.1,0-0.3-0.1-0.4-0.1H119c-0.5,0-1,0.3-1.1,0.8c-0.3,0.8,0.2,1.2,0.6,1.6c0.5,0.4,0.6,0.5,0.5,0.8
		c-0.1,0.3-0.4,0.3-0.5,0.3h0c-0.1,0-0.1,0-0.2,0c-0.3-0.1-0.5-0.4-0.5-0.7l-0.8,0.2c0.1,0.7,0.4,1,1.1,1.2c0.1,0,0.3,0.1,0.4,0.1h0
		c0.1,0,0.3,0,0.3,0c0.6-0.2,0.8-0.7,0.9-0.9c0.1-0.4,0.1-0.7,0-0.7C119.8,101.7,119.7,101.5,119.4,101.3z"/>
	<path d="M144.9,103.5c-1.4-2.2-6.6-4.1-13.9-5.1c-0.2,0-0.2,0-0.2,0l-0.9,3.7l-0.1,0c-0.8-0.4-1.7-0.8-2.7-1.3
		c-6.6-3.3-11.7-5-14.8-5c-0.9,0-1.6,0.1-2.1,0.4c-0.6,0.3-1,0.9-1.1,1.6c-0.2,1.6-0.5,4.4-0.7,6.1l-0.1,0.5c0,0.2,0,0.3-0.1,0.4
		c0,0.1,0,0.2,0,0.3v0l0,0c-0.1,1.6,1.6,2.4,3.3,3.1c-0.9,0.3-1.9,0.6-3,0.9c-1.7-0.8-3.5-1.6-5.1-2.5c0.5-0.3,1-0.7,1.5-0.9
		c0.9-0.5,1.7-1,2.1-1.6c0.8-1.2,0.7-2.3-0.1-3c-0.2-0.1-0.4-0.3-0.6-0.4l0,0l0,0c-1-0.5-3.2-1.7-5.4-1.7c2.5-1.7,5-3.4,7.3-5.1
		c1.3,0.6,2.6,0.8,3.9,0.8c4.9,0,9.5-4,11-7.7c-0.7,0.6-2.2,0.7-3.9,0.8l0,0c-1.2,0.1-2.7,0.2-3.9,0.5c-0.3,0.1-0.5,0.2-0.8,0.3
		c0.7-0.7,1.4-1.3,2.1-2c0.9,0.2,1.8,0.4,2.7,0.4c5.6,0,9.5-4.8,10.2-8.3c-0.5,0.6-1.9,0.8-3.4,1.1c-1.2,0.2-2.5,0.4-3.6,0.9
		c-0.3,0.1-0.7,0.3-1,0.5c0.7-0.8,1.3-1.7,1.9-2.6c0.5,0.1,1,0.1,1.5,0.1h0c1.5,0,3-0.3,4.3-1c0,0,0,0,0,0c0,0,0,0,0,0l0,0
		c0,0,0.1,0,0.1,0c0.1,0,0.1-0.1,0.2-0.1c0,0,0,0,0,0c0,0,0,0,0,0c2.1-1.2,3.9-3.2,5-5.5c0.3-0.8,0.6-1.7,0.7-2.4
		c-0.5,0.7-1.8,1-3.3,1.4c-1.1,0.3-2.4,0.6-3.5,1.2c-0.9,0.4-1.7,1.1-2.4,1.8c0.5-1,1-2.1,1.5-3.2c0.2,0,0.4,0,0.6,0
		c2.4,0,4.7-1.3,6.2-3.5c0.7-1,1.1-2.1,1.5-3.1c0.5-1.2,0.9-2.3,1.8-3.1c-1,0-3.4,0.2-5.8,1.8c-1,0.7-1.9,1.5-2.6,2.5
		c0.3-1,0.5-2,0.7-3c2.7-0.2,5.1-2,6.2-4.8c0.5-1.2,0.6-2.2,0.8-3.3l0,0c0.2-1.2,0.4-2.3,1-3.4c-0.9,0.2-3.2,0.9-5.2,2.9
		c-1,1-1.8,2.3-2.3,3.7c0.1-1.2,0.1-2.4,0-3.7c2.2-0.9,3.8-2.5,4.7-4.6c1.1-2.8,0.7-5.7-0.1-7.3c-0.1,0.6-0.8,1.3-1.6,2l0,0
		c-0.7,0.6-1.5,1.3-2,2.1c-0.8,1.1-1.1,2.6-1.2,4.2c-0.1-1.3-0.4-2.7-0.6-4.1c1.9-1.4,3.1-3.3,3.4-5.5c0.4-2.9-0.8-5.5-1.9-6.9
		c0.1,0.6-0.4,1.4-1,2.3c-0.5,0.8-1.1,1.6-1.4,2.5c-0.3,0.7-0.4,1.5-0.3,2.3c-0.3-0.9-0.6-1.8-0.9-2.8c1.7-1.6,2.6-3.5,2.7-5.7
		c0.1-2.9-1.4-5.4-2.7-6.7c0.2,0.6-0.2,1.4-0.7,2.4c-0.4,0.8-0.9,1.7-1.1,2.6c-0.2,0.8-0.2,1.7,0,2.6c-0.4-0.9-0.8-1.8-1.2-2.7
		c1.4-1.5,2-3.4,1.8-5.3c-0.2-2.7-1.8-5-3.2-6.1c0.2,0.5,0,1.4-0.4,2.4l0,0c-0.2,0.7-0.5,1.6-0.6,2.4c-0.1,0.9,0,1.8,0.3,2.7
		c-0.2-0.3-0.3-0.6-0.5-0.9c-0.3-2.9-1.4-4.9-3.4-6.3c-1-0.7-2-1-2.9-1.3c-1.1-0.4-1.9-0.7-2.3-1.3c-0.3,2.3,0.8,5.5,3.4,6.8
		c0.8,0.4,1.6,0.7,2.2,1c1.1,0.5,2,0.9,2.6,1.4c0.6,1.1,1.2,2.2,1.7,3.3c-0.1-0.1-0.2-0.2-0.3-0.3c-0.1-0.1-0.2-0.2-0.3-0.2
		c-0.8-0.7-1.8-1.2-2.8-1.7l0,0c-1.2-0.6-2.3-1.2-2.5-1.8c-0.4,1.7,0,4.4,1.8,6.6c1.1,1.4,3.2,3.1,6.7,3.3c0.6,1.6,1.2,3.1,1.6,4.6
		c-0.6-0.8-1.5-1.5-2.2-2.1l0,0c-1-0.9-1.9-1.7-2-2.3c-0.7,1.5-1,4,0.1,6.5c0.7,1.7,2.3,3.9,5.8,5c0.3,1.7,0.5,3.3,0.6,4.9
		c0,0,0-0.1,0-0.1c-0.5-0.9-1.2-1.8-1.9-2.6c-0.9-1-1.6-2-1.6-2.6c-1.1,1.4-1.8,4-1.2,6.8c0.4,1.7,1.5,4.1,4.6,5.8
		c-0.2,1.5-0.4,3-0.7,4.5c-0.2-0.8-0.5-1.6-0.8-2.3l0,0c-0.5-1.3-0.9-2.4-0.7-3c-1.7,1.1-3.5,3.6-3.7,6.6c-0.1,1.7,0.2,4.2,2.6,6.6
		c-0.8,1.9-1.8,3.7-2.9,5.5c0.1-0.3,0.2-0.6,0.2-0.9c0.2-1.2,0.1-2.5,0.1-3.7c-0.1-1.5-0.1-2.8,0.3-3.4c-2,0.8-4.5,3-5.7,6.1
		c-0.7,1.9-1.2,4.8,0.5,8.1c-1.3,1.5-2.6,2.9-4.1,4.3c0.4-0.6,0.7-1.2,0.9-1.8c0.4-1.2,0.6-2.6,0.8-3.8l0,0c0.2-1.7,0.4-3.1,1.1-3.8
		c-1.7,0.6-3.5,1.7-5,3.2c0,0,0,0,0,0l0,0c-0.1,0.1-0.1,0.1-0.2,0.2c0,0,0,0,0,0l0,0c-0.1,0.1-0.1,0.1-0.2,0.2c0,0,0,0,0,0
		c0,0,0,0,0,0c-0.8,0.9-1.5,1.9-2,2.9c-1.1,2.4-1.3,4.9-0.5,7.3c-3.1,2.5-6.6,4.9-10.2,7.1v-2.3c0,0,0,0,0,0l0,0
		c0.3-0.9,1.5-1.4,2.8-1.9c0.9-0.3,1.8-0.7,2.5-1.2c0.8-0.7,1.3-1.4,1.4-2.1c0.1-1-0.5-1.6-0.5-1.7c-0.1-0.1-0.2-0.2-0.3-0.2l0,0
		c-1-0.9-4.9-2.1-6.4-2.1c-0.1,0-0.1,0-0.2,0c-0.9,0.1-1.7,0.3-2.4,0.5c-0.6,0.2-1.2,0.4-1.8,0.4c-0.6,0-1.3-0.2-1.9-0.4
		c-0.7-0.2-1.4-0.4-2.4-0.5c0,0-0.1,0-0.1,0c-1.4,0-5.4,1.2-6.4,2.1l0,0c-0.1,0.1-0.2,0.2-0.3,0.3c0,0-0.6,0.7-0.5,1.6
		c0.1,0.8,0.5,1.5,1.4,2.1c0.7,0.6,1.6,0.9,2.5,1.2c1.2,0.5,2.3,0.9,2.6,1.7l0,0c0,0.1,0,0.1,0,0.2v2.3c-3.6-2.3-7.1-4.6-10.2-7.1
		c0.8-2.4,0.7-4.9-0.5-7.3c-0.5-1-1.2-2-2-2.9c0,0,0,0,0,0c0,0,0,0,0,0c-0.1-0.1-0.1-0.1-0.2-0.2l0,0c0,0,0,0,0,0
		c-0.1-0.1-0.1-0.1-0.2-0.2l0,0c0,0,0,0,0,0c-1.5-1.5-3.3-2.6-5-3.2c0.7,0.7,0.8,2.1,1.1,3.8v0c0.2,1.2,0.3,2.6,0.8,3.8
		c0.2,0.6,0.5,1.2,0.9,1.8c-1.5-1.4-2.8-2.9-4.1-4.3c1.6-3.3,1.2-6.2,0.5-8.1c-1.2-3.2-3.7-5.4-5.7-6.1c0.5,0.6,0.4,1.9,0.3,3.4
		c-0.1,1.2-0.1,2.5,0.1,3.7c0,0.3,0.1,0.6,0.2,0.9c-1.1-1.8-2.1-3.6-2.9-5.5c2.4-2.4,2.7-4.9,2.6-6.6c-0.2-3-2-5.5-3.7-6.6
		c0.3,0.6-0.2,1.7-0.7,3l0,0c-0.3,0.7-0.6,1.5-0.8,2.3c-0.3-1.5-0.6-2.9-0.7-4.5c3-1.7,4.2-4,4.6-5.8c0.6-2.7-0.1-5.4-1.2-6.8
		c0,0.7-0.7,1.6-1.6,2.6c-0.7,0.8-1.4,1.7-1.9,2.6c0,0,0,0.1,0,0.1c0.1-1.6,0.3-3.2,0.6-4.9c3.5-1.1,5.1-3.3,5.8-5
		c1.1-2.5,0.8-5,0.1-6.5c-0.1,0.6-1,1.4-2,2.3l0,0c-0.7,0.6-1.6,1.4-2.2,2.1c0.5-1.5,1-3.1,1.6-4.6c3.5-0.1,5.5-1.8,6.7-3.3
		c1.8-2.2,2.2-4.9,1.8-6.6c-0.3,0.6-1.3,1.2-2.5,1.8l0,0c-0.9,0.5-1.9,1-2.8,1.7c-0.1,0.1-0.2,0.2-0.3,0.2c-0.1,0.1-0.2,0.2-0.3,0.3
		c0.5-1.1,1.1-2.2,1.7-3.3c0.6-0.5,1.5-0.9,2.6-1.4c0.6-0.3,1.4-0.6,2.2-1c2.7-1.3,3.8-4.5,3.4-6.8c-0.4,0.7-1.2,0.9-2.3,1.3
		c-0.9,0.3-1.9,0.7-2.9,1.3c-2,1.4-3.2,3.4-3.4,6.3c-0.2,0.3-0.3,0.6-0.5,0.9c0.3-0.9,0.4-1.9,0.3-2.7c-0.1-0.8-0.4-1.7-0.6-2.4l0,0
		c-0.3-1-0.6-1.8-0.4-2.4c-1.4,1.1-3,3.4-3.2,6.1c-0.1,1.9,0.5,3.8,1.8,5.3c-0.4,0.9-0.8,1.8-1.2,2.7c0.2-0.9,0.2-1.8,0-2.6
		c-0.2-1-0.7-1.8-1.1-2.6c-0.5-1-0.9-1.8-0.7-2.4c-1.3,1.3-2.8,3.8-2.7,6.7c0,2.2,1,4.1,2.7,5.7c-0.3,0.9-0.6,1.9-0.9,2.8
		c0-0.8-0.1-1.6-0.3-2.3c-0.3-0.9-0.9-1.8-1.4-2.5c-0.6-0.9-1.1-1.7-1-2.3c-1.1,1.4-2.3,4-1.9,6.9c0.3,2.2,1.5,4.1,3.4,5.5
		c-0.3,1.4-0.5,2.7-0.6,4.1c-0.1-1.6-0.4-3.1-1.2-4.2c-0.6-0.8-1.4-1.5-2-2.1l0,0c-0.8-0.8-1.6-1.4-1.6-2c-0.7,1.7-1.2,4.6-0.1,7.3
		c0.9,2.1,2.5,3.6,4.7,4.6c0,1.2,0,2.5,0,3.7c-0.5-1.4-1.3-2.6-2.3-3.7c-2-2.1-4.3-2.7-5.2-2.9c0.6,1,0.8,2.2,1,3.4l0,0
		c0.2,1,0.4,2.1,0.8,3.3c1.1,2.8,3.5,4.6,6.2,4.8c0.2,1,0.4,2,0.7,3c-0.7-1-1.6-1.8-2.6-2.5c-2.4-1.6-4.8-1.8-5.8-1.8
		c0.9,0.9,1.3,2,1.8,3.1c0.4,1,0.8,2,1.6,3.1c1.5,2.2,3.8,3.5,6.2,3.5c0.2,0,0.4,0,0.6,0c0.4,1.1,0.9,2.1,1.5,3.2
		c-0.7-0.7-1.5-1.3-2.3-1.8c-1.1-0.5-2.4-0.9-3.5-1.2c-1.5-0.4-2.8-0.7-3.3-1.4c0.1,0.8,0.3,1.6,0.7,2.4c1,2.3,2.8,4.3,5,5.5
		c0,0,0,0,0,0c0,0,0,0,0,0c0.1,0,0.1,0.1,0.2,0.1c0,0,0.1,0,0.1,0l0,0c0,0,0,0,0,0c0,0,0,0,0,0c1.4,0.7,2.8,1,4.3,1h0
		c0.5,0,1,0,1.5-0.1c0.6,0.9,1.2,1.7,1.9,2.6c-0.3-0.2-0.6-0.3-1-0.5c-1.1-0.4-2.4-0.7-3.6-0.9c-1.5-0.3-2.9-0.5-3.4-1.1
		c0.7,3.5,4.6,8.3,10.2,8.3c0.9,0,1.8-0.1,2.7-0.4c0.7,0.7,1.4,1.4,2.1,2c-0.3-0.1-0.5-0.2-0.8-0.3c-1.2-0.3-2.7-0.4-3.9-0.5l0,0
		c-1.7-0.1-3.2-0.2-3.9-0.8c1.5,3.7,6.1,7.7,11,7.7c1.3,0,2.6-0.3,3.9-0.8c2.3,1.8,4.7,3.5,7.2,5.1c-2,0-4.1,1.1-5.3,1.7l0,0l0,0
		c-0.2,0.1-0.4,0.2-0.6,0.3c-0.8,0.7-0.9,1.9-0.1,3c0.4,0.6,1.2,1.1,2.1,1.6c0.5,0.3,1,0.6,1.4,0.9c-1.7,0.8-3.5,1.7-5.2,2.5
		c-1.1-0.3-2.1-0.6-3-0.9c1.8-0.7,3.6-1.6,3.2-3.5c0-0.1,0-0.2,0-0.4c-0.2-1.7-0.6-4.9-0.7-6.6c-0.1-0.7-0.4-1.3-1.1-1.6
		c-0.5-0.3-1.2-0.4-2.1-0.4c-3.1,0-8.2,1.7-14.8,5c-1,0.5-1.9,0.9-2.7,1.3l-0.1,0L58,98.3l-0.3,0c-7.3,1-12.5,3-13.9,5.1
		c-0.4,0.6-0.5,1.3-0.3,1.9c0,0,0,0,0,0.1h0l2.1,6.9c0.2,0.7,0.7,1.1,1.3,1.4c0.5,0.2,1.1,0.3,1.9,0.3c3,0,7.9-1.7,14.3-5
		c3.7-1.9,6.9-3.3,9.5-4.2c0.1,2,0.2,4.2,0.2,6.1v0h0c0,0.1,0,0.1,0,0.2c0,0.4,0.1,0.7,0.2,1c-1.2,0.5-2.3,1-3.5,1.5
		c0.8,0.1,1.7,0.6,2.6,0.7c0.6-0.2,1.1-0.5,1.7-0.8c0.5,0.6,1.2,1.1,2,1.6c1.7,1,4,1.8,7,2.4c0.3,0.8,0.8,1.6,1.3,2.5l0.4,0.7
		l0.2-0.8c0.2-0.8,0.5-1.4,0.9-1.9c2.8,0.4,5.9,0.7,8.7,0.7l0,0h0h0l0,0c2.9,0,6-0.3,8.8-0.7c0.4,0.5,0.8,1.1,0.9,1.9l0.2,0.8l0,0.1
		l0.4-0.7c0.6-1,1-1.8,1.3-2.5c2.9-0.6,5.2-1.4,6.9-2.4c0.8-0.5,1.5-1,2-1.6c0.6,0.3,1.1,0.5,1.7,0.8c0.9-0.1,1.8-0.6,2.6-0.7
		c-1.2-0.5-2.3-1-3.5-1.5c0.1-0.3,0.2-0.7,0.2-1c0-0.1,0-0.2,0-0.3c0-2.2,0-4.2,0.1-6c2.6,0.9,5.9,2.3,9.6,4.2
		c6.4,3.3,11.3,5,14.3,5c0.7,0,1.4-0.1,1.9-0.3c0.7-0.3,1.1-0.8,1.3-1.4l2.1-6.9l0,0h0c0,0,0,0,0-0.1
		C145.4,104.7,145.3,104.1,144.9,103.5z M130.9,50.1c0.1-1.3,0.4-2.4,0.8-3.3c0.5-1,1.4-1.8,2.1-2.5l0,0c0.5-0.4,0.9-0.8,1.1-1.1
		l0-0.1l0,0.1c0.1,0.5,0.5,2.3-0.1,4.4c-0.3,1-0.7,1.9-1.3,2.7c-0.7,0.9-1.6,1.7-2.6,2.3c1-1.4,2.1-4.1,2.3-5
		c-0.5,0.9-1.8,3.3-2.5,4.3C130.8,51.4,130.8,50.8,130.9,50.1z M126.1,31.3c0.1-1.1,0.6-2.1,1-3l0,0c0.3-0.5,0.5-1,0.6-1.4l0-0.1
		l0,0c0.3,0.4,1.3,2,1.6,4c0.1,1,0.1,2-0.2,2.9c-0.3,1.1-0.8,2.1-1.6,3.1c0.5-1.5,0.5-4.8,0.3-5.9c-0.1,1-0.3,3.6-0.8,5.1
		c-0.2-0.4-0.4-1-0.6-1.6C126.2,33.4,126.1,32.2,126.1,31.3z M119.4,30.8c-1-1.5-1.4-3.2-1.5-4.2v-0.1l0,0c0.4,0.4,1.1,0.7,1.8,1.1
		l0,0c1,0.5,2.1,1,2.8,1.8c0.7,0.7,1.3,1.6,1.8,2.6c0.4,0.8,0.6,1.5,0.7,1.9c-1.3-0.9-4-3.3-4.3-3.7c0.6,1,2.7,3,3.7,3.9
		c-1.1-0.2-2.1-0.6-2.9-1.2C120.7,32.4,120,31.7,119.4,30.8z M125.8,80.3c1-0.2,1.9-0.3,2.5-0.6l0.1,0l0,0.1
		c-0.3,0.6-1.2,2.3-2.7,3.7c-0.8,0.8-1.7,1.4-2.7,1.8c-1.2,0.5-2.4,0.8-3.7,0.8c-0.3,0-0.6,0-0.8,0c2.4-0.9,5.4-3,5.8-3.3
		c-0.8,0.4-4.6,2.4-6.5,3c0.3-0.4,0.8-1.2,1.5-1.9c0.9-1,1.9-1.7,2.9-2.3C123,80.8,124.5,80.6,125.8,80.3z M128.1,72.8
		c1-0.7,2.2-1,3.4-1.3l0,0c1-0.2,1.9-0.5,2.5-0.9l0.1,0l0,0.1c-0.5,1.1-1.4,2.8-2.8,4.2c-1.9,1.9-4.1,2.8-6.6,2.8
		c-0.1,0-0.2,0-0.3,0c2.1-1,5.2-3.1,5.9-3.8c-1.6,0.9-4.4,2.5-6.2,3.3c0.3-0.4,0.7-1.1,1.3-1.8C126.2,74.4,127.2,73.5,128.1,72.8z
		 M130,65.3c0.7-0.9,1.6-1.6,2.5-2.2c1.1-0.7,2.3-1.1,3.5-1.4l0.1,0l0,0.1c-0.2,0.2-0.3,0.7-0.5,1.2l0,0c-0.5,1.2-1.2,2.9-2.4,4.3
		c-0.7,0.8-1.4,1.4-2.3,1.8c-0.9,0.5-1.9,0.7-3,0.8c1.7-1.1,4.1-3.6,5.3-5.3c-1.1,1.1-4.1,3.8-5.3,4.7c0.3-0.7,0.5-1.4,0.7-2.1
		C129,66.6,129.5,66,130,65.3z M130.8,58.2L130.8,58.2L130.8,58.2C130.8,58.2,130.8,58.2,130.8,58.2L130.8,58.2
		c0.3-0.8,0.6-1.5,1.1-2.3l0,0c0,0,0,0,0,0l0,0l0,0h0.1c0.5-0.7,1-1.4,1.6-2c0.9-0.9,1.9-1.6,3.1-2.1l0.1,0l0,0.1
		c-0.1,0.3-0.2,0.7-0.2,1.2l0,0c-0.2,1.2-0.5,3.1-1.4,4.7c-0.5,0.9-1.1,1.7-1.8,2.3c-0.8,0.7-1.8,1.2-3,1.5c1.3-1.2,2.9-3.8,3.4-4.9
		c-0.8,0.9-2.2,2.9-3.4,3.9c0-0.4,0.1-0.9,0.2-1.4C130.6,58.9,130.7,58.6,130.8,58.2z M129.1,39.2c0.2-1.1,0.9-2.1,1.4-2.9l0,0
		c0.3-0.5,0.6-1,0.8-1.3l0-0.1l0,0.1c0.2,0.5,1,2.1,1,4.2c0,1-0.2,2-0.5,2.9c-0.4,1-1,1.9-1.8,2.7c0.5-1.7,1-5,0.9-5.6
		c-0.2,1.1-0.9,3.7-1.4,5.1c-0.1-0.5-0.3-1.1-0.4-1.8C129,41.3,129,40.2,129.1,39.2z M123.2,21.6L123.2,21.6c0.2-0.5,0.3-1,0.3-1.3
		v-0.1l0,0.1c0.3,0.4,1.4,1.7,1.8,3.6c0.2,0.9,0.3,1.8,0.2,2.7c-0.1,1-0.5,2-1.1,2.9c0.2-1.8-0.3-5.4-0.3-5.4s-0.1,3.3-0.2,4.6
		c-0.2-0.4-0.4-0.8-0.5-1.3c-0.4-1-0.6-2.1-0.6-3C122.6,23.4,122.9,22.4,123.2,21.6z M119.8,24.1c-0.8-0.3-1.8-0.7-3-1.3
		c-1-0.5-1.7-1.3-2.2-2.2c-0.4-0.7-0.6-1.6-0.7-2.5l0-0.1l0,0c0.1,0.1,0.4,0.2,0.8,0.3l0,0c0.7,0.2,1.8,0.6,3.1,1.3
		c0.5,0.3,0.9,0.6,1.4,1.1c0.4,0.4,0.7,0.8,1,1.3c0.5,0.8,0.8,1.7,0.9,2.4c-1-1.4-3.7-3.3-3.7-3.3s2,1.8,3,3.1
		C120.2,24.2,120,24.2,119.8,24.1L119.8,24.1z M125.4,43.6c-0.7-0.7-1.2-1.6-1.6-2.6c-0.8-2.1-0.5-4-0.4-4.3l0-0.1l0,0
		c0.3,0.5,0.9,0.9,1.5,1.4l0,0c0.8,0.7,1.8,1.4,2.3,2.4c0.5,0.9,0.9,1.8,1.1,2.9c0.2,0.7,0.2,1.3,0.2,1.8c-1-1.1-2.8-3.6-3.2-4.3
		c0.5,1.5,1.9,3.7,2.9,4.7C127.1,45.1,126.2,44.4,125.4,43.6z M126.7,55.1c-0.6-0.9-0.9-1.9-1.1-3c-0.1-0.9-0.1-1.8,0-2.7
		c0.1-0.7,0.3-1.3,0.5-1.8l0-0.1l0,0.1c0.2,0.5,0.7,1.1,1.2,1.7l0,0c0.7,0.8,1.5,1.8,1.9,2.8c0.3,0.8,0.5,1.8,0.5,2.7
		c0,0.8,0,1.7-0.1,2.5c-0.8-1.1-2-3.8-2.4-5c0.1,1.2,1.2,3.7,1.9,5.1C128.1,56.8,127.3,56,126.7,55.1z M124.6,63.6
		c0.2-0.9,0.5-1.8,1-2.6c0.3-0.6,0.8-1.2,1.2-1.6l0,0l0,0.1c0.1,0.6,0.4,1.3,0.7,2c0.4,1,0.9,2.1,0.9,3.3c0,0.2,0,0.5,0,0.7
		c-0.4,1.5-0.9,3-1.5,4.5c-0.4-1.9-0.6-6-0.5-6.8c-0.4,1.8-0.3,5,0,6.8c-0.8-1-1.3-2-1.6-3.1C124.4,65.7,124.4,64.7,124.6,63.6z
		 M118.5,77.5c0.1-1.2,0.4-2.4,1-3.6c1-2,2.5-3.5,3.4-4.2l0.1,0l0,0.1c-0.1,0.5-0.1,1.3,0,2.1c0.1,1.4,0.1,2.9-0.3,4.2
		c-0.3,1.1-0.9,2.3-1.7,3.4c-0.5,0.7-1,1.3-1.3,1.8c0-1.8,0.9-5.2,1.1-6.4c-0.5,0.9-1.5,4.4-1.7,6.7
		C118.6,80.2,118.4,78.8,118.5,77.5z M66,29.5c0.7-0.8,1.8-1.3,2.8-1.8l0,0c0.7-0.4,1.4-0.7,1.8-1.1l0,0v0.1c0,1-0.5,2.7-1.5,4.2
		c-0.6,0.9-1.3,1.6-2.2,2.2c-0.9,0.6-1.8,0.9-2.9,1.2c1-0.9,3.1-2.8,3.7-3.9c-0.4,0.4-3,2.8-4.3,3.7c0.1-0.4,0.4-1.1,0.7-1.9
		C64.7,31.1,65.3,30.2,66,29.5z M59.5,33.9c-0.2-0.9-0.3-1.9-0.2-2.9c0.3-2.1,1.3-3.6,1.6-4l0,0l0,0.1c0.1,0.4,0.3,0.8,0.6,1.4l0,0
		c0.4,0.8,1,1.9,1,3c0,1-0.1,2.1-0.4,3.3c-0.2,0.6-0.4,1.2-0.6,1.6c-0.5-1.5-0.7-4.1-0.8-5.1c-0.2,1.1-0.1,4.3,0.3,5.9
		C60.3,36,59.8,34.9,59.5,33.9z M55,50.4c-0.6-0.8-1-1.7-1.3-2.7c-0.5-2.1-0.2-3.9-0.1-4.4l0-0.1l0,0.1c0.2,0.3,0.6,0.7,1.1,1.1l0,0
		c0.7,0.6,1.6,1.5,2.1,2.5c0.4,0.9,0.7,2,0.8,3.3c0.1,0.7,0.1,1.3,0.1,1.8c-0.8-1-2-3.4-2.5-4.3c0.3,0.9,1.3,3.6,2.3,5
		C56.5,52,55.7,51.3,55,50.4z M65.7,69.8L65.7,69.8L65.7,69.8c1,0.7,2.5,2.2,3.5,4.1c0.6,1.2,0.9,2.4,1,3.6c0.1,1.4-0.1,2.8-0.7,4.1
		c-0.2-2.3-1.2-5.8-1.7-6.7c0.3,1.1,1.1,4.6,1.1,6.4c-0.4-0.4-0.8-1-1.3-1.8c-0.8-1.1-1.3-2.3-1.7-3.4c-0.4-1.3-0.3-2.8-0.3-4.2
		C65.7,71.1,65.8,70.3,65.7,69.8z M60.3,64.6c0-1.1,0.5-2.3,0.9-3.3c0.3-0.7,0.6-1.4,0.7-2l0-0.1l0,0c0.4,0.4,0.8,1,1.2,1.6
		c0.5,0.8,0.8,1.7,1,2.6c0.2,1.1,0.2,2.2-0.1,3.2c-0.3,1.1-0.8,2.1-1.6,3.1c0.3-1.8,0.4-5.1,0-6.8c0.1,0.9,0,4.9-0.5,6.8
		c-0.6-1.5-1.1-3-1.5-4.5C60.3,65,60.3,64.8,60.3,64.6z M59.4,52.2c0.4-1,1.2-2,1.9-2.8l0,0c0.5-0.6,1-1.1,1.2-1.7l0-0.1l0,0.1
		c0.2,0.5,0.4,1.2,0.5,1.8c0.1,0.9,0.1,1.8,0,2.7c-0.2,1.1-0.5,2.1-1.1,3c-0.6,0.9-1.4,1.7-2.3,2.4c0.7-1.4,1.7-3.9,1.9-5.1
		c-0.4,1.2-1.7,3.9-2.4,5c-0.1-0.8-0.1-1.7-0.1-2.5C58.9,53.9,59.1,53,59.4,52.2z M63.7,38.1L63.7,38.1c0.6-0.5,1.2-1,1.5-1.4l0,0
		l0,0.1c0.1,0.3,0.4,2.2-0.4,4.3c-0.4,1-0.9,1.9-1.6,2.6c-0.8,0.8-1.7,1.5-2.9,2c1-1.1,2.4-3.2,2.9-4.7c-0.4,0.7-2.3,3.3-3.2,4.3
		c0-0.4,0.1-1.1,0.2-1.8c0.2-1.1,0.6-2.1,1.1-2.9C61.9,39.6,62.8,38.8,63.7,38.1z M69.5,20.7c0.4-0.4,0.9-0.8,1.4-1.1
		c1.4-0.7,2.4-1.1,3.1-1.3l0,0c0.3-0.1,0.6-0.2,0.8-0.3l0.1,0l0,0.1c-0.1,1-0.3,1.8-0.7,2.5c-0.5,0.9-1.2,1.7-2.2,2.2
		c-1.2,0.7-2.2,1-3,1.3l0,0c-0.2,0.1-0.4,0.1-0.6,0.2c1-1.3,3-3.1,3-3.1s-2.7,1.8-3.7,3.3c0.1-0.7,0.4-1.6,0.9-2.4
		C68.7,21.6,69.1,21.1,69.5,20.7z M63.3,23.9c0.5-1.9,1.5-3.2,1.8-3.6l0-0.1v0.1c0,0.3,0.2,0.8,0.3,1.3l0,0c0.3,0.8,0.6,1.8,0.5,2.8
		c-0.1,0.9-0.3,2-0.6,3c-0.2,0.4-0.3,0.9-0.5,1.3c-0.1-1.3-0.2-4.6-0.2-4.6s-0.5,3.7-0.3,5.4c-0.6-0.9-1-1.9-1.1-2.9
		C63,25.7,63.1,24.8,63.3,23.9z M56.8,42.1c-0.4-0.9-0.5-1.9-0.5-2.9c0-2.1,0.8-3.8,1-4.2l0-0.1l0,0.1c0.1,0.4,0.4,0.8,0.8,1.3l0,0
		c0.5,0.8,1.2,1.8,1.4,2.9c0.2,1,0.2,2.1,0,3.3c-0.1,0.7-0.3,1.4-0.4,1.8c-0.5-1.4-1.2-4-1.4-5.1c0,0.6,0.4,3.9,0.9,5.6
		C57.8,44.1,57.2,43.1,56.8,42.1z M53.6,57.9c-0.9-1.6-1.2-3.5-1.4-4.7l0,0c-0.1-0.5-0.2-1-0.2-1.2l0-0.1l0.1,0
		c1.2,0.5,2.2,1.2,3.1,2.1c0.6,0.6,1.1,1.2,1.6,2h0.1l0,0l0,0c0,0,0,0,0,0l0,0c0.5,0.8,0.9,1.5,1.1,2.3l0,0c0,0,0,0,0,0l0,0v0
		c0.1,0.3,0.2,0.7,0.3,1c0.1,0.5,0.2,0.9,0.2,1.4c-1.1-1-2.5-3-3.4-3.9c0.4,1.1,2.1,3.7,3.4,4.9c-1.1-0.3-2.2-0.8-3-1.5
		C54.7,59.5,54.1,58.8,53.6,57.9z M57.7,69.2c-0.8-0.4-1.6-1.1-2.3-1.8c-1.2-1.4-1.9-3.2-2.4-4.3l0,0c-0.2-0.5-0.4-0.9-0.5-1.2
		l0-0.1l0.1,0c1.3,0.3,2.4,0.7,3.5,1.4c0.9,0.6,1.8,1.3,2.5,2.2c0.5,0.6,1,1.3,1.4,2c0.2,0.7,0.5,1.4,0.7,2.1
		c-1.2-0.9-4.2-3.6-5.3-4.7c1.2,1.7,3.6,4.1,5.3,5.3C59.6,69.9,58.6,69.7,57.7,69.2z M57.3,74.9c-1.4-1.4-2.3-3.1-2.8-4.2l0-0.1
		l0.1,0c0.6,0.4,1.6,0.6,2.5,0.9l0,0c1.2,0.3,2.5,0.6,3.4,1.3c1,0.7,1.9,1.5,2.7,2.5c0.6,0.7,1,1.4,1.3,1.8
		c-1.8-0.7-4.6-2.4-6.2-3.3c0.7,0.6,3.8,2.8,5.9,3.8c-0.1,0-0.2,0-0.3,0C61.4,77.7,59.2,76.8,57.3,74.9z M65.8,85.3
		c-1-0.4-1.9-1-2.7-1.8c-1.6-1.4-2.4-3.1-2.7-3.7l0-0.1l0.1,0c0.6,0.3,1.5,0.4,2.5,0.6c1.3,0.2,2.7,0.5,3.8,1.1c1,0.6,2,1.4,2.9,2.3
		c0.7,0.8,1.2,1.5,1.5,1.9c-2-0.7-5.8-2.6-6.5-3C65,83,68,85.1,70.4,86c-0.3,0-0.6,0-0.8,0C68.3,86,67,85.8,65.8,85.3z M108.9,105
		L108.9,105L108.9,105c0-0.1,0-0.2,0-0.3c0,0,0,0,0,0c0.1-0.4,0.3-0.6,0.7-0.8c0.3-0.2,0.8-0.2,1.3-0.2c1.1,0,2.6,0.3,4.5,0.9
		c-0.1,1.5-0.1,3.1-0.2,4.8c-0.8-0.9-2-1.4-3.2-1.9C110,106.8,108.8,106.2,108.9,105z M102.2,108.2c0-0.2,0.1-0.5,0.3-0.7
		c1.3,0.7,2.5,1.3,3.8,2c-1.1,0.2-2.2,0.4-3.4,0.5C102.4,109.3,102.1,108.7,102.2,108.2z M106.4,101.5c0.6,0.5,0.6,1.3,0,2.2
		c-0.3,0.5-1.1,0.9-1.9,1.4l0,0c-0.6,0.4-1.2,0.7-1.8,1.2c-1.3-0.7-2.6-1.3-3.8-2c1.7-0.7,3.2-1.5,4.6-2.7c0.4-0.4,1-0.6,1.6-0.6
		C105.6,101,106.1,101.2,106.4,101.5z M97.8,110.5c-1.2,0.1-2.4,0.1-3.5,0.1c-1.1,0-2.2,0-3.3-0.1c1-1,1.9-2.2,1.8-3.4
		c0-0.7-0.3-1.3-0.9-2c0.9,0.2,1.6,0.3,2.4,0.3v0h0c0,0,0,0,0,0c0,0,0,0,0,0h0v0c0.9,0,1.7-0.1,2.6-0.4c-0.6,0.6-0.9,1.3-1,2
		C95.9,108.3,96.7,109.4,97.8,110.5z M94.3,104.8c-0.9,0-1.7-0.1-2.6-0.4c0.8-0.5,1.7-1,2.5-1.4c0,0,0.1,0,0.1,0c0,0,0.1,0,0.1,0
		c0.8,0.5,1.6,1,2.5,1.4C95.9,104.7,95.1,104.8,94.3,104.8z M94.3,94.7c-0.2,0-0.4,0-0.7,0c-0.1-1.4-0.5-2.1-1.1-2.7
		c0.7,0.1,1.2,0.2,1.8,0.2c0.6,0,1.1-0.1,1.7-0.2c-0.5,0.5-1,1.3-1.1,2.6C94.8,94.7,94.6,94.7,94.3,94.7z M94.3,95.3
		c3.9,0,4.3,0.6,4.3,1.2v4.8c0,0.9-1.8,1.1-4.3,1.1c-2.5,0-4.3-0.2-4.3-1.1v-4.8C90,95.9,90.4,95.3,94.3,95.3z M100.8,99.5
		c1.3,0,2.6,0.5,3.7,0.9c-0.5,0.1-1,0.3-1.4,0.7c-1.4,1.2-3,2-4.9,2.8c-0.6-0.3-1.2-0.6-1.8-1c1.6-0.1,2.7-0.5,2.7-1.6V100
		c0.2-0.1,0.3-0.2,0.5-0.3C100,99.6,100.4,99.5,100.8,99.5z M114.7,89.1c1.3-0.6,3-0.6,4.4-0.7c1,0,1.8-0.1,2.4-0.3l0.1,0l0,0.1
		c-0.4,0.6-1.5,2.1-3.3,3.5c-0.9,0.7-1.8,1.2-2.7,1.5c-1.1,0.4-2.2,0.6-3.4,0.6c-0.7,0-1.5-0.1-2.2-0.3c2.3-0.5,5-1.5,6.3-2.4
		c-1.2,0.5-4.9,1.8-7,2c0.3-0.3,0.8-0.9,1.6-1.6c0.2-0.2,0.4-0.4,0.6-0.5C112.4,90.4,113.5,89.6,114.7,89.1z M109.9,86.4
		c0.3-1.2,0.8-2.4,1.6-3.5c1.6-2.2,3.6-3.5,4.4-3.9l0.1,0l0,0.1c-0.2,0.6-0.3,1.4-0.4,2.4c-0.2,1.4-0.3,3-1,4.3
		c-1.3,2.5-3.5,4.3-4.3,5c0.4-2,2-5.6,2.6-6.6c-0.5,0.6-2.3,3.9-3,6.2C109.6,89,109.6,87.7,109.9,86.4z M105.2,91.2
		c-0.1,0.6-0.4,1.2-1.1,1.7c-0.6,0.5-1.5,0.8-2.3,1.1c-1.1,0.4-2.2,0.9-2.8,1.7c-0.4-0.6-1.4-0.9-3.3-1c0.1-1.7,0.8-2.2,1.6-2.8
		l0.2-0.2l0,0c0.7-0.2,1.4-0.5,2.3-0.8c0.5-0.2,1-0.4,1.5-0.7c1-0.5,1.8-0.8,2.4-0.8c0.4,0,0.8,0.2,1.2,0.5
		C105,90.1,105.3,90.5,105.2,91.2z M90.1,87.8L90.1,87.8c0.9,0.1,1.6,0.3,2.2,0.5c0.6,0.2,1.4,0.4,2,0.4v0c0,0,0,0,0,0c0,0,0,0,0,0
		v0c0.7,0,1.3-0.2,1.9-0.4c0.6-0.2,1.4-0.4,2.2-0.5l0.1,0c0.9,0,2.9,0.6,4.4,1.1c-0.7,0.1-1.4,0.5-2.1,0.8c-0.5,0.2-0.9,0.4-1.4,0.6
		c-2.5,0.9-3.9,1.3-5.2,1.3c-1.3,0-2.8-0.3-5.3-1.3c-0.5-0.2-0.9-0.4-1.5-0.6c-0.7-0.3-1.4-0.6-2-0.8C87.2,88.4,89.2,87.8,90.1,87.8
		z M87,94c-0.8-0.3-1.7-0.7-2.3-1.2c-0.7-0.5-1.1-1.1-1.1-1.7c-0.1-0.7,0.3-1.2,0.3-1.2c0.3-0.3,0.7-0.5,1.2-0.5
		c0.7,0,1.4,0.3,2.4,0.8c0.5,0.2,1,0.5,1.5,0.7c0.9,0.3,1.7,0.6,2.3,0.8l0,0l0.2,0.2c0.8,0.6,1.5,1.1,1.6,2.8
		c-1.8,0.1-2.9,0.4-3.3,0.9C89.1,94.9,88,94.5,87,94z M73,81.4c-0.1-1-0.2-1.8-0.4-2.4l0-0.1l0.1,0c0.8,0.5,2.9,1.8,4.4,3.9
		c0.8,1.1,1.4,2.3,1.6,3.5c0.3,1.3,0.3,2.6,0,3.9c-0.7-2.4-2.5-5.7-3-6.2c0.5,1.1,2.1,4.7,2.6,6.6c-0.9-0.7-3-2.5-4.3-5
		C73.3,84.4,73.1,82.8,73,81.4z M76.4,93.8c-1.1,0-2.3-0.2-3.4-0.6c-0.9-0.4-1.9-0.9-2.7-1.5c-1.7-1.3-2.9-2.9-3.3-3.5l0-0.1l0.1,0
		c0.6,0.2,1.4,0.2,2.4,0.3c1.5,0.1,3.1,0.1,4.4,0.7c1.2,0.5,2.3,1.3,3.2,2c0.2,0.2,0.4,0.4,0.7,0.5c0.8,0.7,1.3,1.3,1.6,1.6
		c-2.1-0.2-5.8-1.5-7-2c1.3,0.9,4.1,1.9,6.3,2.4C77.9,93.7,77.1,93.8,76.4,93.8z M87.8,99.5c0.4,0,0.9,0.1,1.2,0.2
		c0.1,0.1,0.3,0.2,0.4,0.3v1.4c0,1.1,1.2,1.5,2.7,1.6c-0.6,0.3-1.2,0.6-1.8,1l0,0c-1.9-0.8-3.2-1.6-4.7-2.8
		c-0.4-0.3-0.9-0.6-1.4-0.7C85.3,100,86.6,99.5,87.8,99.5z M84.2,105L84.2,105c-0.8-0.5-1.6-0.9-1.9-1.4c-0.6-0.9-0.6-1.7,0-2.2
		c0.3-0.3,0.8-0.5,1.3-0.5c0.6,0,1.1,0.2,1.6,0.6c1.4,1.2,2.7,1.9,4.4,2.7c-1.2,0.6-2.5,1.3-3.7,1.9C85.4,105.8,84.8,105.4,84.2,105
		z M86.3,107.4c0.2,0.2,0.3,0.5,0.3,0.7c0.1,0.5-0.2,1.2-0.7,1.9c-1.2-0.2-2.4-0.3-3.5-0.5C83.7,108.8,85,108.1,86.3,107.4z
		 M79.7,104.7c0,0.1,0,0.3,0,0.3l0,0h0c0.1,1.2-1.2,1.8-3.1,2.6c-1.2,0.5-2.5,1-3.2,1.9c0-1.6-0.1-3.3-0.2-4.8c1.9-0.6,3.4-1,4.5-1
		c0.5,0,1,0.1,1.3,0.2C79.4,104.1,79.6,104.3,79.7,104.7L79.7,104.7z M44.1,105.2c-0.1-0.5-0.1-0.9,0.2-1.4
		c1.2-1.9,6.4-3.8,13.1-4.8l0.1,0l0.8,3.2l-0.1,0c-5.9,2.8-9.7,4.1-11.9,4.1c-0.5,0-0.9-0.1-1.3-0.2C44.5,106,44.2,105.7,44.1,105.2
		z M62.8,108.5c-8,4.1-12,4.9-14,4.9c-0.7,0-1.2-0.1-1.6-0.3c-0.5-0.2-0.8-0.5-1-1l-1.7-5.5c0.1,0,0.1,0.1,0.2,0.1
		c0.4,0.2,0.9,0.3,1.5,0.3c3.4,0,9.5-2.8,15.7-5.9c8.2-4.1,12.4-4.9,14.5-4.9c1,0,1.5,0.2,1.8,0.3c0.5,0.2,0.7,0.6,0.7,1.1
		c0.2,1.5,0.5,4.1,0.6,5.8c-0.1,0-0.2-0.1-0.2-0.1c-0.4-0.2-0.9-0.3-1.6-0.3C74.2,103.1,67.6,106,62.8,108.5z M73.4,111.2
		c0-1.4,1.3-2.1,2.9-2.7c0.8,0.4,1.8,0.7,2.9,1c-1.9,0.9-3.8,1.7-5.7,2.5C73.4,111.7,73.4,111.4,73.4,111.2z M82.5,116.9
		c-4-0.9-6.8-2.1-8.1-3.6c2.4-1.1,4.8-2.2,7.1-3.4c1.2,0.3,2.5,0.5,3.9,0.6c-0.1,0.1-0.2,0.2-0.2,0.2
		C82.5,113.3,81.9,114.9,82.5,116.9z M84.3,119l-0.1,0.1l-0.1-0.1c-1.8-3.2-1.9-4.7,1.3-7.7c1.3-1.2,1.8-2.2,1.7-3.2
		c0-0.4-0.2-0.7-0.4-1c1.3-0.7,2.6-1.4,3.9-2.2c0.9,0.7,1.4,1.4,1.4,2.2c0.1,1.6-1.7,3.1-3.3,4.4c-1.5,1.3-2.8,2.3-2.6,3.4
		c0.1,0.4,0.4,0.8,0.9,1.1l0.1,0.1l-0.1,0.1C85.7,116.9,84.8,117.8,84.3,119z M94.3,118.2c-2.6,0-5.5-0.2-8.2-0.6
		c0.7-0.6,1.6-0.9,2.1-1.1l0.8-0.3l-0.8-0.3c-0.8-0.3-1.3-0.7-1.4-1c-0.1-0.7,1.1-1.7,2.4-2.8l0,0c0.4-0.3,0.8-0.6,1.1-1
		c1.4,0.1,2.7,0.1,4,0.1v0h0h0v0c1.3,0,2.7,0,4.1-0.1c0.4,0.3,0.8,0.7,1.2,1l0,0c1.3,1.1,2.5,2.1,2.3,2.8c-0.1,0.4-0.5,0.7-1.4,1
		l-0.8,0.3l0.8,0.3c0.5,0.2,1.3,0.5,2.1,1.1C99.9,117.9,97,118.2,94.3,118.2z M104.6,119l-0.1,0.1l-0.1-0.1
		c-0.5-1.2-1.4-2.1-2.9-2.8l-0.1-0.1l0.1-0.1c0.6-0.3,0.9-0.7,0.9-1.1c0.2-1.1-1.1-2.2-2.6-3.4c-0.4-0.4-0.9-0.7-1.3-1.1l0,0l0,0
		c-1.1-1-2.1-2.2-2-3.3c0-0.7,0.5-1.4,1.3-2.1c1.3,0.7,2.6,1.5,3.9,2.2c-0.2,0.3-0.3,0.6-0.3,0.9c-0.1,1,0.4,2,1.7,3.2
		C106.5,114.3,106.4,115.8,104.6,119z M112.6,114.7c-1.5,0.9-3.6,1.6-6.3,2.2c0.6-2,0-3.6-2.6-6.1c-0.1-0.1-0.2-0.2-0.3-0.3
		c1.3-0.2,2.6-0.4,3.8-0.6c2.3,1.2,4.7,2.3,7.1,3.4C113.8,113.8,113.3,114.3,112.6,114.7z M109.4,109.4c1.1-0.3,2.1-0.6,2.9-1
		c1.4,0.6,2.7,1.2,2.8,2.4c0,0.1,0,0.1,0,0.2v0h0c0,0,0,0.1,0,0.1c0,0.3,0,0.5-0.1,0.8C113.2,111.1,111.3,110.3,109.4,109.4z
		 M142.4,112.2c-0.1,0.5-0.5,0.8-1,1c-0.4,0.2-1,0.3-1.6,0.3c-2,0-6-0.9-14-4.9c-4.9-2.5-11.4-5.5-15-5.5c-0.6,0-1.2,0.1-1.6,0.3
		c-0.1,0-0.2,0.1-0.2,0.1c0.2-2,0.5-4.4,0.6-5.8c0.1-0.5,0.3-0.9,0.7-1.1c0.3-0.2,0.8-0.3,1.8-0.3c2.1,0,6.2,0.9,14.5,4.9
		c6.1,3,12.3,5.9,15.7,5.9c0.6,0,1.1-0.1,1.5-0.3c0.1,0,0.1-0.1,0.2-0.1L142.4,112.2z M144.6,105.2c-0.1,0.5-0.4,0.8-0.9,1
		c-0.3,0.1-0.8,0.2-1.3,0.2c-2.2,0-6-1.3-11.9-4.1l-0.1,0l0.8-3.2l0.1,0c6.7,1,11.8,2.9,13.1,4.8
		C144.6,104.3,144.7,104.7,144.6,105.2z"/>
</g>
<g>
	<polygon points="153.6,94 154.7,94 154.7,100.9 158.3,100.9 158.3,101.9 153.6,101.9 	"/>
	<polygon points="160.5,94 165.4,94 165.4,94.9 161.6,94.9 161.6,97.2 164.4,97.2 164.4,98.2 161.6,98.2 161.6,100.9 165.6,100.9 
		165.6,101.9 160.5,101.9 	"/>
	<g>
		<path d="M174.7,95.9c-0.1-0.4-0.4-1.2-1.3-1.2c-0.3,0-1.1,0.1-1.5,1.4c-0.2,0.7-0.2,1.8-0.2,1.8c0,0.8,0.1,1.7,0.4,2.3
			c0.4,0.8,1.1,0.9,1.3,0.9c0.6,0,1-0.3,1.1-0.5c0.4-0.5,0.4-0.9,0.5-1.4h-1.5v-1h2.6v3.8h-0.4l-0.2-0.5c-0.1-0.2-0.2-0.3-0.2-0.3
			c0,0-0.1,0-0.1,0.1c0,0-0.1,0.1-0.2,0.2c-0.2,0.2-0.7,0.6-1.6,0.6c-0.3,0-1.1,0-1.7-0.8c-0.7-0.9-0.9-2.4-0.9-3.3
			c0-0.9,0.1-2.1,0.6-2.9c0.6-1.1,1.6-1.3,2.1-1.3c1.4,0,2.2,0.9,2.4,1.9L174.7,95.9z"/>
	</g>
	<path d="M178.7,94h5v1h-3.8v2.3h2.8v1h-2.8v2.6h4v1h-5.2V94z M182.4,91.9l-1.4,1.5h-0.7l1-1.5H182.4z"/>
	<g>
		<path d="M186.2,94h1.4l2.3,5.1c0,0,0.3,0.8,0.3,0.8c0.1,0.1,0.3,0.8,0.3,0.9c0,0,0,0,0.1,0c0,0,0-0.1,0-0.2c0-0.1,0-0.7,0-0.8
			c0-0.5,0-0.9,0-1.2V94h0.9v7.9h-1.4l-2.3-5.1c-0.3-0.7-0.6-1.5-0.6-1.7c0,0,0,0-0.1,0c-0.1,0.1-0.1,0.1-0.1,0.1
			c0,0.2,0.1,1.4,0.1,1.5v5.2h-0.9V94z"/>
	</g>
	<polygon points="193.9,101.2 194.6,101.2 194.6,94.7 193.9,94.7 193.9,94 196.4,94 196.4,94.7 195.7,94.7 195.7,101.2 196.4,101.2 
		196.4,101.9 193.9,101.9 	"/>
	<polygon points="198.9,94 203.8,94 203.8,94.9 200,94.9 200,97.2 202.8,97.2 202.8,98.2 200,98.2 200,100.9 204,100.9 204,101.9 
		198.9,101.9 	"/>
	<polygon points="153.6,105.6 158.5,105.6 158.5,106.6 154.7,106.6 154.7,108.8 157.5,108.8 157.5,109.8 154.7,109.8 154.7,112.5 
		158.7,112.5 158.7,113.5 153.6,113.5 	"/>
	<g>
		<path d="M161,105.6h1.4l2.3,5.1c0,0,0.3,0.8,0.3,0.8c0.1,0.1,0.3,0.8,0.3,0.9c0,0,0,0,0.1,0c0,0,0-0.1,0-0.2c0-0.1,0-0.7,0-0.8
			c0-0.5,0-0.9,0-1.2v-4.7h0.9v7.9H165l-2.3-5.1c-0.3-0.7-0.6-1.5-0.6-1.7c0,0,0,0-0.1,0c-0.1,0.1-0.1,0.1-0.1,0.1
			c0,0.2,0.1,1.4,0.1,1.5v5.2H161V105.6z"/>
		<path d="M172.5,105.6h1.7c0.9,0,1.7,0.1,2.4,0.5c0.6,0.4,1,1.1,1,1.9c0,1-0.5,1.5-0.8,1.8c-0.7,0.5-1.5,0.6-2.3,0.6h-1v3.1h-1.1
			V105.6z M173.6,106.5v2.9c0.1,0,0.3,0,0.4,0c1.3,0,2.4-0.1,2.4-1.4c0-1.5-1.6-1.5-2.2-1.5H173.6z"/>
		<path d="M180,105.6h2.5c2.2,0,2.7,1.3,2.7,2.1c0,1.5-1,1.9-1.7,2.1l2.1,3.6h-1.3l-1.9-3.5h-1.2v3.5H180V105.6z M181.1,106.5v2.6
			c0.6,0,1.4,0,1.8-0.1c0.4-0.1,1.1-0.3,1.1-1.2c0-0.9-0.6-1.3-1.8-1.3H181.1z"/>
	</g>
	<polygon points="187.5,105.6 192.4,105.6 192.4,106.6 188.6,106.6 188.6,108.8 191.4,108.8 191.4,109.8 188.6,109.8 188.6,112.5 
		192.6,112.5 192.6,113.5 187.5,113.5 	"/>
	<g>
		<path d="M198.1,113.5l-1.9-7.2c0,0,0-0.1-0.1-0.1c0,0-0.1,0-0.1,0.1v7.1H195v-7.9h1.7l1.7,6.1c0,0.1,0.1,0.1,0.1,0.1
			c0.1,0,0.1,0,0.1-0.1l1.7-6.1h1.7v7.9h-0.9v-7.1c0-0.1,0-0.1-0.1-0.1c0,0-0.1,0-0.1,0.1l-1.9,7.1H198.1z"/>
	</g>
	<polygon points="204.5,112.8 205.1,112.8 205.1,106.3 204.5,106.3 204.5,105.6 207,105.6 207,106.3 206.3,106.3 206.3,112.8 
		207,112.8 207,113.5 204.5,113.5 	"/>
	<path d="M209.4,105.6h5v1h-3.8v2.3h2.8v1h-2.8v2.6h4v1h-5.2V105.6z M212.4,105.1h-0.7l-1.4-1.5h1.2L212.4,105.1z"/>
	<g>
		<path d="M216.9,105.6h2.5c2.2,0,2.7,1.3,2.7,2.1c0,1.5-1,1.9-1.7,2.1l2.1,3.6h-1.3l-1.9-3.5H218v3.5h-1.1V105.6z M218,106.5v2.6
			c0.6,0,1.4,0,1.8-0.1c0.4-0.1,1.1-0.3,1.1-1.2c0-0.9-0.6-1.3-1.8-1.3H218z"/>
	</g>
	<polygon points="224.4,105.6 229.4,105.6 229.4,106.6 225.6,106.6 225.6,108.8 228.4,108.8 228.4,109.8 225.6,109.8 225.6,112.5 
		229.6,112.5 229.6,113.5 224.4,113.5 	"/>
	<g>
		<path d="M238.6,107.9c-0.1-0.8-0.5-1.4-1.3-1.4c-0.8,0-1.1,0.6-1.3,1c-0.3,0.7-0.3,1.8-0.3,1.9c0,1.7,0.3,3.4,1.6,3.4
			c0.6,0,1-0.5,1.1-0.6c0.2-0.4,0.3-0.8,0.3-1.1l1.1,0.2c0,0.6-0.3,1.3-0.7,1.8c-0.7,0.7-1.5,0.7-1.8,0.7c-0.7,0-2.6-0.3-2.6-4.1
			c0-1.8,0.5-4.1,2.7-4.1c0.5,0,1.2,0.2,1.7,0.6c0.5,0.5,0.7,1.2,0.7,1.5L238.6,107.9z"/>
	</g>
	<polygon points="242.1,105.6 243.2,105.6 243.2,112.5 246.9,112.5 246.9,113.5 242.1,113.5 	"/>
	<g>
		<path d="M252.9,111.8h-3.1l-0.5,1.6h-1.2l2.6-7.9h1.2l2.7,7.9h-1.2L252.9,111.8z M252.6,110.9l-1.3-4c0,0,0,0-0.1,0
			c0,0,0,0-0.1,0.1l-1.2,4H252.6z"/>
		<path d="M260.1,107.7c-0.4-0.7-0.7-1.3-1.6-1.3c-0.5,0-1.2,0.3-1.2,1c0,0.7,0.6,1,0.9,1.1l1.6,0.7c0.3,0.1,0.9,0.5,1.2,1
			c0.1,0.2,0.3,0.5,0.3,1.1c0,0.7-0.3,1.4-0.8,1.8c-0.7,0.6-1.3,0.6-1.7,0.6c-0.5,0-1.3-0.2-1.8-0.6c-0.5-0.4-0.7-0.8-0.9-1.2l1-0.6
			c0.2,0.6,0.8,1.4,1.8,1.4c0.7,0,1.4-0.4,1.4-1.3c0-0.4-0.1-0.8-1-1.2l-1.4-0.6c-0.5-0.2-1.1-0.6-1.3-1.1c-0.1-0.2-0.2-0.5-0.2-1.1
			c0-1.2,1-2,2.3-2c1.2,0,2.1,0.6,2.6,1.7L260.1,107.7z"/>
		<path d="M267,107.7c-0.4-0.7-0.7-1.3-1.6-1.3c-0.5,0-1.2,0.3-1.2,1c0,0.7,0.6,1,0.9,1.1l1.6,0.7c0.3,0.1,0.9,0.5,1.2,1
			c0.1,0.2,0.3,0.5,0.3,1.1c0,0.7-0.3,1.4-0.8,1.8c-0.7,0.6-1.3,0.6-1.7,0.6c-0.5,0-1.3-0.2-1.8-0.6c-0.5-0.4-0.7-0.8-0.9-1.2l1-0.6
			c0.2,0.6,0.8,1.4,1.8,1.4c0.7,0,1.4-0.4,1.4-1.3c0-0.4-0.1-0.8-1-1.2l-1.4-0.6c-0.5-0.2-1.1-0.6-1.3-1.1c-0.1-0.2-0.2-0.5-0.2-1.1
			c0-1.2,1-2,2.3-2c1.2,0,2.1,0.6,2.6,1.7L267,107.7z"/>
	</g>
	<polygon points="270.3,105.6 275.3,105.6 275.3,106.6 271.5,106.6 271.5,108.8 274.3,108.8 274.3,109.8 271.5,109.8 271.5,112.5 
		275.5,112.5 275.5,113.5 270.3,113.5 	"/>
</g>
</svg>
