<?xml version="1.0" encoding="utf-8"?>
<!-- Generator: Adobe Illustrator 19.1.0, SVG Export Plug-In . SVG Version: 6.00 Build 0)  -->
<svg version="1.1" id="Layer_1" xmlns="http://www.w3.org/2000/svg" xmlns:xlink="http://www.w3.org/1999/xlink" x="0px" y="0px"
	 viewBox="0 0 5504.6 800" style="enable-background:new 0 0 5504.6 800;" xml:space="preserve">
<style type="text/css">
	.st0{fill:#EF3825;}
	.st1{fill:#64686C;}
</style>
<g>
	<path class="st0" d="M511.9,0h124.8c0,73.5,0,146.9-0.1,220.4c78.1-28.9,171.6-31.2,243.7,14.7c54.6,33.8,86.5,97.5,86.5,161
		c0.1,131,0,261.9,0.1,393c-41.6,0-83.2,0.1-124.8,0c0-108.8-0.1-217.7,0.1-326.5c-0.2-23.5,1.5-47.2-2.3-70.5
		c-5.6-31.9-28.9-59.8-59.7-70c-47.4-16.5-99.7-6.4-143.7,15.3c0.4,150.6,0.2,301.1,0.2,451.7c-41.5,0-83.1,0.1-124.7,0
		C511.9,525.9,511.9,263,511.9,0L511.9,0z"/>
	<path class="st0" d="M1742.8,0h2.2c0,70.3-0.1,140.6,0,210.9c68.5,0.1,137,0.1,205.5,0.1c0-47.9,0.1-95.8-0.1-143.6
		c40.5-22.6,81-45.4,121.8-67.4h3.2c-0.1,70.3-0.1,140.6-0.1,210.9c47.1,0.1,94.2,0,141.2,0.1c0.1,39.8,0.1,79.5,0.1,119.3
		c-47.1,0-94.2-0.1-141.3,0.1c0.1,78.2-0.1,156.6,0,234.9c-0.6,32.8,11.2,67.8,39.6,86.8c25.6,18.5,58.6,18.1,88.9,18.3
		c0,39.6,0.1,79.1,0,118.7c-59,0.9-122.9,4.3-174.6-29.1c-56.3-33.8-77.5-102.8-78.4-165c-0.7-88.1,0-176.3-0.2-264.4
		c-68.5-0.1-137-0.1-205.5,0c0,73.5-0.1,146.9-0.1,220.4c0.1,33.5,4.8,71.2,31.7,94.6c25.9,24.2,63.4,25,96.8,25
		c0,39.5,0.1,79,0,118.6c-57.4,0.9-118.9,4-170.1-26.6c-55.5-32-80.7-98.4-81.3-160c-0.3-90.6,0.1-181.3-0.1-272
		c-20.8,0-41.6,0-62.4-0.1c0-39.7-0.1-79.4,0-119.2c20.8,0,41.5,0,62.3,0c0.1-48.2,0-96.4,0.1-144.6
		C1662.4,44.5,1702.3,21.7,1742.8,0L1742.8,0z"/>
	<path class="st1" d="M3774.1,0h2.1c-0.1,70.3-0.1,140.6,0,211c47,0.1,94.1-0.1,141.1,0.1c0.1,39.7,0.1,79.4,0.1,119.1
		c-47.1,0.1-94.2,0-141.2,0.1c0,75.8-0.1,151.6-0.1,227.5c-0.1,32,6.5,67.5,32.9,88.7c26,23.3,62.6,24,95.6,23.7
		c0,39.6,0,79.2-0.1,118.8c-63.2,1.3-133.6,4.1-185.9-37.7c-52.5-39.8-67.1-109.4-67.1-171.8c-0.5-83.1,0-166.1-0.1-249.1
		c-21.4-0.1-42.9-0.1-64.2-0.1c-0.1-39.7-0.1-79.4,0.1-119.1c21.4-0.1,42.7-0.1,64.1-0.1c0-47.8,0.1-95.6-0.2-143.4
		C3692.3,45.3,3732.6,21.5,3774.1,0L3774.1,0z"/>
	<path class="st1" d="M5016.5,0h124.8c-0.1,145,0.1,290.1-0.1,435.1c66-74.4,130.9-149.8,196.8-224.3c51.2,0.4,102.4,0,153.7,0.4
		c-76.4,86.8-153.5,173.1-229.9,259.8c80.7,105.7,162.6,210.5,242.8,316.5v1.7c-49.6-0.3-99.2,0.1-148.8-0.2
		c-58.4-75.5-116-151.6-174.5-227.1c-13.5,15-26.9,30.2-40.1,45.4c0.1,60.6,0.1,121.1,0.1,181.7c-41.6,0.1-83.2,0.1-124.8,0
		C5016.4,525.9,5016.5,263,5016.5,0L5016.5,0z"/>
	<path class="st0" d="M211.8,201.6c77.8-7.7,157.4,7.6,227.4,42.4c-14.4,37.4-28.3,75-42.9,112.3c-65.4-29.1-143.1-54.6-212.9-26.1
		c-40.4,15.6-38.2,79.6,2.4,93.4c62.8,24.7,135.9,17.8,194.3,55.4c83.1,48.2,93.1,173.1,35.2,244.6c-40,49.1-104.1,70.2-165.3,76.4
		h-75.7c-60-4.6-120.5-16.4-174.3-44.5v-4.1c14.5-35.8,30.5-70.9,45.3-106.5c64,28.3,135.2,42.2,205.1,35.7
		c32-3.2,72.5-19.5,74.7-56.6c4.3-28.9-20.1-51.4-45.6-59.1c-48.7-15.7-101.4-15.3-149.4-34.1c-41.9-15.1-79.6-47.2-93.6-90.4
		C20,387.3,24.7,325,59.2,279.8C95,232.2,154.1,208.4,211.8,201.6L211.8,201.6z"/>
	<path class="st0" d="M2909.6,223c56-26.1,120.3-27.7,180.3-17.8c0,40.5,0,81,0,121.5c-41.2-6.5-87.2-12.3-124.8,10.3
		c-28.4,15.9-41.7,49.4-40.4,80.7c0.1,123.7,0.1,247.5,0.1,371.2c-41.6,0-83.2,0-124.8,0c-0.1-126,0.1-252-0.1-378.1
		C2795.6,333.8,2837.3,254.3,2909.6,223L2909.6,223z"/>
	<path class="st1" d="M3302.5,202.5c79.7-9.6,161.5,6.1,233.5,41.2c-13.9,37.7-28.3,75.1-42.6,112.7
		c-57.5-25.9-121.6-46.5-185.2-35.2c-26.9,4.3-58.6,22.5-57.2,53.5c-2.3,28,22.1,49,47.2,55c61.2,16.9,129,15.7,183.6,52.1
		c84.6,54.4,88.3,190,16.7,256.7c-40.3,39-96.5,55.5-151,61.6h-76c-60.8-4-121.3-17.6-176.2-44.5c15.3-37,31.2-73.7,47.1-110.4
		c59.7,26.2,125.1,39.7,190.5,36.8c26.4-1.8,55.2-7,74.9-26.3c21.7-21,19.2-62-7-78.2c-37.6-24.7-84.5-23.3-126.8-33.5
		c-51.5-9.8-105.6-33.8-131.2-82.1c-25.4-51-24.7-115.1,2.5-165.2C3176.7,240.4,3240.7,210.7,3302.5,202.5L3302.5,202.5z"/>
	<path class="st1" d="M4668.7,205.7c71.6-13.5,150.3-5.9,211.8,35.7c39.8,25.2,65.5,66.9,79.9,111c-37.4,14.5-75,28.6-112.4,43.1
		c-22.8-70.8-114.1-92.4-175.7-61.1c-27.7,14.3-42.1,45.7-41,76.2c-0.3,59-0.1,118-0.1,177.1c-0.9,30.2,11.5,63,39.3,77.8
		c61.6,31.6,154.6,11.6,177-60.4c37.7,14.6,75.7,28.4,113.3,43.4c-10.7,27.9-22.7,56.1-43.2,78.5c-38.5,44.2-96.2,66.3-153.3,73.1
		h-61.1c-50.6-4.8-102.2-20.9-139.3-57c-38.6-35.7-58.3-88.8-57.5-140.8c0.1-68.6,0-137.2,0-205.9c-0.2-39.8,11.4-79.8,34.3-112.4
		C4570.1,241.3,4618.6,215.2,4668.7,205.7L4668.7,205.7z"/>
	<path class="st0" d="M1038.5,211c41.6-0.1,83.2-0.1,124.7,0c0.2,123-0.2,246.1,0.1,369.1c-0.4,36.7,13.4,77.1,47.5,95.4
		c49.4,26.1,110,21.1,159.9-1.3c-0.1-154.4-0.1-308.8-0.1-463.2c41.6-0.1,83.2-0.1,124.7,0c0,180.8,0.3,361.5-0.2,542.2
		c-59.2,24.7-122,41.3-186.1,46.8h-69.8c-57.7-4.7-119-23.5-156.8-69.9c-34.4-41.7-43.5-97.6-44-150.2
		C1038.5,456.9,1038.5,333.9,1038.5,211L1038.5,211z"/>
	<path class="st0" d="M3969.5,360.1c4.6-79.4,75.7-147.5,155.2-149.1c52.6-0.4,105.2,0.1,157.8-0.1c0.1,42.8,0.1,85.7,0,128.4
		c-50.3,0.3-100.6-0.4-151,0.1c-17.9-1-34.9,15.9-34.1,33.8c-0.7,54.2,0.1,108.3-0.2,162.4c-42.9,0-85.7,0-128.4,0
		C3969.4,477.2,3967.6,418.6,3969.5,360.1L3969.5,360.1z"/>
	<path class="st0" d="M2724.8,557.7c-0.9-58.8,2.1-117.8-1.8-176.5c-3.4-53.9-31.8-105.3-75.4-137.2
		c-43.5-32.4-98.8-45.2-152.4-44.3c-55,0.1-112.7,12.3-156.4,47.4c-44.9,35-68.8,92.4-69.1,148.6c-0.1,66.5,0,133,0,199.6
		c0.1,53.3,16.7,109,56.1,146.6c36.6,37,88.7,52.8,139.2,58.1h62.2c74.9-6.4,149.4-47.4,183.2-116.6
		c-34.9-20.9-69.7-41.9-104.6-62.8c-34.4,62.5-126.2,81.9-182.4,38.2c-29.9-24.3-29.9-65.9-29.3-101
		C2504.4,557.7,2614.5,557.9,2724.8,557.7z M2408,360.4c17.3-30.5,54.2-42.6,87.6-41.5c33.6-1.7,71.1,10.1,89.4,40.3
		c17.8,28.6,14.8,63.6,15.1,95.9c-68.5,0-137,0-205.6-0.1C2394.9,423.3,2389.9,388.6,2408,360.4z"/>
	<path class="st0" d="M4319.3,466.1c42.8,0,85.6,0,128.4,0c-0.5,57.8,1,115.5-0.6,173.2c-3.8,78.9-73.8,148-153,149.7
		c-53.4,0.1-106.9,0-160.3-0.1c0.1-42.1,0-84.3,0.1-126.5c48.1-0.3,96.4,0.5,144.5-0.1c18.9,1.5,40.1-11.7,40.5-32.2
		C4319.9,575.4,4318.9,520.7,4319.3,466.1L4319.3,466.1z"/>
</g>
</svg>
