<?xml version="1.0" encoding="UTF-8" standalone="no"?>
<!-- Created with Inkscape (http://www.inkscape.org/) -->

<svg
   xmlns:dc="http://purl.org/dc/elements/1.1/"
   xmlns:cc="http://creativecommons.org/ns#"
   xmlns:rdf="http://www.w3.org/1999/02/22-rdf-syntax-ns#"
   xmlns:svg="http://www.w3.org/2000/svg"
   xmlns="http://www.w3.org/2000/svg"
   version="1.1"
   width="294.51971"
   height="98.623154"
   id="svg3516">
  <defs
     id="defs3518" />
  <g
     transform="translate(-241.31158,-460.19346)"
     id="layer1">
    <path
       d="M 160.78125,1 C 156.8059,1.66257 150.8526,2.64783 145,3.53125 l 0,0.5625 c 2.98151,0.88341 31.8101,10.27073 35.34375,11.375 4.52749,-1.32512 7.6226,-1.99369 11.15625,-2.65625 l 0,-0.5625 C 187.08294,10.92488 164.42532,2.21469 160.78125,1 z m -55.4375,16.21875 c -24.6251,0 -36.21875,17.22554 -36.21875,34.5625 0,15.12842 8.18725,33.3729 34.46875,33.59375 10.0488,3.09193 28.03291,10.70404 32.78125,12.25 6.18389,-1.21468 10.72447,-1.77495 16.6875,-2.4375 l 0,-0.78125 C 148.53501,92.86028 124.00435,85.03756 121.90625,84.375 118.70388,83.27074 119.06054,83.72085 117.625,83.5 130.43446,80.96018 141.79583,67.03678 141.90625,51.6875 142.01663,34.46097 131.18354,17.32918 105.34375,17.21875 z M 1,18.5625 1,60.09375 C 1,76.989 14.03818,84.8104 29.71875,85.03125 l 0.28125,0 c 20.12215,0 29.07707,-11.77261 29.1875,-25.625 l 0,-40.84375 -11.59375,0 0,36.65625 c 0,9.49668 -2.10084,22.09375 -16.125,22.09375 -8.94454,0 -15.78125,-4.86977 -15.78125,-16.90625 l 0,-41.84375 -14.6875,0 z m 171.8125,0 c -1.21469,2.98153 -25.37471,57.29929 -28.6875,65.25 l 11.03125,0 7.40625,-19.21875 23.96875,0 7.8125,19.21875 15.375,0 c -2.65023,-5.74218 -27.27691,-61.38506 -29.375,-65.25 l -7.53125,0 z m 51.59375,0 -8.96875,65.25 10.84375,0 3.84375,-42.9375 c 1.6564,2.31897 19.46033,40.96439 20.34375,43.0625 l 4.28125,0 19.65625,-43.0625 3.65625,42.9375 15.46875,0 -8.40625,-65.25 -9.5,0 -21.1875,43.9375 -21.09375,-43.9375 -8.9375,0 z m -119.125,4.625 0.1875,0 c 15.34927,0.11037 21.41045,14.03413 20.96875,28.5 -0.55213,15.34928 -8.04676,27.375 -21.1875,27.375 -12.9199,-0.11038 -20.89169,-12.13615 -20.78125,-27.375 0.11038,-14.19593 5.69634,-28.5 20.8125,-28.5 z m 68.96875,10.84375 9.5,23.5 -18.4375,0 8.9375,-23.5 z"
       transform="translate(241.31158,460.19346)"
       id="path280"
       style="fill:#003888;fill-opacity:1;fill-rule:nonzero;stroke:none" />
  </g>
</svg>
